<svg xmlns="http://www.w3.org/2000/svg" xmlns:xlink="http://www.w3.org/1999/xlink" width="56" zoomAndPan="magnify" viewBox="0 0 42 42" height="56" preserveAspectRatio="xMidYMid meet" version="1.0"><defs><g/><clipPath id="9bfa9ab539"><path d="M 10.457031 13.699219 L 31.699219 13.699219 L 31.699219 34.945312 L 10.457031 34.945312 Z M 10.457031 13.699219 " clip-rule="nonzero"/></clipPath><clipPath id="4d75b02ad0"><rect x="0" width="24" y="0" height="8"/></clipPath></defs><g clip-path="url(#9bfa9ab539)"><path fill="#ffffff" d="M 31.28125 25.625 C 31.371094 25.148438 31.371094 24.625 31.371094 24.144531 C 31.371094 24.144531 31.371094 24.101562 31.371094 24.101562 L 31.195312 24.058594 L 31.195312 23.625 L 31.371094 23.667969 C 31.328125 23.101562 31.28125 22.578125 31.152344 22.058594 L 30.976562 22.058594 L 30.890625 21.621094 L 31.066406 21.621094 C 30.933594 21.097656 30.761719 20.621094 30.585938 20.140625 L 30.414062 20.183594 L 30.238281 19.75 L 30.414062 19.707031 C 30.195312 19.226562 29.890625 18.75 29.585938 18.269531 L 29.410156 18.355469 L 29.148438 17.964844 L 29.324219 17.921875 C 29.019531 17.488281 28.671875 17.136719 28.324219 16.746094 L 28.148438 16.835938 L 27.84375 16.53125 L 27.976562 16.441406 C 27.582031 16.09375 27.148438 15.746094 26.667969 15.441406 L 26.539062 15.570312 L 26.148438 15.265625 L 26.277344 15.136719 C 25.84375 14.875 25.363281 14.65625 24.886719 14.441406 L 24.796875 14.570312 L 24.363281 14.398438 L 24.449219 14.265625 C 23.925781 14.09375 23.40625 13.960938 22.882812 13.832031 L 22.796875 14.003906 L 22.359375 13.917969 L 22.449219 13.742188 C 21.925781 13.742188 21.445312 13.699219 20.925781 13.699219 C 20.925781 13.699219 20.878906 13.699219 20.878906 13.699219 L 20.835938 13.875 L 20.402344 13.875 L 20.402344 13.699219 C 19.835938 13.742188 19.3125 13.789062 18.792969 13.917969 L 18.792969 14.09375 L 18.355469 14.179688 L 18.355469 14.003906 C 17.835938 14.136719 17.355469 14.308594 16.875 14.484375 L 16.921875 14.65625 L 16.484375 14.832031 L 16.441406 14.65625 C 15.960938 14.875 15.484375 15.179688 15.003906 15.484375 L 15.09375 15.660156 L 14.699219 15.921875 L 14.65625 15.746094 C 14.265625 16.09375 13.875 16.441406 13.523438 16.789062 L 13.613281 16.964844 L 13.265625 17.269531 L 13.175781 17.136719 C 12.828125 17.53125 12.480469 17.964844 12.175781 18.445312 L 12.304688 18.574219 L 12.046875 18.921875 L 11.914062 18.792969 C 11.652344 19.226562 11.4375 19.707031 11.21875 20.183594 L 11.347656 20.273438 L 11.175781 20.707031 L 11.042969 20.621094 C 10.871094 21.144531 10.738281 21.664062 10.609375 22.1875 L 10.78125 22.273438 L 10.695312 22.710938 L 10.523438 22.621094 C 10.523438 23.144531 10.476562 23.625 10.476562 24.144531 C 10.476562 24.144531 10.476562 24.191406 10.476562 24.191406 L 10.652344 24.234375 L 10.652344 24.667969 L 10.476562 24.667969 C 10.523438 25.234375 10.566406 25.757812 10.695312 26.277344 L 10.871094 26.277344 L 10.957031 26.714844 L 10.78125 26.714844 C 10.914062 27.234375 11.085938 27.714844 11.261719 28.195312 L 11.4375 28.148438 L 11.609375 28.585938 L 11.4375 28.628906 C 11.652344 29.109375 11.957031 29.585938 12.261719 30.066406 L 12.4375 29.976562 L 12.699219 30.371094 L 12.523438 30.414062 C 12.828125 30.847656 13.175781 31.195312 13.523438 31.589844 L 13.699219 31.5 L 14.003906 31.804688 L 13.875 31.894531 C 14.265625 32.242188 14.699219 32.589844 15.179688 32.894531 L 15.308594 32.765625 L 15.703125 33.023438 L 15.570312 33.15625 C 16.007812 33.417969 16.484375 33.632812 16.964844 33.851562 L 17.050781 33.722656 L 17.484375 33.894531 L 17.398438 34.027344 C 17.921875 34.199219 18.441406 34.332031 18.964844 34.460938 L 19.050781 34.289062 L 19.488281 34.375 L 19.402344 34.546875 C 19.878906 34.636719 20.402344 34.636719 20.878906 34.636719 C 20.878906 34.636719 20.925781 34.636719 20.925781 34.636719 L 20.96875 34.460938 L 21.402344 34.460938 L 21.445312 34.59375 C 22.011719 34.546875 22.535156 34.503906 23.058594 34.375 L 23.058594 34.199219 L 23.492188 34.113281 L 23.492188 34.289062 C 24.015625 34.15625 24.492188 33.984375 24.972656 33.808594 L 24.929688 33.632812 L 25.363281 33.460938 L 25.40625 33.632812 C 25.886719 33.417969 26.363281 33.113281 26.84375 32.808594 L 26.757812 32.632812 L 27.148438 32.371094 L 27.191406 32.546875 C 27.625 32.242188 27.976562 31.894531 28.367188 31.546875 L 28.28125 31.371094 L 28.585938 31.066406 L 28.671875 31.195312 C 29.019531 30.804688 29.367188 30.371094 29.671875 29.890625 L 29.542969 29.761719 L 29.804688 29.367188 L 29.933594 29.5 C 30.195312 29.0625 30.414062 28.585938 30.628906 28.105469 L 30.5 28.019531 L 30.671875 27.585938 L 30.804688 27.671875 C 30.976562 27.148438 31.109375 26.625 31.238281 26.105469 L 31.066406 26.019531 L 31.152344 25.582031 Z M 20.925781 31.457031 C 16.875 31.457031 13.613281 28.195312 13.613281 24.144531 C 13.613281 20.097656 16.875 16.835938 20.925781 16.835938 C 24.972656 16.835938 28.234375 20.097656 28.234375 24.144531 C 28.234375 28.195312 24.972656 31.457031 20.925781 31.457031 Z M 20.925781 31.457031 " fill-opacity="1" fill-rule="nonzero"/></g><path fill="#ffffff" d="M 25.234375 28.585938 C 26.453125 27.410156 27.148438 25.800781 27.148438 24.144531 C 27.148438 23.796875 27.105469 23.449219 27.0625 23.058594 L 25.84375 23.449219 C 25.886719 23.667969 25.886719 23.886719 25.886719 24.144531 C 25.886719 25.496094 25.363281 26.671875 24.492188 27.585938 Z M 25.234375 28.585938 " fill-opacity="1" fill-rule="nonzero"/><path fill="#ffffff" d="M 20.054688 18.007812 C 18.007812 18.3125 16.265625 19.574219 15.351562 21.449219 L 16.570312 21.839844 C 17.269531 20.535156 18.53125 19.574219 20.054688 19.316406 Z M 20.054688 18.007812 " fill-opacity="1" fill-rule="nonzero"/><path fill="#ffffff" d="M 21.792969 18.007812 L 21.792969 19.269531 C 23.316406 19.53125 24.582031 20.488281 25.277344 21.796875 L 26.496094 21.402344 C 25.582031 19.574219 23.839844 18.3125 21.792969 18.007812 Z M 21.792969 18.007812 " fill-opacity="1" fill-rule="nonzero"/><path fill="#ffffff" d="M 18.746094 28.585938 L 18.007812 29.628906 C 18.921875 30.109375 19.878906 30.371094 20.925781 30.371094 C 21.96875 30.371094 22.925781 30.109375 23.839844 29.628906 L 23.101562 28.585938 C 22.449219 28.890625 21.707031 29.0625 20.925781 29.0625 C 20.140625 29.0625 19.402344 28.890625 18.746094 28.585938 Z M 18.746094 28.585938 " fill-opacity="1" fill-rule="nonzero"/><path fill="#ffffff" d="M 16.050781 23.449219 L 14.832031 23.058594 C 14.789062 23.40625 14.742188 23.753906 14.742188 24.144531 C 14.742188 25.84375 15.441406 27.453125 16.660156 28.585938 L 17.398438 27.539062 C 16.527344 26.671875 16.007812 25.453125 16.007812 24.101562 C 16.007812 23.929688 16.007812 23.667969 16.050781 23.449219 Z M 16.050781 23.449219 " fill-opacity="1" fill-rule="nonzero"/><path fill="#ffffff" d="M 20.925781 17.3125 C 17.136719 17.3125 14.089844 20.359375 14.089844 24.144531 C 14.089844 27.933594 17.136719 30.980469 20.925781 30.980469 C 24.710938 30.980469 27.757812 27.933594 27.757812 24.144531 C 27.757812 20.359375 24.710938 17.3125 20.925781 17.3125 Z M 20.707031 17.660156 C 20.792969 17.660156 20.835938 17.660156 20.925781 17.660156 C 21.011719 17.660156 21.054688 17.660156 21.140625 17.660156 L 21.140625 21.796875 C 21.140625 21.925781 21.054688 22.011719 20.925781 22.011719 C 20.792969 22.011719 20.707031 21.925781 20.707031 21.796875 Z M 22.054688 24.144531 C 22.054688 24.753906 21.578125 25.277344 20.925781 25.277344 C 20.316406 25.277344 19.792969 24.800781 19.792969 24.144531 C 19.792969 23.535156 20.269531 23.015625 20.925781 23.015625 C 21.535156 23.015625 22.054688 23.535156 22.054688 24.144531 Z M 20.359375 17.660156 L 20.359375 21.054688 C 20.359375 21.578125 20.097656 22.058594 19.660156 22.363281 C 19.226562 22.710938 18.617188 22.796875 18.09375 22.621094 L 14.917969 21.578125 C 15.875 19.445312 17.921875 17.878906 20.359375 17.660156 Z M 14.832031 21.925781 L 18.746094 23.1875 C 18.878906 23.230469 18.921875 23.363281 18.878906 23.449219 C 18.835938 23.582031 18.703125 23.625 18.617188 23.582031 L 14.699219 22.316406 C 14.699219 22.1875 14.742188 22.058594 14.832031 21.925781 Z M 14.4375 24.144531 C 14.4375 23.625 14.484375 23.144531 14.613281 22.667969 L 17.878906 23.710938 C 18.355469 23.886719 18.746094 24.277344 18.878906 24.753906 C 18.878906 24.753906 18.878906 24.800781 18.878906 24.800781 C 19.050781 25.277344 19.007812 25.800781 18.703125 26.234375 L 16.660156 29.019531 C 15.308594 27.84375 14.4375 26.105469 14.4375 24.144531 Z M 16.921875 29.28125 L 19.355469 25.929688 C 19.445312 25.84375 19.574219 25.800781 19.660156 25.886719 C 19.75 25.972656 19.792969 26.105469 19.707031 26.191406 L 17.269531 29.542969 C 17.179688 29.457031 17.050781 29.367188 16.921875 29.28125 Z M 20.925781 30.632812 C 19.707031 30.632812 18.53125 30.28125 17.574219 29.71875 L 19.574219 26.929688 C 19.878906 26.496094 20.359375 26.277344 20.925781 26.277344 C 21.445312 26.277344 21.925781 26.496094 22.273438 26.929688 L 24.277344 29.71875 C 23.316406 30.328125 22.144531 30.632812 20.925781 30.632812 Z M 24.582031 29.542969 L 22.144531 26.191406 C 22.054688 26.105469 22.097656 25.972656 22.1875 25.886719 C 22.273438 25.800781 22.402344 25.84375 22.492188 25.929688 L 24.929688 29.28125 C 24.796875 29.367188 24.667969 29.457031 24.582031 29.542969 Z M 27.410156 24.144531 C 27.410156 26.105469 26.539062 27.84375 25.144531 29.0625 L 23.101562 26.277344 C 22.796875 25.886719 22.753906 25.320312 22.925781 24.84375 C 22.925781 24.84375 22.925781 24.800781 22.925781 24.800781 C 23.058594 24.320312 23.449219 23.929688 23.925781 23.753906 L 27.191406 22.710938 C 27.367188 23.144531 27.410156 23.625 27.410156 24.144531 Z M 27.191406 22.363281 L 23.273438 23.625 C 23.144531 23.667969 23.058594 23.582031 23.011719 23.492188 C 22.96875 23.363281 23.058594 23.277344 23.144531 23.230469 L 27.0625 21.96875 C 27.105469 22.058594 27.148438 22.1875 27.191406 22.363281 Z M 23.710938 22.667969 C 23.1875 22.839844 22.621094 22.753906 22.1875 22.40625 C 21.75 22.101562 21.488281 21.578125 21.488281 21.054688 L 21.488281 17.703125 C 23.925781 17.921875 25.972656 19.488281 26.929688 21.664062 Z M 23.710938 22.667969 " fill-opacity="1" fill-rule="nonzero"/><g transform="matrix(1, 0, 0, 1, 9, 6)"><g clip-path="url(#4d75b02ad0)"><g fill="#ffffff" fill-opacity="1"><g transform="translate(1.094071, 5.674717)"><g><path d="M 0.1875 0 L 0.1875 -0.59375 L 1.078125 -0.59375 L 1.078125 -2.890625 L 1.015625 -2.90625 C 0.890625 -2.84375 0.765625 -2.789062 0.640625 -2.75 C 0.523438 -2.71875 0.390625 -2.691406 0.234375 -2.671875 L 0.234375 -3.296875 C 0.640625 -3.378906 0.96875 -3.503906 1.21875 -3.671875 L 1.796875 -3.671875 L 1.796875 -0.59375 L 2.59375 -0.59375 L 2.59375 0 Z M 0.1875 0 "/></g></g></g><g fill="#ffffff" fill-opacity="1"><g transform="translate(3.709355, 5.674717)"><g><path d="M 1.796875 0.046875 C 1.492188 0.046875 1.226562 -0.015625 1 -0.140625 C 0.78125 -0.273438 0.609375 -0.484375 0.484375 -0.765625 C 0.367188 -1.046875 0.3125 -1.398438 0.3125 -1.828125 C 0.3125 -2.265625 0.367188 -2.625 0.484375 -2.90625 C 0.609375 -3.1875 0.78125 -3.390625 1 -3.515625 C 1.226562 -3.648438 1.492188 -3.71875 1.796875 -3.71875 C 2.097656 -3.71875 2.359375 -3.648438 2.578125 -3.515625 C 2.796875 -3.390625 2.96875 -3.1875 3.09375 -2.90625 C 3.21875 -2.625 3.28125 -2.265625 3.28125 -1.828125 C 3.28125 -1.398438 3.21875 -1.046875 3.09375 -0.765625 C 2.96875 -0.484375 2.796875 -0.273438 2.578125 -0.140625 C 2.359375 -0.015625 2.097656 0.046875 1.796875 0.046875 Z M 1.796875 -0.5625 C 1.953125 -0.5625 2.085938 -0.597656 2.203125 -0.671875 C 2.316406 -0.753906 2.398438 -0.890625 2.453125 -1.078125 C 2.515625 -1.265625 2.546875 -1.515625 2.546875 -1.828125 C 2.546875 -2.148438 2.515625 -2.40625 2.453125 -2.59375 C 2.398438 -2.78125 2.316406 -2.910156 2.203125 -2.984375 C 2.085938 -3.066406 1.953125 -3.109375 1.796875 -3.109375 C 1.628906 -3.109375 1.488281 -3.066406 1.375 -2.984375 C 1.269531 -2.910156 1.1875 -2.78125 1.125 -2.59375 C 1.0625 -2.40625 1.03125 -2.148438 1.03125 -1.828125 C 1.03125 -1.515625 1.0625 -1.265625 1.125 -1.078125 C 1.1875 -0.890625 1.269531 -0.753906 1.375 -0.671875 C 1.488281 -0.597656 1.628906 -0.5625 1.796875 -0.5625 Z M 1.796875 -0.5625 "/></g></g><g transform="translate(7.299405, 5.674717)"><g><path d="M 1.046875 -1.671875 C 0.773438 -1.671875 0.5625 -1.753906 0.40625 -1.921875 C 0.257812 -2.097656 0.1875 -2.359375 0.1875 -2.703125 C 0.1875 -3.046875 0.257812 -3.300781 0.40625 -3.46875 C 0.5625 -3.632812 0.773438 -3.71875 1.046875 -3.71875 C 1.316406 -3.71875 1.53125 -3.632812 1.6875 -3.46875 C 1.84375 -3.300781 1.921875 -3.046875 1.921875 -2.703125 C 1.921875 -2.359375 1.84375 -2.097656 1.6875 -1.921875 C 1.53125 -1.753906 1.316406 -1.671875 1.046875 -1.671875 Z M 1.3125 0 L 0.6875 0 L 0.6875 -0.046875 L 3.140625 -3.671875 L 3.75 -3.671875 L 3.765625 -3.609375 Z M 1.046875 -2.15625 C 1.148438 -2.15625 1.226562 -2.191406 1.28125 -2.265625 C 1.332031 -2.347656 1.359375 -2.492188 1.359375 -2.703125 C 1.359375 -2.898438 1.332031 -3.039062 1.28125 -3.125 C 1.226562 -3.207031 1.148438 -3.25 1.046875 -3.25 C 0.984375 -3.25 0.925781 -3.234375 0.875 -3.203125 C 0.832031 -3.171875 0.796875 -3.113281 0.765625 -3.03125 C 0.742188 -2.945312 0.734375 -2.835938 0.734375 -2.703125 C 0.734375 -2.554688 0.742188 -2.441406 0.765625 -2.359375 C 0.796875 -2.285156 0.832031 -2.234375 0.875 -2.203125 C 0.914062 -2.171875 0.972656 -2.15625 1.046875 -2.15625 Z M 3.40625 0.046875 C 3.132812 0.046875 2.921875 -0.0351562 2.765625 -0.203125 C 2.609375 -0.367188 2.53125 -0.625 2.53125 -0.96875 C 2.53125 -1.3125 2.609375 -1.566406 2.765625 -1.734375 C 2.921875 -1.910156 3.132812 -2 3.40625 -2 C 3.675781 -2 3.882812 -1.910156 4.03125 -1.734375 C 4.1875 -1.566406 4.265625 -1.3125 4.265625 -0.96875 C 4.265625 -0.625 4.1875 -0.367188 4.03125 -0.203125 C 3.882812 -0.0351562 3.675781 0.046875 3.40625 0.046875 Z M 3.40625 -0.421875 C 3.46875 -0.421875 3.519531 -0.4375 3.5625 -0.46875 C 3.613281 -0.5 3.648438 -0.554688 3.671875 -0.640625 C 3.691406 -0.722656 3.703125 -0.832031 3.703125 -0.96875 C 3.703125 -1.113281 3.691406 -1.222656 3.671875 -1.296875 C 3.648438 -1.378906 3.613281 -1.4375 3.5625 -1.46875 C 3.519531 -1.5 3.46875 -1.515625 3.40625 -1.515625 C 3.332031 -1.515625 3.273438 -1.5 3.234375 -1.46875 C 3.191406 -1.4375 3.15625 -1.378906 3.125 -1.296875 C 3.101562 -1.222656 3.09375 -1.113281 3.09375 -0.96875 C 3.09375 -0.832031 3.101562 -0.722656 3.125 -0.640625 C 3.15625 -0.554688 3.191406 -0.5 3.234375 -0.46875 C 3.273438 -0.4375 3.332031 -0.421875 3.40625 -0.421875 Z M 3.40625 -0.421875 "/></g></g><g transform="translate(11.751167, 5.674717)"><g/></g><g transform="translate(12.964599, 5.674717)"><g><path d="M 2 0.046875 C 1.664062 0.046875 1.367188 -0.0195312 1.109375 -0.15625 C 0.847656 -0.289062 0.644531 -0.5 0.5 -0.78125 C 0.351562 -1.0625 0.28125 -1.410156 0.28125 -1.828125 C 0.28125 -2.253906 0.351562 -2.609375 0.5 -2.890625 C 0.644531 -3.171875 0.847656 -3.378906 1.109375 -3.515625 C 1.367188 -3.648438 1.664062 -3.71875 2 -3.71875 C 2.332031 -3.71875 2.625 -3.648438 2.875 -3.515625 C 3.132812 -3.378906 3.335938 -3.171875 3.484375 -2.890625 C 3.628906 -2.609375 3.703125 -2.253906 3.703125 -1.828125 C 3.703125 -1.410156 3.628906 -1.0625 3.484375 -0.78125 C 3.335938 -0.5 3.132812 -0.289062 2.875 -0.15625 C 2.625 -0.0195312 2.332031 0.046875 2 0.046875 Z M 2 -0.578125 C 2.3125 -0.578125 2.546875 -0.675781 2.703125 -0.875 C 2.867188 -1.070312 2.953125 -1.390625 2.953125 -1.828125 C 2.953125 -2.273438 2.867188 -2.597656 2.703125 -2.796875 C 2.546875 -2.992188 2.3125 -3.09375 2 -3.09375 C 1.6875 -3.09375 1.445312 -2.992188 1.28125 -2.796875 C 1.113281 -2.597656 1.03125 -2.273438 1.03125 -1.828125 C 1.03125 -1.390625 1.113281 -1.070312 1.28125 -0.875 C 1.445312 -0.675781 1.6875 -0.578125 2 -0.578125 Z M 2 -0.578125 "/></g></g><g transform="translate(16.966663, 5.674717)"><g><path d="M 2.796875 -3.671875 L 2.796875 -3.0625 L 1.203125 -3.0625 L 1.203125 -2.09375 L 2.65625 -2.09375 L 2.65625 -1.484375 L 1.203125 -1.484375 L 1.203125 0 L 0.484375 0 L 0.484375 -3.671875 Z M 2.796875 -3.671875 "/></g></g><g transform="translate(19.936179, 5.674717)"><g><path d="M 2.796875 -3.671875 L 2.796875 -3.0625 L 1.203125 -3.0625 L 1.203125 -2.09375 L 2.65625 -2.09375 L 2.65625 -1.484375 L 1.203125 -1.484375 L 1.203125 0 L 0.484375 0 L 0.484375 -3.671875 Z M 2.796875 -3.671875 "/></g></g></g></g></g></svg>