<svg xmlns="http://www.w3.org/2000/svg" xmlns:xlink="http://www.w3.org/1999/xlink" width="56" zoomAndPan="magnify" viewBox="0 0 42 42" height="56" preserveAspectRatio="xMidYMid meet" version="1.0"><defs><g/><clipPath id="183379f8d5"><path d="M 0.0976562 2 L 6 2 L 6 7 L 0.0976562 7 Z M 0.0976562 2 " clip-rule="nonzero"/></clipPath><clipPath id="73582fd404"><path d="M 6 2 L 21.902344 2 L 21.902344 7 L 6 7 Z M 6 2 " clip-rule="nonzero"/></clipPath><clipPath id="9ec2d766bd"><rect x="0" width="22" y="0" height="8"/></clipPath><clipPath id="8fa0cdc533"><path d="M 10.53125 13.226562 L 31.777344 13.226562 L 31.777344 34.46875 L 10.53125 34.46875 Z M 10.53125 13.226562 " clip-rule="nonzero"/></clipPath></defs><g transform="matrix(1, 0, 0, 1, 10, 5)"><g clip-path="url(#9ec2d766bd)"><g clip-path="url(#183379f8d5)"><g fill="#ffffff" fill-opacity="1"><g transform="translate(0.263514, 6.28962)"><g><path d="M 0.171875 -0.296875 C 0.171875 -0.492188 0.191406 -0.660156 0.234375 -0.796875 C 0.285156 -0.941406 0.359375 -1.070312 0.453125 -1.1875 C 0.554688 -1.300781 0.703125 -1.421875 0.890625 -1.546875 L 1.375 -1.90625 C 1.507812 -2 1.613281 -2.082031 1.6875 -2.15625 C 1.757812 -2.226562 1.816406 -2.300781 1.859375 -2.375 C 1.898438 -2.457031 1.921875 -2.546875 1.921875 -2.640625 C 1.921875 -2.785156 1.875 -2.898438 1.78125 -2.984375 C 1.6875 -3.066406 1.550781 -3.109375 1.375 -3.109375 C 1.195312 -3.109375 1.039062 -3.066406 0.90625 -2.984375 C 0.769531 -2.898438 0.660156 -2.785156 0.578125 -2.640625 L 0.53125 -2.625 L 0.125 -3.078125 C 0.257812 -3.273438 0.429688 -3.429688 0.640625 -3.546875 C 0.847656 -3.660156 1.101562 -3.71875 1.40625 -3.71875 C 1.675781 -3.71875 1.898438 -3.671875 2.078125 -3.578125 C 2.265625 -3.492188 2.40625 -3.375 2.5 -3.21875 C 2.59375 -3.0625 2.640625 -2.878906 2.640625 -2.671875 C 2.640625 -2.503906 2.601562 -2.347656 2.53125 -2.203125 C 2.457031 -2.054688 2.351562 -1.921875 2.21875 -1.796875 C 2.09375 -1.679688 1.929688 -1.550781 1.734375 -1.40625 L 1.296875 -1.109375 C 1.160156 -1.015625 1.066406 -0.929688 1.015625 -0.859375 C 0.960938 -0.785156 0.9375 -0.703125 0.9375 -0.609375 L 2.59375 -0.609375 L 2.59375 0 L 0.171875 0 Z M 0.171875 -0.296875 "/></g></g><g transform="translate(3.130027, 6.28962)"><g><path d="M 1.53125 0.046875 C 1.164062 0.046875 0.875 -0.0234375 0.65625 -0.171875 C 0.4375 -0.328125 0.296875 -0.546875 0.234375 -0.828125 L 0.78125 -1.0625 L 0.84375 -1.0625 C 0.894531 -0.894531 0.972656 -0.769531 1.078125 -0.6875 C 1.191406 -0.601562 1.335938 -0.5625 1.515625 -0.5625 C 1.710938 -0.5625 1.863281 -0.613281 1.96875 -0.71875 C 2.070312 -0.832031 2.125 -1 2.125 -1.21875 C 2.125 -1.425781 2.070312 -1.585938 1.96875 -1.703125 C 1.863281 -1.816406 1.722656 -1.875 1.546875 -1.875 C 1.410156 -1.875 1.296875 -1.84375 1.203125 -1.78125 C 1.109375 -1.71875 1.03125 -1.628906 0.96875 -1.515625 L 0.375 -1.5625 L 0.453125 -3.671875 L 2.625 -3.671875 L 2.625 -3.0625 L 1.0625 -3.0625 L 1.015625 -2.125 L 1.078125 -2.109375 C 1.160156 -2.222656 1.257812 -2.304688 1.375 -2.359375 C 1.5 -2.421875 1.644531 -2.453125 1.8125 -2.453125 C 2.019531 -2.453125 2.203125 -2.40625 2.359375 -2.3125 C 2.515625 -2.21875 2.632812 -2.078125 2.71875 -1.890625 C 2.800781 -1.710938 2.84375 -1.492188 2.84375 -1.234375 C 2.84375 -0.960938 2.789062 -0.726562 2.6875 -0.53125 C 2.59375 -0.34375 2.445312 -0.195312 2.25 -0.09375 C 2.050781 0 1.8125 0.046875 1.53125 0.046875 Z M 1.53125 0.046875 "/></g></g></g></g><g clip-path="url(#73582fd404)"><g fill="#ffffff" fill-opacity="1"><g transform="translate(6.12969, 6.28962)"><g><path d="M 1.046875 -1.671875 C 0.773438 -1.671875 0.5625 -1.753906 0.40625 -1.921875 C 0.257812 -2.097656 0.1875 -2.359375 0.1875 -2.703125 C 0.1875 -3.046875 0.257812 -3.300781 0.40625 -3.46875 C 0.5625 -3.632812 0.773438 -3.71875 1.046875 -3.71875 C 1.316406 -3.71875 1.53125 -3.632812 1.6875 -3.46875 C 1.84375 -3.300781 1.921875 -3.046875 1.921875 -2.703125 C 1.921875 -2.359375 1.84375 -2.097656 1.6875 -1.921875 C 1.53125 -1.753906 1.316406 -1.671875 1.046875 -1.671875 Z M 1.3125 0 L 0.6875 0 L 0.6875 -0.046875 L 3.140625 -3.671875 L 3.75 -3.671875 L 3.765625 -3.609375 Z M 1.046875 -2.15625 C 1.148438 -2.15625 1.226562 -2.191406 1.28125 -2.265625 C 1.332031 -2.347656 1.359375 -2.492188 1.359375 -2.703125 C 1.359375 -2.898438 1.332031 -3.039062 1.28125 -3.125 C 1.226562 -3.207031 1.148438 -3.25 1.046875 -3.25 C 0.984375 -3.25 0.925781 -3.234375 0.875 -3.203125 C 0.832031 -3.171875 0.796875 -3.113281 0.765625 -3.03125 C 0.742188 -2.945312 0.734375 -2.835938 0.734375 -2.703125 C 0.734375 -2.554688 0.742188 -2.441406 0.765625 -2.359375 C 0.796875 -2.285156 0.832031 -2.234375 0.875 -2.203125 C 0.914062 -2.171875 0.972656 -2.15625 1.046875 -2.15625 Z M 3.40625 0.046875 C 3.132812 0.046875 2.921875 -0.0351562 2.765625 -0.203125 C 2.609375 -0.367188 2.53125 -0.625 2.53125 -0.96875 C 2.53125 -1.3125 2.609375 -1.566406 2.765625 -1.734375 C 2.921875 -1.910156 3.132812 -2 3.40625 -2 C 3.675781 -2 3.882812 -1.910156 4.03125 -1.734375 C 4.1875 -1.566406 4.265625 -1.3125 4.265625 -0.96875 C 4.265625 -0.625 4.1875 -0.367188 4.03125 -0.203125 C 3.882812 -0.0351562 3.675781 0.046875 3.40625 0.046875 Z M 3.40625 -0.421875 C 3.46875 -0.421875 3.519531 -0.4375 3.5625 -0.46875 C 3.613281 -0.5 3.648438 -0.554688 3.671875 -0.640625 C 3.691406 -0.722656 3.703125 -0.832031 3.703125 -0.96875 C 3.703125 -1.113281 3.691406 -1.222656 3.671875 -1.296875 C 3.648438 -1.378906 3.613281 -1.4375 3.5625 -1.46875 C 3.519531 -1.5 3.46875 -1.515625 3.40625 -1.515625 C 3.332031 -1.515625 3.273438 -1.5 3.234375 -1.46875 C 3.191406 -1.4375 3.15625 -1.378906 3.125 -1.296875 C 3.101562 -1.222656 3.09375 -1.113281 3.09375 -0.96875 C 3.09375 -0.832031 3.101562 -0.722656 3.125 -0.640625 C 3.15625 -0.554688 3.191406 -0.5 3.234375 -0.46875 C 3.273438 -0.4375 3.332031 -0.421875 3.40625 -0.421875 Z M 3.40625 -0.421875 "/></g></g><g transform="translate(10.581453, 6.28962)"><g/></g><g transform="translate(11.794884, 6.28962)"><g><path d="M 2 0.046875 C 1.664062 0.046875 1.367188 -0.0195312 1.109375 -0.15625 C 0.847656 -0.289062 0.644531 -0.5 0.5 -0.78125 C 0.351562 -1.0625 0.28125 -1.410156 0.28125 -1.828125 C 0.28125 -2.253906 0.351562 -2.609375 0.5 -2.890625 C 0.644531 -3.171875 0.847656 -3.378906 1.109375 -3.515625 C 1.367188 -3.648438 1.664062 -3.71875 2 -3.71875 C 2.332031 -3.71875 2.625 -3.648438 2.875 -3.515625 C 3.132812 -3.378906 3.335938 -3.171875 3.484375 -2.890625 C 3.628906 -2.609375 3.703125 -2.253906 3.703125 -1.828125 C 3.703125 -1.410156 3.628906 -1.0625 3.484375 -0.78125 C 3.335938 -0.5 3.132812 -0.289062 2.875 -0.15625 C 2.625 -0.0195312 2.332031 0.046875 2 0.046875 Z M 2 -0.578125 C 2.3125 -0.578125 2.546875 -0.675781 2.703125 -0.875 C 2.867188 -1.070312 2.953125 -1.390625 2.953125 -1.828125 C 2.953125 -2.273438 2.867188 -2.597656 2.703125 -2.796875 C 2.546875 -2.992188 2.3125 -3.09375 2 -3.09375 C 1.6875 -3.09375 1.445312 -2.992188 1.28125 -2.796875 C 1.113281 -2.597656 1.03125 -2.273438 1.03125 -1.828125 C 1.03125 -1.390625 1.113281 -1.070312 1.28125 -0.875 C 1.445312 -0.675781 1.6875 -0.578125 2 -0.578125 Z M 2 -0.578125 "/></g></g><g transform="translate(15.796948, 6.28962)"><g><path d="M 2.796875 -3.671875 L 2.796875 -3.0625 L 1.203125 -3.0625 L 1.203125 -2.09375 L 2.65625 -2.09375 L 2.65625 -1.484375 L 1.203125 -1.484375 L 1.203125 0 L 0.484375 0 L 0.484375 -3.671875 Z M 2.796875 -3.671875 "/></g></g><g transform="translate(18.766464, 6.28962)"><g><path d="M 2.796875 -3.671875 L 2.796875 -3.0625 L 1.203125 -3.0625 L 1.203125 -2.09375 L 2.65625 -2.09375 L 2.65625 -1.484375 L 1.203125 -1.484375 L 1.203125 0 L 0.484375 0 L 0.484375 -3.671875 Z M 2.796875 -3.671875 "/></g></g></g></g></g></g><g clip-path="url(#8fa0cdc533)"><path fill="#ffffff" d="M 31.359375 25.152344 C 31.445312 24.671875 31.445312 24.148438 31.445312 23.671875 C 31.445312 23.671875 31.445312 23.628906 31.445312 23.628906 L 31.269531 23.585938 L 31.269531 23.148438 L 31.445312 23.191406 C 31.402344 22.625 31.359375 22.105469 31.226562 21.582031 L 31.054688 21.582031 L 30.964844 21.148438 L 31.140625 21.148438 C 31.007812 20.625 30.835938 20.144531 30.660156 19.667969 L 30.488281 19.710938 L 30.3125 19.273438 L 30.488281 19.230469 C 30.269531 18.753906 29.964844 18.273438 29.660156 17.796875 L 29.484375 17.882812 L 29.226562 17.492188 L 29.398438 17.449219 C 29.09375 17.011719 28.746094 16.664062 28.398438 16.273438 L 28.222656 16.359375 L 27.917969 16.054688 L 28.050781 15.96875 C 27.65625 15.621094 27.222656 15.269531 26.742188 14.964844 L 26.613281 15.097656 L 26.222656 14.792969 L 26.351562 14.660156 C 25.917969 14.402344 25.4375 14.183594 24.960938 13.964844 L 24.871094 14.097656 L 24.4375 13.921875 L 24.523438 13.792969 C 24.003906 13.617188 23.480469 13.488281 22.957031 13.355469 L 22.871094 13.53125 L 22.433594 13.441406 L 22.523438 13.269531 C 22 13.269531 21.519531 13.226562 21 13.226562 C 21 13.226562 20.957031 13.226562 20.957031 13.226562 L 20.910156 13.398438 L 20.476562 13.398438 L 20.476562 13.226562 C 19.910156 13.269531 19.386719 13.3125 18.867188 13.441406 L 18.867188 13.617188 L 18.429688 13.703125 L 18.429688 13.53125 C 17.910156 13.660156 17.429688 13.835938 16.949219 14.007812 L 16.996094 14.183594 L 16.558594 14.355469 L 16.515625 14.183594 C 16.035156 14.402344 15.558594 14.707031 15.078125 15.011719 L 15.167969 15.183594 L 14.773438 15.445312 L 14.730469 15.269531 C 14.339844 15.621094 13.949219 15.96875 13.601562 16.316406 L 13.6875 16.488281 L 13.339844 16.792969 L 13.25 16.664062 C 12.902344 17.054688 12.554688 17.492188 12.25 17.96875 L 12.382812 18.101562 L 12.121094 18.449219 L 11.988281 18.316406 C 11.726562 18.753906 11.511719 19.230469 11.292969 19.710938 L 11.421875 19.796875 L 11.25 20.234375 L 11.117188 20.144531 C 10.945312 20.667969 10.8125 21.191406 10.683594 21.710938 L 10.859375 21.800781 L 10.769531 22.234375 L 10.597656 22.148438 C 10.597656 22.671875 10.554688 23.148438 10.554688 23.671875 C 10.554688 23.671875 10.554688 23.714844 10.554688 23.714844 L 10.726562 23.757812 L 10.726562 24.195312 L 10.554688 24.195312 C 10.597656 24.757812 10.640625 25.28125 10.769531 25.804688 L 10.945312 25.804688 L 11.03125 26.238281 L 10.859375 26.238281 C 10.988281 26.761719 11.164062 27.242188 11.335938 27.71875 L 11.511719 27.675781 L 11.683594 28.109375 L 11.511719 28.152344 C 11.726562 28.632812 12.03125 29.113281 12.335938 29.589844 L 12.511719 29.503906 L 12.773438 29.894531 L 12.597656 29.9375 C 12.902344 30.375 13.25 30.722656 13.601562 31.113281 L 13.773438 31.027344 L 14.078125 31.332031 L 13.949219 31.417969 C 14.339844 31.765625 14.773438 32.113281 15.253906 32.417969 L 15.382812 32.289062 L 15.777344 32.550781 L 15.644531 32.679688 C 16.082031 32.941406 16.558594 33.160156 17.039062 33.378906 L 17.125 33.246094 L 17.558594 33.421875 L 17.472656 33.550781 C 17.996094 33.726562 18.519531 33.855469 19.039062 33.988281 L 19.128906 33.8125 L 19.5625 33.898438 L 19.476562 34.074219 C 19.953125 34.160156 20.476562 34.160156 20.957031 34.160156 C 20.957031 34.160156 21 34.160156 21 34.160156 L 21.042969 33.988281 L 21.476562 33.988281 L 21.519531 34.117188 C 22.085938 34.074219 22.609375 34.03125 23.132812 33.898438 L 23.132812 33.726562 L 23.566406 33.636719 L 23.566406 33.8125 C 24.089844 33.683594 24.566406 33.507812 25.046875 33.332031 L 25.003906 33.160156 L 25.4375 32.984375 L 25.480469 33.160156 C 25.960938 32.941406 26.4375 32.636719 26.917969 32.332031 L 26.832031 32.160156 L 27.222656 31.898438 L 27.265625 32.070312 C 27.703125 31.765625 28.050781 31.417969 28.441406 31.070312 L 28.355469 30.894531 L 28.660156 30.589844 L 28.746094 30.722656 C 29.09375 30.332031 29.441406 29.894531 29.746094 29.417969 L 29.617188 29.285156 L 29.878906 28.894531 L 30.007812 29.023438 C 30.269531 28.589844 30.488281 28.109375 30.703125 27.632812 L 30.574219 27.546875 L 30.75 27.109375 L 30.878906 27.195312 C 31.054688 26.675781 31.183594 26.152344 31.3125 25.628906 L 31.140625 25.542969 L 31.226562 25.109375 Z M 21 30.984375 C 16.949219 30.984375 13.6875 27.71875 13.6875 23.671875 C 13.6875 19.625 16.949219 16.359375 21 16.359375 C 25.046875 16.359375 28.3125 19.625 28.3125 23.671875 C 28.3125 27.71875 25.046875 30.984375 21 30.984375 Z M 21 30.984375 " fill-opacity="1" fill-rule="nonzero"/></g><path fill="#ffffff" d="M 25.308594 28.109375 C 26.527344 26.9375 27.222656 25.324219 27.222656 23.671875 C 27.222656 23.324219 27.179688 22.976562 27.136719 22.582031 L 25.917969 22.976562 C 25.960938 23.191406 25.960938 23.410156 25.960938 23.671875 C 25.960938 25.019531 25.4375 26.195312 24.566406 27.109375 Z M 25.308594 28.109375 " fill-opacity="1" fill-rule="nonzero"/><path fill="#ffffff" d="M 20.128906 17.535156 C 18.082031 17.839844 16.339844 19.101562 15.429688 20.972656 L 16.644531 21.363281 C 17.34375 20.058594 18.605469 19.101562 20.128906 18.839844 Z M 20.128906 17.535156 " fill-opacity="1" fill-rule="nonzero"/><path fill="#ffffff" d="M 21.871094 17.535156 L 21.871094 18.796875 C 23.394531 19.058594 24.65625 20.015625 25.351562 21.320312 L 26.570312 20.929688 C 25.65625 19.101562 23.914062 17.839844 21.871094 17.535156 Z M 21.871094 17.535156 " fill-opacity="1" fill-rule="nonzero"/><path fill="#ffffff" d="M 18.824219 28.109375 L 18.082031 29.15625 C 18.996094 29.632812 19.953125 29.894531 21 29.894531 C 22.042969 29.894531 23 29.632812 23.914062 29.15625 L 23.175781 28.109375 C 22.523438 28.414062 21.78125 28.589844 21 28.589844 C 20.214844 28.589844 19.476562 28.414062 18.824219 28.109375 Z M 18.824219 28.109375 " fill-opacity="1" fill-rule="nonzero"/><path fill="#ffffff" d="M 16.125 22.976562 L 14.90625 22.582031 C 14.863281 22.929688 14.820312 23.28125 14.820312 23.671875 C 14.820312 25.367188 15.515625 26.980469 16.734375 28.109375 L 17.472656 27.066406 C 16.601562 26.195312 16.082031 24.976562 16.082031 23.628906 C 16.082031 23.453125 16.082031 23.191406 16.125 22.976562 Z M 16.125 22.976562 " fill-opacity="1" fill-rule="nonzero"/><path fill="#ffffff" d="M 21 16.839844 C 17.210938 16.839844 14.164062 19.882812 14.164062 23.671875 C 14.164062 27.457031 17.210938 30.503906 21 30.503906 C 24.785156 30.503906 27.832031 27.457031 27.832031 23.671875 C 27.832031 19.882812 24.785156 16.839844 21 16.839844 Z M 20.78125 17.1875 C 20.867188 17.1875 20.910156 17.1875 21 17.1875 C 21.085938 17.1875 21.128906 17.1875 21.214844 17.1875 L 21.214844 21.320312 C 21.214844 21.453125 21.128906 21.539062 21 21.539062 C 20.867188 21.539062 20.78125 21.453125 20.78125 21.320312 Z M 22.128906 23.671875 C 22.128906 24.28125 21.652344 24.804688 21 24.804688 C 20.390625 24.804688 19.867188 24.324219 19.867188 23.671875 C 19.867188 23.0625 20.347656 22.539062 21 22.539062 C 21.609375 22.539062 22.128906 23.0625 22.128906 23.671875 Z M 20.433594 17.1875 L 20.433594 20.582031 C 20.433594 21.101562 20.171875 21.582031 19.738281 21.886719 C 19.300781 22.234375 18.691406 22.320312 18.167969 22.148438 L 14.992188 21.101562 C 15.949219 18.96875 17.996094 17.402344 20.433594 17.1875 Z M 14.90625 21.453125 L 18.824219 22.714844 C 18.953125 22.757812 18.996094 22.886719 18.953125 22.976562 C 18.910156 23.105469 18.777344 23.148438 18.691406 23.105469 L 14.773438 21.84375 C 14.773438 21.710938 14.820312 21.582031 14.90625 21.453125 Z M 14.515625 23.671875 C 14.515625 23.148438 14.558594 22.671875 14.6875 22.191406 L 17.953125 23.234375 C 18.429688 23.410156 18.824219 23.800781 18.953125 24.28125 C 18.953125 24.28125 18.953125 24.324219 18.953125 24.324219 C 19.128906 24.804688 19.082031 25.324219 18.777344 25.761719 L 16.734375 28.546875 C 15.382812 27.371094 14.515625 25.628906 14.515625 23.671875 Z M 16.996094 28.808594 L 19.433594 25.457031 C 19.519531 25.367188 19.648438 25.324219 19.738281 25.414062 C 19.824219 25.5 19.867188 25.628906 19.78125 25.71875 L 17.34375 29.066406 C 17.253906 28.980469 17.125 28.894531 16.996094 28.808594 Z M 21 30.15625 C 19.78125 30.15625 18.605469 29.808594 17.648438 29.242188 L 19.648438 26.457031 C 19.953125 26.023438 20.433594 25.804688 21 25.804688 C 21.519531 25.804688 22 26.023438 22.347656 26.457031 L 24.351562 29.242188 C 23.394531 29.851562 22.21875 30.15625 21 30.15625 Z M 24.65625 29.066406 L 22.21875 25.71875 C 22.128906 25.628906 22.175781 25.5 22.261719 25.414062 C 22.347656 25.324219 22.480469 25.367188 22.566406 25.457031 L 25.003906 28.808594 C 24.871094 28.894531 24.742188 28.980469 24.65625 29.066406 Z M 27.484375 23.671875 C 27.484375 25.628906 26.613281 27.371094 25.21875 28.589844 L 23.175781 25.804688 C 22.871094 25.414062 22.828125 24.847656 23 24.367188 C 23 24.367188 23 24.324219 23 24.324219 C 23.132812 23.84375 23.523438 23.453125 24.003906 23.28125 L 27.265625 22.234375 C 27.441406 22.671875 27.484375 23.148438 27.484375 23.671875 Z M 27.265625 21.886719 L 23.347656 23.148438 C 23.21875 23.191406 23.132812 23.105469 23.089844 23.019531 C 23.042969 22.886719 23.132812 22.800781 23.21875 22.757812 L 27.136719 21.496094 C 27.179688 21.582031 27.222656 21.710938 27.265625 21.886719 Z M 23.785156 22.191406 C 23.261719 22.367188 22.695312 22.277344 22.261719 21.929688 C 21.824219 21.625 21.566406 21.101562 21.566406 20.582031 L 21.566406 17.230469 C 24.003906 17.449219 26.046875 19.015625 27.003906 21.191406 Z M 23.785156 22.191406 " fill-opacity="1" fill-rule="nonzero"/></svg>