<svg xmlns="http://www.w3.org/2000/svg" xmlns:xlink="http://www.w3.org/1999/xlink" width="56" zoomAndPan="magnify" viewBox="0 0 42 42" height="56" preserveAspectRatio="xMidYMid meet" version="1.0"><defs><g/><clipPath id="1121aceba1"><path d="M 14 15 L 28 15 L 28 24.878906 L 14 24.878906 Z M 14 15 " clip-rule="nonzero"/></clipPath><clipPath id="2a93e617ca"><path d="M 19 8.761719 L 23 8.761719 L 23 14 L 19 14 Z M 19 8.761719 " clip-rule="nonzero"/></clipPath><clipPath id="83014ed1d0"><path d="M 26 17 L 28.328125 17 L 28.328125 24 L 26 24 Z M 26 17 " clip-rule="nonzero"/></clipPath><clipPath id="d5ed27d16d"><path d="M 13.675781 17 L 16 17 L 16 24 L 13.675781 24 Z M 13.675781 17 " clip-rule="nonzero"/></clipPath><clipPath id="0b87274d34"><path d="M 0.582031 1 L 3 1 L 3 4 L 0.582031 4 Z M 0.582031 1 " clip-rule="nonzero"/></clipPath><clipPath id="3037ff664d"><path d="M 20 2 L 23 2 L 23 4.941406 L 20 4.941406 Z M 20 2 " clip-rule="nonzero"/></clipPath><clipPath id="ed4ac90b1c"><path d="M 29 2 L 30.824219 2 L 30.824219 4 L 29 4 Z M 29 2 " clip-rule="nonzero"/></clipPath><clipPath id="c86b83b7f7"><rect x="0" width="31" y="0" height="5"/></clipPath></defs><path fill="#f6ffff" d="M 21.761719 22.527344 C 21.761719 22.65625 21.699219 22.71875 21.570312 22.71875 C 21.441406 22.71875 21.378906 22.65625 21.378906 22.527344 C 21.378906 22.398438 21.441406 22.332031 21.570312 22.332031 C 21.699219 22.332031 21.761719 22.398438 21.761719 22.527344 Z M 21.761719 22.527344 " fill-opacity="1" fill-rule="nonzero"/><path fill="#f6ffff" d="M 19.976562 22.527344 C 19.976562 22.65625 19.914062 22.71875 19.785156 22.71875 C 19.65625 22.71875 19.589844 22.65625 19.589844 22.527344 C 19.589844 22.398438 19.65625 22.332031 19.785156 22.332031 C 19.914062 22.332031 19.976562 22.398438 19.976562 22.527344 Z M 19.976562 22.527344 " fill-opacity="1" fill-rule="nonzero"/><g clip-path="url(#1121aceba1)"><path fill="#f6ffff" d="M 27.371094 24.253906 C 26.335938 24.253906 25.558594 22.640625 25.558594 20.503906 C 25.558594 18.367188 26.339844 16.75 27.371094 16.75 L 27.433594 16.75 C 25.503906 15.539062 16.410156 15.539062 14.5 16.75 C 14.53125 16.75 14.566406 16.75 14.597656 16.75 C 15.632812 16.75 16.410156 18.367188 16.410156 20.503906 C 16.410156 22.640625 15.628906 24.253906 14.597656 24.253906 C 14.566406 24.253906 14.53125 24.253906 14.5 24.253906 C 15.441406 24.855469 18.207031 25.164062 20.964844 25.164062 C 23.722656 25.164062 26.46875 24.871094 27.433594 24.25 Z M 18.835938 18.226562 C 18.835938 18.144531 18.863281 18.074219 18.921875 18.019531 C 18.980469 17.960938 19.046875 17.933594 19.128906 17.933594 L 19.886719 17.933594 C 19.96875 17.933594 20.035156 17.960938 20.09375 18.019531 C 20.148438 18.074219 20.179688 18.144531 20.179688 18.226562 C 20.179688 18.304688 20.148438 18.375 20.09375 18.433594 C 20.035156 18.488281 19.96875 18.519531 19.886719 18.519531 L 19.128906 18.519531 C 19.046875 18.519531 18.980469 18.488281 18.921875 18.433594 C 18.863281 18.375 18.835938 18.304688 18.835938 18.226562 Z M 21.582031 23.308594 C 21.472656 23.308594 21.367188 23.285156 21.265625 23.238281 C 21.164062 23.195312 21.078125 23.132812 21.003906 23.050781 C 20.929688 22.96875 20.875 22.875 20.839844 22.769531 C 20.808594 22.664062 20.796875 22.554688 20.808594 22.445312 C 20.820312 22.335938 20.851562 22.234375 20.910156 22.140625 C 20.964844 22.042969 21.035156 21.964844 21.125 21.898438 C 21.214844 21.835938 21.3125 21.789062 21.421875 21.769531 C 21.53125 21.746094 21.636719 21.746094 21.746094 21.769531 L 21.746094 20.4375 L 20.542969 20.777344 L 20.542969 22.332031 C 20.570312 22.445312 20.570312 22.558594 20.550781 22.667969 C 20.527344 22.78125 20.480469 22.886719 20.414062 22.976562 C 20.347656 23.070312 20.261719 23.144531 20.160156 23.199219 C 20.0625 23.257812 19.953125 23.289062 19.839844 23.296875 C 19.726562 23.308594 19.613281 23.292969 19.507812 23.25 C 19.398438 23.210938 19.304688 23.152344 19.222656 23.070312 C 19.140625 22.988281 19.082031 22.894531 19.039062 22.785156 C 19 22.679688 18.984375 22.566406 18.996094 22.453125 C 19.003906 22.339844 19.035156 22.230469 19.089844 22.132812 C 19.148438 22.03125 19.222656 21.945312 19.316406 21.878906 C 19.40625 21.8125 19.511719 21.765625 19.621094 21.742188 C 19.734375 21.71875 19.847656 21.722656 19.960938 21.75 L 19.960938 20.5625 C 19.953125 20.40625 20.023438 20.308594 20.171875 20.269531 L 21.949219 19.761719 C 22.046875 19.734375 22.132812 19.75 22.210938 19.8125 C 22.289062 19.875 22.324219 19.953125 22.320312 20.054688 L 22.320312 22.328125 C 22.339844 22.390625 22.351562 22.457031 22.351562 22.527344 C 22.351562 22.738281 22.277344 22.921875 22.125 23.074219 C 21.976562 23.226562 21.796875 23.304688 21.582031 23.308594 Z M 22.816406 18.519531 L 22.726562 18.519531 L 22.726562 18.605469 C 22.726562 18.6875 22.699219 18.753906 22.640625 18.8125 C 22.585938 18.871094 22.515625 18.898438 22.4375 18.898438 C 22.355469 18.898438 22.285156 18.871094 22.230469 18.8125 C 22.171875 18.753906 22.144531 18.6875 22.144531 18.605469 L 22.144531 18.519531 L 22.054688 18.519531 C 21.976562 18.519531 21.90625 18.488281 21.847656 18.433594 C 21.792969 18.375 21.761719 18.304688 21.761719 18.226562 C 21.761719 18.144531 21.792969 18.074219 21.847656 18.019531 C 21.90625 17.960938 21.976562 17.933594 22.054688 17.933594 L 22.144531 17.933594 L 22.144531 17.855469 C 22.144531 17.773438 22.171875 17.703125 22.230469 17.648438 C 22.285156 17.589844 22.355469 17.5625 22.4375 17.5625 C 22.515625 17.5625 22.585938 17.589844 22.640625 17.648438 C 22.699219 17.703125 22.726562 17.773438 22.726562 17.855469 L 22.726562 17.941406 L 22.816406 17.941406 C 22.898438 17.941406 22.964844 17.96875 23.023438 18.027344 C 23.078125 18.085938 23.109375 18.152344 23.109375 18.234375 C 23.109375 18.316406 23.078125 18.382812 23.023438 18.441406 C 22.964844 18.496094 22.898438 18.527344 22.816406 18.527344 Z M 22.816406 18.519531 " fill-opacity="1" fill-rule="nonzero"/></g><g clip-path="url(#2a93e617ca)"><path fill="#f6ffff" d="M 20.96875 13.230469 C 20.886719 13.230469 20.816406 13.203125 20.761719 13.144531 C 20.703125 13.089844 20.675781 13.019531 20.675781 12.9375 L 20.675781 11.714844 L 20.007812 12.378906 C 19.871094 12.5 19.738281 12.492188 19.613281 12.367188 C 19.484375 12.238281 19.480469 12.105469 19.597656 11.96875 L 20.558594 11.007812 L 19.597656 10.050781 C 19.539062 9.992188 19.511719 9.925781 19.511719 9.84375 C 19.511719 9.761719 19.542969 9.695312 19.597656 9.636719 C 19.65625 9.578125 19.726562 9.550781 19.804688 9.550781 C 19.886719 9.550781 19.953125 9.582031 20.011719 9.636719 L 20.675781 10.300781 L 20.675781 9.082031 C 20.675781 8.964844 20.726562 8.878906 20.828125 8.824219 C 20.929688 8.769531 21.03125 8.773438 21.128906 8.835938 L 22.296875 9.597656 C 22.375 9.648438 22.417969 9.71875 22.429688 9.8125 C 22.4375 9.902344 22.410156 9.980469 22.34375 10.046875 L 21.386719 11.007812 L 22.347656 11.96875 C 22.414062 12.035156 22.441406 12.113281 22.433594 12.207031 C 22.421875 12.300781 22.378906 12.371094 22.300781 12.421875 L 21.132812 13.183594 C 21.082031 13.214844 21.027344 13.230469 20.96875 13.230469 Z M 21.261719 11.714844 L 21.261719 12.402344 L 21.679688 12.128906 Z M 21.261719 9.625 L 21.261719 10.304688 L 21.671875 9.894531 Z M 21.261719 9.625 " fill-opacity="1" fill-rule="nonzero"/></g><g clip-path="url(#83014ed1d0)"><path fill="#f6ffff" d="M 27.574219 17.703125 C 27.519531 17.648438 27.449219 17.621094 27.371094 17.621094 C 27.292969 17.621094 27.222656 17.648438 27.167969 17.703125 C 26.910156 17.953125 26.433594 18.851562 26.433594 20.457031 C 26.433594 22.0625 26.914062 22.960938 27.167969 23.207031 C 27.222656 23.261719 27.292969 23.292969 27.371094 23.292969 C 27.449219 23.292969 27.519531 23.261719 27.574219 23.207031 C 27.832031 22.960938 28.308594 22.0625 28.308594 20.457031 C 28.308594 18.851562 27.828125 17.953125 27.574219 17.703125 Z M 27.371094 22.449219 C 27.113281 21.808594 27 21.144531 27.019531 20.457031 C 27 19.769531 27.113281 19.105469 27.371094 18.464844 C 27.625 19.105469 27.742188 19.769531 27.722656 20.457031 C 27.742188 21.144531 27.625 21.808594 27.371094 22.449219 Z M 27.371094 22.449219 " fill-opacity="1" fill-rule="nonzero"/></g><g clip-path="url(#d5ed27d16d)"><path fill="#f6ffff" d="M 14.832031 23.210938 C 15.085938 22.960938 15.5625 22.0625 15.5625 20.460938 C 15.5625 18.855469 15.082031 17.957031 14.832031 17.707031 C 14.773438 17.652344 14.707031 17.625 14.625 17.625 C 14.546875 17.625 14.476562 17.652344 14.421875 17.707031 C 14.167969 17.953125 13.6875 18.847656 13.6875 20.457031 C 13.6875 22.0625 14.167969 22.960938 14.417969 23.207031 C 14.476562 23.261719 14.542969 23.292969 14.625 23.292969 C 14.703125 23.292969 14.769531 23.261719 14.828125 23.207031 Z M 14.273438 20.457031 C 14.25 19.769531 14.367188 19.105469 14.625 18.464844 C 14.878906 19.105469 14.996094 19.769531 14.972656 20.457031 C 14.996094 21.144531 14.878906 21.808594 14.625 22.449219 C 14.367188 21.808594 14.25 21.144531 14.273438 20.457031 Z M 14.273438 20.457031 " fill-opacity="1" fill-rule="nonzero"/></g><g transform="matrix(1, 0, 0, 1, 6, 26)"><g clip-path="url(#c86b83b7f7)"><g clip-path="url(#0b87274d34)"><g fill="#f6ffff" fill-opacity="1"><g transform="translate(0.609, 3.878518)"><g><path d="M 0.21875 0 L 0.21875 -2.203125 L 1.09375 -2.203125 C 1.332031 -2.203125 1.507812 -2.148438 1.625 -2.046875 C 1.75 -1.941406 1.8125 -1.804688 1.8125 -1.640625 C 1.8125 -1.503906 1.769531 -1.394531 1.6875 -1.3125 C 1.613281 -1.226562 1.523438 -1.171875 1.421875 -1.140625 C 1.546875 -1.109375 1.648438 -1.039062 1.734375 -0.9375 C 1.816406 -0.84375 1.859375 -0.734375 1.859375 -0.609375 C 1.859375 -0.429688 1.796875 -0.285156 1.671875 -0.171875 C 1.546875 -0.0546875 1.367188 0 1.140625 0 Z M 0.625 -1.28125 L 1.046875 -1.28125 C 1.160156 -1.28125 1.242188 -1.304688 1.296875 -1.359375 C 1.359375 -1.410156 1.390625 -1.484375 1.390625 -1.578125 C 1.390625 -1.671875 1.359375 -1.742188 1.296875 -1.796875 C 1.242188 -1.859375 1.15625 -1.890625 1.03125 -1.890625 L 0.625 -1.890625 Z M 0.625 -0.328125 L 1.0625 -0.328125 C 1.1875 -0.328125 1.28125 -0.351562 1.34375 -0.40625 C 1.414062 -0.46875 1.453125 -0.546875 1.453125 -0.640625 C 1.453125 -0.742188 1.414062 -0.828125 1.34375 -0.890625 C 1.269531 -0.953125 1.175781 -0.984375 1.0625 -0.984375 L 0.625 -0.984375 Z M 0.625 -0.328125 "/></g></g></g></g><g fill="#f6ffff" fill-opacity="1"><g transform="translate(2.604355, 3.878518)"><g><path d="M 0.203125 0 L 0.203125 -2.265625 L 0.609375 -2.265625 L 0.609375 0 Z M 0.203125 0 "/></g></g></g><g fill="#f6ffff" fill-opacity="1"><g transform="translate(3.423368, 3.878518)"><g><path d="M 0.796875 0.03125 C 0.597656 0.03125 0.445312 -0.0234375 0.34375 -0.140625 C 0.238281 -0.265625 0.1875 -0.445312 0.1875 -0.6875 L 0.1875 -1.5625 L 0.578125 -1.5625 L 0.578125 -0.71875 C 0.578125 -0.582031 0.601562 -0.476562 0.65625 -0.40625 C 0.71875 -0.332031 0.804688 -0.296875 0.921875 -0.296875 C 1.035156 -0.296875 1.128906 -0.335938 1.203125 -0.421875 C 1.273438 -0.503906 1.3125 -0.613281 1.3125 -0.75 L 1.3125 -1.5625 L 1.703125 -1.5625 L 1.703125 0 L 1.359375 0 L 1.328125 -0.265625 C 1.273438 -0.171875 1.203125 -0.0976562 1.109375 -0.046875 C 1.015625 0.00390625 0.910156 0.03125 0.796875 0.03125 Z M 0.796875 0.03125 "/></g></g></g><g fill="#f6ffff" fill-opacity="1"><g transform="translate(5.345992, 3.878518)"><g><path d="M 0.96875 0.03125 C 0.8125 0.03125 0.671875 0 0.546875 -0.0625 C 0.421875 -0.132812 0.320312 -0.226562 0.25 -0.34375 C 0.1875 -0.46875 0.15625 -0.609375 0.15625 -0.765625 C 0.15625 -0.929688 0.1875 -1.078125 0.25 -1.203125 C 0.320312 -1.328125 0.414062 -1.425781 0.53125 -1.5 C 0.65625 -1.570312 0.800781 -1.609375 0.96875 -1.609375 C 1.125 -1.609375 1.257812 -1.570312 1.375 -1.5 C 1.488281 -1.4375 1.578125 -1.34375 1.640625 -1.21875 C 1.710938 -1.101562 1.75 -0.976562 1.75 -0.84375 C 1.75 -0.8125 1.75 -0.78125 1.75 -0.75 C 1.75 -0.726562 1.75 -0.707031 1.75 -0.6875 L 0.5625 -0.6875 C 0.5625 -0.5625 0.597656 -0.460938 0.671875 -0.390625 C 0.753906 -0.328125 0.851562 -0.296875 0.96875 -0.296875 C 1.039062 -0.296875 1.101562 -0.3125 1.15625 -0.34375 C 1.21875 -0.382812 1.265625 -0.4375 1.296875 -0.5 L 1.703125 -0.5 C 1.671875 -0.394531 1.617188 -0.300781 1.546875 -0.21875 C 1.484375 -0.132812 1.398438 -0.0703125 1.296875 -0.03125 C 1.203125 0.0078125 1.09375 0.03125 0.96875 0.03125 Z M 0.96875 -1.28125 C 0.875 -1.28125 0.785156 -1.25 0.703125 -1.1875 C 0.628906 -1.132812 0.582031 -1.050781 0.5625 -0.9375 L 1.34375 -0.9375 C 1.332031 -1.039062 1.289062 -1.125 1.21875 -1.1875 C 1.15625 -1.25 1.070312 -1.28125 0.96875 -1.28125 Z M 0.96875 -1.28125 "/></g></g></g><g fill="#f6ffff" fill-opacity="1"><g transform="translate(7.208534, 3.878518)"><g><path d="M 0.90625 0 C 0.738281 0 0.601562 -0.0351562 0.5 -0.109375 C 0.40625 -0.191406 0.359375 -0.335938 0.359375 -0.546875 L 0.359375 -1.234375 L 0.09375 -1.234375 L 0.09375 -1.5625 L 0.359375 -1.5625 L 0.40625 -1.984375 L 0.765625 -1.984375 L 0.765625 -1.5625 L 1.1875 -1.5625 L 1.1875 -1.234375 L 0.765625 -1.234375 L 0.765625 -0.546875 C 0.765625 -0.460938 0.78125 -0.40625 0.8125 -0.375 C 0.84375 -0.351562 0.898438 -0.34375 0.984375 -0.34375 L 1.171875 -0.34375 L 1.171875 0 Z M 0.90625 0 "/></g></g></g><g fill="#f6ffff" fill-opacity="1"><g transform="translate(8.539824, 3.878518)"><g><path d="M 0.203125 0 L 0.203125 -2.265625 L 0.609375 -2.265625 L 0.609375 -1.328125 C 0.660156 -1.410156 0.726562 -1.476562 0.8125 -1.53125 C 0.90625 -1.582031 1.007812 -1.609375 1.125 -1.609375 C 1.320312 -1.609375 1.472656 -1.546875 1.578125 -1.421875 C 1.679688 -1.296875 1.734375 -1.117188 1.734375 -0.890625 L 1.734375 0 L 1.34375 0 L 1.34375 -0.84375 C 1.34375 -0.976562 1.3125 -1.082031 1.25 -1.15625 C 1.195312 -1.226562 1.113281 -1.265625 1 -1.265625 C 0.882812 -1.265625 0.789062 -1.222656 0.71875 -1.140625 C 0.644531 -1.054688 0.609375 -0.945312 0.609375 -0.8125 L 0.609375 0 Z M 0.203125 0 "/></g></g></g><g fill="#f6ffff" fill-opacity="1"><g transform="translate(10.462449, 3.878518)"><g><path d="M 0.953125 0.03125 C 0.804688 0.03125 0.671875 0 0.546875 -0.0625 C 0.421875 -0.132812 0.320312 -0.234375 0.25 -0.359375 C 0.1875 -0.484375 0.15625 -0.625 0.15625 -0.78125 C 0.15625 -0.945312 0.191406 -1.085938 0.265625 -1.203125 C 0.335938 -1.328125 0.429688 -1.425781 0.546875 -1.5 C 0.671875 -1.570312 0.804688 -1.609375 0.953125 -1.609375 C 1.109375 -1.609375 1.242188 -1.570312 1.359375 -1.5 C 1.484375 -1.425781 1.582031 -1.328125 1.65625 -1.203125 C 1.726562 -1.085938 1.765625 -0.945312 1.765625 -0.78125 C 1.765625 -0.625 1.726562 -0.484375 1.65625 -0.359375 C 1.582031 -0.234375 1.484375 -0.132812 1.359375 -0.0625 C 1.242188 0 1.109375 0.03125 0.953125 0.03125 Z M 0.953125 -0.3125 C 1.054688 -0.3125 1.144531 -0.347656 1.21875 -0.421875 C 1.300781 -0.503906 1.34375 -0.625 1.34375 -0.78125 C 1.34375 -0.9375 1.300781 -1.050781 1.21875 -1.125 C 1.144531 -1.207031 1.054688 -1.25 0.953125 -1.25 C 0.847656 -1.25 0.753906 -1.207031 0.671875 -1.125 C 0.597656 -1.050781 0.5625 -0.9375 0.5625 -0.78125 C 0.5625 -0.625 0.597656 -0.503906 0.671875 -0.421875 C 0.753906 -0.347656 0.847656 -0.3125 0.953125 -0.3125 Z M 0.953125 -0.3125 "/></g></g></g><g fill="#f6ffff" fill-opacity="1"><g transform="translate(12.378748, 3.878518)"><g><path d="M 0.953125 0.03125 C 0.804688 0.03125 0.671875 0 0.546875 -0.0625 C 0.421875 -0.132812 0.320312 -0.234375 0.25 -0.359375 C 0.1875 -0.484375 0.15625 -0.625 0.15625 -0.78125 C 0.15625 -0.945312 0.191406 -1.085938 0.265625 -1.203125 C 0.335938 -1.328125 0.429688 -1.425781 0.546875 -1.5 C 0.671875 -1.570312 0.804688 -1.609375 0.953125 -1.609375 C 1.109375 -1.609375 1.242188 -1.570312 1.359375 -1.5 C 1.484375 -1.425781 1.582031 -1.328125 1.65625 -1.203125 C 1.726562 -1.085938 1.765625 -0.945312 1.765625 -0.78125 C 1.765625 -0.625 1.726562 -0.484375 1.65625 -0.359375 C 1.582031 -0.234375 1.484375 -0.132812 1.359375 -0.0625 C 1.242188 0 1.109375 0.03125 0.953125 0.03125 Z M 0.953125 -0.3125 C 1.054688 -0.3125 1.144531 -0.347656 1.21875 -0.421875 C 1.300781 -0.503906 1.34375 -0.625 1.34375 -0.78125 C 1.34375 -0.9375 1.300781 -1.050781 1.21875 -1.125 C 1.144531 -1.207031 1.054688 -1.25 0.953125 -1.25 C 0.847656 -1.25 0.753906 -1.207031 0.671875 -1.125 C 0.597656 -1.050781 0.5625 -0.9375 0.5625 -0.78125 C 0.5625 -0.625 0.597656 -0.503906 0.671875 -0.421875 C 0.753906 -0.347656 0.847656 -0.3125 0.953125 -0.3125 Z M 0.953125 -0.3125 "/></g></g></g><g fill="#f6ffff" fill-opacity="1"><g transform="translate(14.231803, 3.878518)"><g><path d="M 0.90625 0 C 0.738281 0 0.601562 -0.0351562 0.5 -0.109375 C 0.40625 -0.191406 0.359375 -0.335938 0.359375 -0.546875 L 0.359375 -1.234375 L 0.09375 -1.234375 L 0.09375 -1.5625 L 0.359375 -1.5625 L 0.40625 -1.984375 L 0.765625 -1.984375 L 0.765625 -1.5625 L 1.1875 -1.5625 L 1.1875 -1.234375 L 0.765625 -1.234375 L 0.765625 -0.546875 C 0.765625 -0.460938 0.78125 -0.40625 0.8125 -0.375 C 0.84375 -0.351562 0.898438 -0.34375 0.984375 -0.34375 L 1.171875 -0.34375 L 1.171875 0 Z M 0.90625 0 "/></g></g></g><g fill="#f6ffff" fill-opacity="1"><g transform="translate(15.563094, 3.878518)"><g><path d="M 0.203125 0 L 0.203125 -2.265625 L 0.609375 -2.265625 L 0.609375 -1.328125 C 0.660156 -1.410156 0.726562 -1.476562 0.8125 -1.53125 C 0.90625 -1.582031 1.007812 -1.609375 1.125 -1.609375 C 1.320312 -1.609375 1.472656 -1.546875 1.578125 -1.421875 C 1.679688 -1.296875 1.734375 -1.117188 1.734375 -0.890625 L 1.734375 0 L 1.34375 0 L 1.34375 -0.84375 C 1.34375 -0.976562 1.3125 -1.082031 1.25 -1.15625 C 1.195312 -1.226562 1.113281 -1.265625 1 -1.265625 C 0.882812 -1.265625 0.789062 -1.222656 0.71875 -1.140625 C 0.644531 -1.054688 0.609375 -0.945312 0.609375 -0.8125 L 0.609375 0 Z M 0.203125 0 "/></g></g></g><g fill="#f6ffff" fill-opacity="1"><g transform="translate(17.485719, 3.878518)"><g/></g></g><g fill="#f6ffff" fill-opacity="1"><g transform="translate(18.238325, 3.878518)"><g><path d="M 0.96875 0.03125 C 0.800781 0.03125 0.65625 0.00390625 0.53125 -0.046875 C 0.414062 -0.0976562 0.320312 -0.175781 0.25 -0.28125 C 0.175781 -0.382812 0.140625 -0.515625 0.140625 -0.671875 L 0.5625 -0.671875 C 0.5625 -0.566406 0.597656 -0.476562 0.671875 -0.40625 C 0.742188 -0.332031 0.84375 -0.296875 0.96875 -0.296875 C 1.070312 -0.296875 1.15625 -0.320312 1.21875 -0.375 C 1.28125 -0.425781 1.3125 -0.492188 1.3125 -0.578125 C 1.3125 -0.671875 1.285156 -0.742188 1.234375 -0.796875 C 1.179688 -0.847656 1.109375 -0.890625 1.015625 -0.921875 C 0.921875 -0.953125 0.820312 -0.984375 0.71875 -1.015625 C 0.539062 -1.078125 0.40625 -1.15625 0.3125 -1.25 C 0.226562 -1.34375 0.1875 -1.460938 0.1875 -1.609375 C 0.1875 -1.742188 0.21875 -1.859375 0.28125 -1.953125 C 0.34375 -2.046875 0.429688 -2.117188 0.546875 -2.171875 C 0.660156 -2.222656 0.789062 -2.25 0.9375 -2.25 C 1.082031 -2.25 1.207031 -2.222656 1.3125 -2.171875 C 1.425781 -2.117188 1.515625 -2.046875 1.578125 -1.953125 C 1.648438 -1.859375 1.6875 -1.742188 1.6875 -1.609375 L 1.25 -1.609375 C 1.25 -1.679688 1.21875 -1.75 1.15625 -1.8125 C 1.101562 -1.875 1.023438 -1.90625 0.921875 -1.90625 C 0.835938 -1.90625 0.765625 -1.882812 0.703125 -1.84375 C 0.640625 -1.800781 0.609375 -1.734375 0.609375 -1.640625 C 0.609375 -1.566406 0.628906 -1.507812 0.671875 -1.46875 C 0.722656 -1.425781 0.785156 -1.390625 0.859375 -1.359375 C 0.941406 -1.328125 1.035156 -1.296875 1.140625 -1.265625 C 1.253906 -1.222656 1.351562 -1.175781 1.4375 -1.125 C 1.53125 -1.082031 1.601562 -1.019531 1.65625 -0.9375 C 1.71875 -0.851562 1.75 -0.742188 1.75 -0.609375 C 1.75 -0.492188 1.71875 -0.382812 1.65625 -0.28125 C 1.59375 -0.1875 1.503906 -0.109375 1.390625 -0.046875 C 1.273438 0.00390625 1.132812 0.03125 0.96875 0.03125 Z M 0.96875 0.03125 "/></g></g></g><g clip-path="url(#3037ff664d)"><g fill="#f6ffff" fill-opacity="1"><g transform="translate(20.126165, 3.878518)"><g><path d="M 0.203125 0.6875 L 0.203125 -1.5625 L 0.5625 -1.5625 L 0.609375 -1.34375 C 0.660156 -1.414062 0.726562 -1.476562 0.8125 -1.53125 C 0.894531 -1.582031 1.003906 -1.609375 1.140625 -1.609375 C 1.285156 -1.609375 1.414062 -1.570312 1.53125 -1.5 C 1.644531 -1.425781 1.734375 -1.328125 1.796875 -1.203125 C 1.867188 -1.078125 1.90625 -0.9375 1.90625 -0.78125 C 1.90625 -0.625 1.867188 -0.484375 1.796875 -0.359375 C 1.734375 -0.234375 1.644531 -0.132812 1.53125 -0.0625 C 1.414062 0 1.285156 0.03125 1.140625 0.03125 C 1.015625 0.03125 0.90625 0.0078125 0.8125 -0.03125 C 0.726562 -0.0703125 0.660156 -0.132812 0.609375 -0.21875 L 0.609375 0.6875 Z M 1.046875 -0.3125 C 1.171875 -0.3125 1.273438 -0.351562 1.359375 -0.4375 C 1.453125 -0.53125 1.5 -0.644531 1.5 -0.78125 C 1.5 -0.914062 1.453125 -1.023438 1.359375 -1.109375 C 1.273438 -1.203125 1.171875 -1.25 1.046875 -1.25 C 0.921875 -1.25 0.816406 -1.203125 0.734375 -1.109375 C 0.648438 -1.023438 0.609375 -0.914062 0.609375 -0.78125 C 0.609375 -0.644531 0.648438 -0.53125 0.734375 -0.4375 C 0.816406 -0.351562 0.921875 -0.3125 1.046875 -0.3125 Z M 1.046875 -0.3125 "/></g></g></g></g><g fill="#f6ffff" fill-opacity="1"><g transform="translate(22.187925, 3.878518)"><g><path d="M 0.96875 0.03125 C 0.8125 0.03125 0.671875 0 0.546875 -0.0625 C 0.421875 -0.132812 0.320312 -0.226562 0.25 -0.34375 C 0.1875 -0.46875 0.15625 -0.609375 0.15625 -0.765625 C 0.15625 -0.929688 0.1875 -1.078125 0.25 -1.203125 C 0.320312 -1.328125 0.414062 -1.425781 0.53125 -1.5 C 0.65625 -1.570312 0.800781 -1.609375 0.96875 -1.609375 C 1.125 -1.609375 1.257812 -1.570312 1.375 -1.5 C 1.488281 -1.4375 1.578125 -1.34375 1.640625 -1.21875 C 1.710938 -1.101562 1.75 -0.976562 1.75 -0.84375 C 1.75 -0.8125 1.75 -0.78125 1.75 -0.75 C 1.75 -0.726562 1.75 -0.707031 1.75 -0.6875 L 0.5625 -0.6875 C 0.5625 -0.5625 0.597656 -0.460938 0.671875 -0.390625 C 0.753906 -0.328125 0.851562 -0.296875 0.96875 -0.296875 C 1.039062 -0.296875 1.101562 -0.3125 1.15625 -0.34375 C 1.21875 -0.382812 1.265625 -0.4375 1.296875 -0.5 L 1.703125 -0.5 C 1.671875 -0.394531 1.617188 -0.300781 1.546875 -0.21875 C 1.484375 -0.132812 1.398438 -0.0703125 1.296875 -0.03125 C 1.203125 0.0078125 1.09375 0.03125 0.96875 0.03125 Z M 0.96875 -1.28125 C 0.875 -1.28125 0.785156 -1.25 0.703125 -1.1875 C 0.628906 -1.132812 0.582031 -1.050781 0.5625 -0.9375 L 1.34375 -0.9375 C 1.332031 -1.039062 1.289062 -1.125 1.21875 -1.1875 C 1.15625 -1.25 1.070312 -1.28125 0.96875 -1.28125 Z M 0.96875 -1.28125 "/></g></g></g><g fill="#f6ffff" fill-opacity="1"><g transform="translate(24.078928, 3.878518)"><g><path d="M 0.75 0.03125 C 0.613281 0.03125 0.5 0.0078125 0.40625 -0.03125 C 0.320312 -0.0703125 0.257812 -0.128906 0.21875 -0.203125 C 0.175781 -0.273438 0.15625 -0.351562 0.15625 -0.4375 C 0.15625 -0.582031 0.210938 -0.695312 0.328125 -0.78125 C 0.441406 -0.875 0.613281 -0.921875 0.84375 -0.921875 L 1.234375 -0.921875 L 1.234375 -0.96875 C 1.234375 -1.070312 1.203125 -1.148438 1.140625 -1.203125 C 1.078125 -1.253906 1.003906 -1.28125 0.921875 -1.28125 C 0.835938 -1.28125 0.765625 -1.257812 0.703125 -1.21875 C 0.640625 -1.175781 0.601562 -1.117188 0.59375 -1.046875 L 0.203125 -1.046875 C 0.210938 -1.160156 0.25 -1.257812 0.3125 -1.34375 C 0.375 -1.425781 0.457031 -1.488281 0.5625 -1.53125 C 0.664062 -1.582031 0.785156 -1.609375 0.921875 -1.609375 C 1.140625 -1.609375 1.3125 -1.550781 1.4375 -1.4375 C 1.570312 -1.320312 1.640625 -1.164062 1.640625 -0.96875 L 1.640625 0 L 1.296875 0 L 1.265625 -0.25 C 1.210938 -0.164062 1.144531 -0.0976562 1.0625 -0.046875 C 0.976562 0.00390625 0.875 0.03125 0.75 0.03125 Z M 0.84375 -0.28125 C 0.957031 -0.28125 1.046875 -0.316406 1.109375 -0.390625 C 1.171875 -0.460938 1.210938 -0.554688 1.234375 -0.671875 L 0.890625 -0.671875 C 0.773438 -0.671875 0.691406 -0.648438 0.640625 -0.609375 C 0.597656 -0.578125 0.578125 -0.53125 0.578125 -0.46875 C 0.578125 -0.40625 0.597656 -0.359375 0.640625 -0.328125 C 0.691406 -0.296875 0.757812 -0.28125 0.84375 -0.28125 Z M 0.84375 -0.28125 "/></g></g></g><g fill="#f6ffff" fill-opacity="1"><g transform="translate(25.903524, 3.878518)"><g><path d="M 0.203125 0 L 0.203125 -2.265625 L 0.609375 -2.265625 L 0.609375 -0.9375 L 1.171875 -1.5625 L 1.640625 -1.5625 L 1 -0.859375 L 1.75 0 L 1.25 0 L 0.609375 -0.78125 L 0.609375 0 Z M 0.203125 0 "/></g></g></g><g fill="#f6ffff" fill-opacity="1"><g transform="translate(27.570008, 3.878518)"><g><path d="M 0.96875 0.03125 C 0.8125 0.03125 0.671875 0 0.546875 -0.0625 C 0.421875 -0.132812 0.320312 -0.226562 0.25 -0.34375 C 0.1875 -0.46875 0.15625 -0.609375 0.15625 -0.765625 C 0.15625 -0.929688 0.1875 -1.078125 0.25 -1.203125 C 0.320312 -1.328125 0.414062 -1.425781 0.53125 -1.5 C 0.65625 -1.570312 0.800781 -1.609375 0.96875 -1.609375 C 1.125 -1.609375 1.257812 -1.570312 1.375 -1.5 C 1.488281 -1.4375 1.578125 -1.34375 1.640625 -1.21875 C 1.710938 -1.101562 1.75 -0.976562 1.75 -0.84375 C 1.75 -0.8125 1.75 -0.78125 1.75 -0.75 C 1.75 -0.726562 1.75 -0.707031 1.75 -0.6875 L 0.5625 -0.6875 C 0.5625 -0.5625 0.597656 -0.460938 0.671875 -0.390625 C 0.753906 -0.328125 0.851562 -0.296875 0.96875 -0.296875 C 1.039062 -0.296875 1.101562 -0.3125 1.15625 -0.34375 C 1.21875 -0.382812 1.265625 -0.4375 1.296875 -0.5 L 1.703125 -0.5 C 1.671875 -0.394531 1.617188 -0.300781 1.546875 -0.21875 C 1.484375 -0.132812 1.398438 -0.0703125 1.296875 -0.03125 C 1.203125 0.0078125 1.09375 0.03125 0.96875 0.03125 Z M 0.96875 -1.28125 C 0.875 -1.28125 0.785156 -1.25 0.703125 -1.1875 C 0.628906 -1.132812 0.582031 -1.050781 0.5625 -0.9375 L 1.34375 -0.9375 C 1.332031 -1.039062 1.289062 -1.125 1.21875 -1.1875 C 1.15625 -1.25 1.070312 -1.28125 0.96875 -1.28125 Z M 0.96875 -1.28125 "/></g></g></g><g clip-path="url(#ed4ac90b1c)"><g fill="#f6ffff" fill-opacity="1"><g transform="translate(29.461009, 3.878518)"><g><path d="M 0.203125 0 L 0.203125 -1.5625 L 0.5625 -1.5625 L 0.609375 -1.265625 C 0.660156 -1.367188 0.734375 -1.453125 0.828125 -1.515625 C 0.929688 -1.578125 1.050781 -1.609375 1.1875 -1.609375 L 1.1875 -1.171875 L 1.0625 -1.171875 C 0.976562 -1.171875 0.898438 -1.15625 0.828125 -1.125 C 0.753906 -1.101562 0.695312 -1.054688 0.65625 -0.984375 C 0.625 -0.921875 0.609375 -0.832031 0.609375 -0.71875 L 0.609375 0 Z M 0.203125 0 "/></g></g></g></g></g></g></svg>