<svg xmlns="http://www.w3.org/2000/svg" xmlns:xlink="http://www.w3.org/1999/xlink" width="56" zoomAndPan="magnify" viewBox="0 0 42 42" height="56" preserveAspectRatio="xMidYMid meet" version="1.0"><defs><clipPath id="1ffb14f09e"><path d="M 19 11.125 L 22 11.125 L 22 13 L 19 13 Z M 19 11.125 " clip-rule="nonzero"/></clipPath><clipPath id="b561a18615"><path d="M 14.617188 17 L 17 17 L 17 24 L 14.617188 24 Z M 14.617188 17 " clip-rule="nonzero"/></clipPath><clipPath id="274c145501"><path d="M 17.421875 13 L 23.949219 13 L 23.949219 16 L 17.421875 16 Z M 17.421875 13 " clip-rule="nonzero"/></clipPath><clipPath id="a4b59dd98f"><path d="M 19.867188 12.601562 C 19.867188 12.601562 18.375 13.007812 17.75 13.746094 C 17.75 13.746094 17.671875 15.152344 17.863281 15.363281 C 18.050781 15.574219 18.429688 16.289062 18.410156 16.566406 C 18.390625 16.847656 17.789062 17.605469 17.632812 17.804688 C 17.472656 18.007812 17.144531 28.730469 17.925781 29.226562 C 18.707031 29.726562 23.070312 29.882812 23.605469 29.171875 C 24.140625 28.460938 23.886719 18.066406 23.882812 17.832031 C 23.878906 17.601562 23.117188 16.839844 23.121094 16.660156 C 23.121094 16.476562 23.582031 15.5625 23.6875 15.347656 C 23.789062 15.128906 23.742188 13.691406 23.742188 13.691406 C 23.742188 13.691406 21.855469 12.601562 21.640625 12.5625 C 21.425781 12.519531 19.867188 12.601562 19.867188 12.601562 Z M 19.867188 12.601562 " clip-rule="evenodd"/></clipPath><clipPath id="012fbb3f73"><path d="M 17.421875 17 L 23.949219 17 L 23.949219 19 L 17.421875 19 Z M 17.421875 17 " clip-rule="nonzero"/></clipPath><clipPath id="3abf8a5ea5"><path d="M 19.867188 12.601562 C 19.867188 12.601562 18.375 13.007812 17.75 13.746094 C 17.75 13.746094 17.671875 15.152344 17.863281 15.363281 C 18.050781 15.574219 18.429688 16.289062 18.410156 16.566406 C 18.390625 16.847656 17.789062 17.605469 17.632812 17.804688 C 17.472656 18.007812 17.144531 28.730469 17.925781 29.226562 C 18.707031 29.726562 23.070312 29.882812 23.605469 29.171875 C 24.140625 28.460938 23.886719 18.066406 23.882812 17.832031 C 23.878906 17.601562 23.117188 16.839844 23.121094 16.660156 C 23.121094 16.476562 23.582031 15.5625 23.6875 15.347656 C 23.789062 15.128906 23.742188 13.691406 23.742188 13.691406 C 23.742188 13.691406 21.855469 12.601562 21.640625 12.5625 C 21.425781 12.519531 19.867188 12.601562 19.867188 12.601562 Z M 19.867188 12.601562 " clip-rule="evenodd"/></clipPath></defs><g clip-path="url(#1ffb14f09e)"><path fill="#f6ffff" d="M 19.824219 11.285156 C 20.074219 11.160156 21.566406 11.132812 21.75 11.253906 C 21.929688 11.378906 21.667969 12.550781 21.667969 12.550781 L 19.90625 12.640625 C 19.90625 12.640625 19.574219 11.410156 19.824219 11.285156 Z M 19.824219 11.285156 " fill-opacity="1" fill-rule="evenodd"/></g><path fill="#ffffff" d="M 17.902344 14.476562 C 17.902344 14.476562 17.226562 14.484375 17.203125 14.601562 C 17.179688 14.714844 17.273438 15.332031 17.320312 15.371094 C 17.371094 15.410156 17.90625 15.417969 17.976562 15.316406 C 18.046875 15.214844 17.902344 15.191406 17.902344 15.191406 C 17.902344 15.191406 17.457031 15.257812 17.4375 15.132812 C 17.414062 15.007812 17.355469 14.734375 17.398438 14.714844 C 17.441406 14.695312 17.902344 14.675781 17.902344 14.675781 Z M 17.902344 14.476562 " fill-opacity="1" fill-rule="evenodd"/><path fill="#f6ffff" d="M 16.75 16.257812 C 16.75 16.257812 16.347656 17.539062 16.429688 17.589844 C 16.515625 17.636719 16.519531 17.675781 16.597656 17.625 C 16.675781 17.574219 16.914062 16.476562 16.878906 16.375 C 16.84375 16.273438 16.769531 16.226562 16.75 16.257812 Z M 16.75 16.257812 " fill-opacity="1" fill-rule="evenodd"/><g clip-path="url(#b561a18615)"><path fill="#f6ffff" d="M 16.417969 17.648438 C 16.417969 17.648438 15.21875 18.90625 14.914062 20.800781 C 14.617188 22.671875 15.058594 23.394531 15.726562 23.636719 C 15.726562 23.636719 14.855469 22.296875 15.355469 20.542969 C 15.859375 18.785156 16.402344 17.78125 16.417969 17.648438 Z M 16.417969 17.648438 " fill-opacity="1" fill-rule="evenodd"/></g><path fill="#f6ffff" d="M 16.417969 17.648438 C 16.417969 17.648438 17.394531 18.4375 16.9375 20.492188 C 16.480469 22.550781 16.132812 23.304688 15.726562 23.636719 C 15.675781 23.550781 15.628906 23.464844 15.585938 23.371094 C 15.585938 23.371094 16.453125 21.382812 16.652344 20.46875 C 16.847656 19.550781 16.765625 17.800781 16.417969 17.648438 Z M 16.417969 17.648438 " fill-opacity="1" fill-rule="evenodd"/><path fill="#ffffff" d="M 17.222656 14.9375 C 17.222656 14.9375 16.949219 15.179688 16.765625 15.472656 C 16.578125 15.769531 16.480469 16.117188 16.835938 16.335938 C 17.304688 16.625 17.328125 15.257812 17.222656 14.9375 Z M 17.128906 15.308594 C 17.128906 15.308594 16.933594 15.457031 16.800781 15.636719 C 16.667969 15.816406 16.601562 16.023438 16.867188 16.144531 C 17.21875 16.308594 17.210938 15.496094 17.128906 15.308594 Z M 17.128906 15.308594 " fill-opacity="1" fill-rule="evenodd"/><path fill="#f6ffff" d="M 19.867188 12.601562 C 19.867188 12.601562 18.375 13.007812 17.75 13.746094 C 17.75 13.746094 17.671875 15.152344 17.863281 15.363281 C 18.050781 15.574219 18.429688 16.289062 18.410156 16.566406 C 18.390625 16.847656 17.789062 17.605469 17.632812 17.804688 C 17.472656 18.007812 17.144531 28.730469 17.925781 29.226562 C 18.707031 29.726562 23.070312 29.882812 23.605469 29.171875 C 24.140625 28.460938 23.886719 18.066406 23.882812 17.832031 C 23.878906 17.601562 23.117188 16.839844 23.121094 16.660156 C 23.121094 16.476562 23.582031 15.5625 23.6875 15.347656 C 23.789062 15.128906 23.742188 13.691406 23.742188 13.691406 C 23.742188 13.691406 21.855469 12.601562 21.640625 12.5625 C 21.425781 12.519531 19.867188 12.601562 19.867188 12.601562 Z M 19.867188 12.601562 " fill-opacity="1" fill-rule="evenodd"/><g clip-path="url(#274c145501)"><g clip-path="url(#a4b59dd98f)"><path fill="#f6ffff" d="M 17.71875 13.742188 C 17.59375 13.917969 17.597656 15.1875 17.746094 15.257812 C 17.890625 15.328125 23.960938 15.410156 23.945312 15.253906 C 23.929688 15.097656 24.011719 13.949219 23.945312 13.734375 C 23.878906 13.523438 17.84375 13.566406 17.71875 13.742188 Z M 17.71875 13.742188 " fill-opacity="1" fill-rule="evenodd"/></g></g><g clip-path="url(#012fbb3f73)"><g clip-path="url(#3abf8a5ea5)"><path fill="#f6ffff" d="M 17.527344 17.851562 L 17.425781 18.53125 L 23.972656 18.558594 L 23.972656 17.828125 Z M 17.527344 17.851562 " fill-opacity="1" fill-rule="evenodd"/></g></g><path fill="#ffffff" d="M 18.710938 16.554688 C 18.769531 16.589844 19.09375 16.640625 19.542969 16.679688 C 19.78125 16.699219 20.054688 16.71875 20.339844 16.730469 C 20.46875 16.734375 20.597656 16.738281 20.726562 16.738281 C 20.917969 16.738281 21.113281 16.734375 21.300781 16.730469 C 21.964844 16.71875 22.542969 16.691406 22.742188 16.679688 C 22.789062 16.675781 22.824219 16.636719 22.824219 16.59375 C 22.824219 16.546875 22.785156 16.507812 22.738281 16.511719 C 22.566406 16.507812 22.101562 16.484375 21.542969 16.460938 C 21.289062 16.449219 21.019531 16.433594 20.746094 16.425781 C 20.578125 16.421875 20.410156 16.417969 20.25 16.417969 C 20.074219 16.414062 19.90625 16.414062 19.75 16.417969 C 19.417969 16.417969 19.136719 16.417969 18.960938 16.410156 C 18.875 16.40625 18.816406 16.40625 18.796875 16.398438 C 18.753906 16.375 18.699219 16.390625 18.675781 16.433594 C 18.652344 16.476562 18.667969 16.53125 18.710938 16.554688 Z M 18.710938 16.554688 " fill-opacity="1" fill-rule="evenodd"/></svg>