<svg id="Layer_1" xmlns="http://www.w3.org/2000/svg" version="1.1" viewBox="0 0 248.53 60.55">
  <!-- Generator: Adobe Illustrator 30.0.0, SVG Export Plug-In . SVG Version: 2.1.1 Build 123)  -->
  <defs>
    <style>
      .st0 {
        fill: #d71920;
      }
    </style>
  </defs>
  <g>
    <path d="M126.43,25.73c-.92,0-1.24-.28-1.07-1.03l1.6-6.28h9.46s1.07-4.12,1.07-4.12h-9.46s1.08-4.19,1.08-4.19c.28-1.1,1.06-2.03,2.58-2.03h7.58s1.07-4.13,1.07-4.13h-11.01c-4.56,0-5.94.82-7.71,7.68l-3.27,12.56c-1,4.22.25,6.05,3.69,6.05h9.5c1.87,0,3.07-.99,3.65-2.52l.78-2.01h-9.53"/>
    <path d="M234.63,25.73c-.92,0-1.24-.28-1.07-1.03l1.61-6.28h9.46s1.07-4.12,1.07-4.12h-9.46s1.07-4.19,1.07-4.19c.28-1.1,1.06-2.03,2.58-2.03h7.57s1.07-4.13,1.07-4.13h-11.01c-4.57,0-5.94.82-7.71,7.68l-3.27,12.56c-1,4.22.25,6.05,3.69,6.05h9.5c1.87,0,3.07-.99,3.65-2.52l.78-2.01h-9.54"/>
    <path d="M84.9,3.96h-9.47s-6.6,25.51-6.6,25.51c-.11.44.14.79.57.79h8.43c10.59,0,12.38-2.03,15.28-13.26,2.52-9.76.97-13.04-8.22-13.04M78.83,25.77h-1.94s4.57-17.67,4.57-17.67c.59,0,.81-.03,2.26-.03,4.11,0,4.1,1.36,2.14,8.93-1.98,7.67-3.13,8.77-7.03,8.77Z"/>
    <path d="M217.36,3.91c-5.45,0-7.99.12-9.48.05l-6.6,25.51c-.11.44.14.79.57.79h6.33s5.73-22.17,5.73-22.17c.58,0,1.47-.05,2.37-.05,3.07,0,3.48,1.09,2.67,4.23l-4.45,17.2c-.11.44.14.79.57.79h6.33s4.65-17.99,4.65-17.99c1.61-6.23-1.13-8.36-8.69-8.36"/>
    <path d="M162.56,3.96l-1.09,4.27h7.03c.07,0,.07.09,0,.14-1.12.84-1.81,2.05-2.13,3.31l-4.61,17.79c-.11.44.14.79.57.79h6.79s5.71-22.02,5.71-22.02h3.48c1.95,0,3.14-.82,3.8-2.52l.66-1.75h-20.22"/>
    <path d="M64.06,30.26l6.6-25.51c.11-.44-.14-.79-.57-.79h-6.69s-6.6,25.51-6.6,25.51c-.11.44.14.79.57.79h6.69"/>
    <path d="M193.65,3.6c-7.96,0-11.42,1.42-14.55,13.51-2.71,10.48-.54,13.51,7.56,13.51,8.24,0,11.49-1.69,14.55-13.51,2.21-8.56,1.76-13.51-7.56-13.51M187.8,26.21c-3.04,0-3.49-1.11-1.37-9.3,1.76-6.82,3.45-9.2,6.16-9.2,3.03,0,3.37,1.63,1.41,9.2-1.94,7.5-3.85,9.3-6.2,9.3Z"/>
    <g>
      <path class="st0" d="M4.14,17.31L8.26,2.86C8.66,1.38,10.3.02,11.96.02h12.6c.21,0,.28.28.12.39-6.55,4.48-14.45,11.13-20.18,17.09-.15.15-.42.03-.36-.19"/>
      <path d="M14.09,25.98l4.08-14.26c.06-.22-.17-.37-.35-.22C11.82,16.66,4.59,24.19.06,29.89c-.11.15-.06.37.14.37h17.64c7.44,0,11.51-2.3,12.99-7.81,1.2-4.49-1.15-7.55-4.9-8.34-.07-.01-.13-.14,0-.16,3.17-.54,6.38-1.82,7.52-6.45C34.69,2.48,30.86-.26,26.45.02l-6.74,23.61c-.36,1.28-1.73,2.35-3.03,2.35h-2.59"/>
    </g>
    <path d="M52.43,19.72c-.24-.79-.49-1.36-.87-1.82-.05-.06-.06-.14.03-.17,3.02-.93,5-2.84,5.84-6.08,1.11-4.28-1.59-7.68-8.4-7.68h-10.12s-6.6,25.51-6.6,25.51c-.11.44.14.79.57.79h6.33s5.73-22.17,5.73-22.17c.61,0,1.2-.03,2.65-.03,2.44,0,3.34,1.51,2.81,3.54-.69,2.67-2.77,4.18-5.23,4.18h-.93s2.63,12.73,2.63,12.73c.31,1.24.94,1.75,2.36,1.75h5.65s-2.46-10.54-2.46-10.54"/>
    <path d="M138.53,21.35c-2.68,6.41.81,9.31,7.93,9.31,6.49,0,10.1-1.54,11.64-7.52.53-2.04.19-4.24-1.07-5.61-2.43-2.64-7.1-3.13-8.74-4.66-.84-.78-.83-1.87-.59-2.8.45-1.72,1.6-2.66,3.47-2.66,2.93,0,3.01,1.8,2.29,3.95h6.3c1.48-4.48-.46-7.98-7.88-7.98-6.24,0-9.61,2.45-10.82,7.14-.33,1.29-.21,3.39.56,4.7,1.71,2.94,6.25,3.3,8.77,5.05,1.09.76,1.13,1.78.83,2.91-.57,2.19-1.67,3.23-3.85,3.23-2.11,0-3.37-1.22-2.17-5.06h-6.68"/>
    <path d="M109.56,17.16l-2.36,8.69c-.5.05-1.12.12-2.09.12-4.64,0-4.12-1.4-2.17-8.96,2.04-7.87,3.22-9.3,6.11-9.3s2.81,1.88,2.1,4.25h7.07c1.15-4.43.38-8.36-7.89-8.36-9.21,0-11.71,1.94-14.67,13.41-2.76,10.68-1.86,13.52,8.1,13.52,4.72,0,6.7-.35,9.57-.87l3.33-12.49h-7.1"/>
  </g>
  <g>
    <path d="M21.29,52.6c-.31,1.21-.93,2.15-1.85,2.83-.92.68-2.12,1.01-3.6,1.01-.35,0-.71-.03-1.1-.08-.39-.05-.75-.12-1.07-.21-.32-.08-.59-.19-.8-.31s-.32-.26-.31-.42v-.1s.33-1.31.33-1.31c.05-.21.17-.31.36-.31.1,0,.21.05.33.13.12.09.28.19.49.3.21.11.48.21.81.3.34.09.77.14,1.29.14.85,0,1.49-.19,1.93-.57.44-.38.67-.87.7-1.46,0-.22-.04-.44-.15-.65-.11-.21-.31-.43-.6-.65l-1.92-1.49c-.42-.33-.74-.69-.94-1.07-.21-.38-.3-.83-.28-1.34,0-.14.02-.28.05-.42.03-.14.05-.29.09-.44.31-1.18.93-2.07,1.85-2.66.92-.59,2.07-.88,3.43-.88.32,0,.65.03,1,.08.34.05.66.12.95.22.29.09.53.2.72.32.19.12.28.25.27.38v.06s-.35,1.4-.35,1.4c-.03.08-.07.15-.11.2-.05.06-.12.09-.23.09-.12,0-.24-.04-.36-.14-.12-.09-.28-.19-.47-.31-.19-.12-.43-.22-.74-.31-.3-.09-.69-.14-1.17-.14-.51,0-.92.07-1.23.22-.31.15-.54.32-.71.51-.16.19-.27.39-.33.6-.05.21-.08.37-.09.48-.01.25.06.48.2.7.14.22.41.46.8.73l1.47,1.04c.56.4.95.78,1.18,1.15.23.37.33.81.31,1.32-.01.32-.07.66-.16,1.02Z"/>
    <path d="M32.89,51.28c-.19.75-.47,1.44-.83,2.07-.37.63-.82,1.18-1.34,1.64-.53.46-1.13.83-1.82,1.08-.69.26-1.45.39-2.3.39-1.36,0-2.36-.33-3-.98-.64-.65-.93-1.54-.88-2.68.02-.45.1-.94.24-1.47.19-.75.47-1.44.83-2.07.37-.63.82-1.18,1.34-1.63.53-.46,1.13-.82,1.82-1.07.69-.26,1.45-.39,2.3-.39,1.36,0,2.36.32,3,.97.64.65.93,1.54.88,2.67-.02.46-.1.95-.24,1.47ZM30.39,51.24c.14-.54.22-1.02.24-1.43.03-.7-.11-1.2-.42-1.5-.31-.3-.79-.45-1.41-.45-.81,0-1.49.27-2.04.81-.55.54-.99,1.44-1.31,2.71-.14.57-.22,1.04-.24,1.43-.03.7.11,1.2.41,1.51.31.31.78.46,1.42.46.8,0,1.47-.27,2.03-.81.56-.54,1-1.45,1.32-2.73Z"/>
    <path d="M35.79,55.94c-.05.23-.18.35-.4.35h-1.71c-.19,0-.29-.09-.28-.27v-.08s3.4-13.23,3.4-13.23c.05-.23.2-.35.44-.35h1.71c.18,0,.27.08.26.25v.06s-3.42,13.27-3.42,13.27Z"/>
    <path d="M46.82,55.94c-.05.23-.19.35-.42.35h-1.66c-.15,0-.23-.06-.22-.19v-.1c0-.06-.04-.1-.15-.1-.15,0-.32.03-.49.09-.17.06-.36.12-.59.18s-.47.13-.76.18c-.29.06-.63.09-1.02.09s-.79-.04-1.14-.12c-.35-.08-.65-.2-.91-.38-.26-.17-.45-.4-.59-.68-.14-.28-.19-.61-.18-1,.01-.26.05-.55.12-.88.07-.33.15-.7.26-1.11l1.44-5.61c.05-.23.19-.35.42-.35h1.75c.17,0,.25.08.24.23v.06s-1.54,6-1.54,6c-.08.32-.12.59-.13.79-.02.44.09.76.34.97.25.21.67.31,1.28.31.5,0,.96-.09,1.38-.27.42-.18.68-.48.79-.91l1.75-6.83c.05-.23.18-.35.4-.35h1.75c.18,0,.27.08.26.25v.06s-2.4,9.3-2.4,9.3Z"/>
    <path d="M54.97,55.73c-.03.14-.14.26-.31.35-.18.09-.39.16-.63.21-.24.05-.49.09-.76.12-.26.03-.49.04-.68.04-.35,0-.68-.02-1-.07-.32-.05-.6-.14-.84-.28-.24-.14-.43-.35-.57-.64-.14-.28-.19-.66-.17-1.12.02-.36.09-.8.23-1.33l1.23-4.82v-.04c0-.09-.04-.13-.15-.13h-.92c-.21,0-.3-.09-.3-.25,0-.03,0-.05.01-.06,0-.01.01-.03.01-.06l.24-.96c.06-.23.21-.35.46-.35h.92c.13,0,.22-.08.26-.23l.49-1.95c.06-.25.21-.37.44-.37h1.68c.21,0,.3.08.3.23v.1s-.52,1.99-.52,1.99v.08c0,.1.04.15.14.15h2.48c.19,0,.29.07.28.21v.08s-.26,1.02-.26,1.02c-.06.25-.21.37-.44.37h-2.48c-.14,0-.23.08-.28.23l-1.28,5c-.02.08-.03.15-.04.23-.01.08-.02.15-.02.23-.01.28.05.52.18.7.13.19.4.28.82.28.24,0,.45-.02.61-.06.16-.04.3-.08.42-.14s.22-.1.3-.14c.08-.04.16-.06.22-.06.15,0,.23.07.22.21v.08s-.3,1.14-.3,1.14Z"/>
    <path d="M58.91,55.94c-.05.23-.18.35-.4.35h-1.71c-.19,0-.29-.09-.28-.27v-.08s2.38-9.26,2.38-9.26c.05-.23.19-.35.44-.35h1.71c.18,0,.27.08.26.25v.06s-2.4,9.3-2.4,9.3ZM62.27,43.58c-.22.8-.78,1.2-1.69,1.2-.78,0-1.16-.3-1.13-.91.02-.49.2-.86.54-1.12.34-.26.75-.39,1.24-.39.76,0,1.12.29,1.1.87,0,.06,0,.12-.02.17,0,.05-.02.11-.04.17Z"/>
    <path d="M71.73,51.28c-.19.75-.47,1.44-.83,2.07-.37.63-.82,1.18-1.34,1.64-.53.46-1.13.83-1.82,1.08-.69.26-1.45.39-2.3.39-1.36,0-2.36-.33-3-.98-.64-.65-.93-1.54-.88-2.68.02-.45.1-.94.24-1.47.19-.75.47-1.44.83-2.07.37-.63.82-1.18,1.34-1.63.53-.46,1.13-.82,1.82-1.07.69-.26,1.45-.39,2.3-.39,1.36,0,2.36.32,3,.97.64.65.93,1.54.88,2.67-.02.46-.1.95-.24,1.47ZM69.23,51.24c.14-.54.22-1.02.24-1.43.03-.7-.11-1.2-.42-1.5-.31-.3-.79-.45-1.41-.45-.81,0-1.49.27-2.04.81-.55.54-.99,1.44-1.31,2.71-.14.57-.22,1.04-.24,1.43-.03.7.11,1.2.41,1.51.31.31.78.46,1.42.46.8,0,1.47-.27,2.03-.81.56-.54,1-1.45,1.32-2.73Z"/>
    <path d="M80.92,55.94c-.05.23-.19.35-.42.35h-1.71c-.18,0-.27-.08-.26-.25v-.1s1.47-5.74,1.47-5.74c.09-.32.14-.64.16-.95.02-.48-.11-.81-.38-1.02-.27-.2-.65-.3-1.14-.3-.23,0-.47.02-.71.06-.24.04-.46.1-.66.19-.2.09-.38.21-.54.36-.15.15-.26.33-.32.53l-1.77,6.87c-.05.23-.18.35-.4.35h-1.71c-.19,0-.29-.08-.28-.25v-.1s2.38-9.26,2.38-9.26c.06-.23.21-.35.44-.35h1.66c.15,0,.23.06.22.17,0,.03,0,.05-.01.06,0,.01-.01.03-.01.06,0,.06.06.1.19.1.15,0,.32-.03.49-.09.17-.06.37-.12.6-.18.23-.06.48-.12.76-.18.28-.06.6-.09.98-.09.9,0,1.6.18,2.09.54s.73.93.69,1.7c-.02.45-.11.98-.26,1.59l-1.53,5.94Z"/>
    <path d="M90,52.65c-.03.57-.16,1.09-.4,1.56-.24.47-.56.87-.95,1.2-.39.33-.85.58-1.38.76-.53.18-1.1.27-1.72.27-.81,0-1.48-.08-2.02-.23-.54-.15-.8-.37-.79-.64v-.08s.28-1.1.28-1.1c.05-.22.18-.33.38-.33.08,0,.17.04.27.11.1.07.24.15.41.24.18.09.4.17.67.24.27.07.62.11,1.05.11.58,0,1.01-.12,1.3-.35.29-.23.44-.53.45-.91,0-.17-.04-.32-.14-.45-.1-.14-.28-.29-.53-.47l-1.29-.93c-.39-.28-.67-.58-.86-.88-.19-.3-.27-.65-.25-1.05.02-.54.15-1.03.38-1.46.23-.43.54-.8.93-1.11.39-.31.84-.55,1.37-.72.53-.17,1.09-.25,1.7-.25.33,0,.65.02.95.06s.56.1.79.17c.23.08.41.17.54.27.13.1.19.21.19.33v.08s-.3,1.14-.3,1.14c-.03.09-.06.16-.11.22-.04.06-.13.09-.25.09-.09,0-.18-.04-.28-.11s-.22-.15-.37-.23c-.15-.08-.34-.16-.56-.23-.22-.07-.51-.11-.85-.11-.55,0-.97.1-1.25.29-.28.19-.43.45-.45.77,0,.17.03.32.12.44.09.13.24.26.43.41l1.44,1.02c.4.3.69.6.87.9.18.3.26.62.25.96Z"/>
    <path d="M103.39,47.64c-.06.24-.22.37-.46.37h-1.5c-.14,0-.23.08-.28.23l-1.98,7.7c-.05.23-.18.35-.4.35h-1.75c-.17,0-.25-.08-.24-.25v-.1s1.98-7.7,1.98-7.7c0-.03,0-.04.01-.05,0,0,.01-.02.01-.03,0-.1-.06-.15-.19-.15h-.92c-.18,0-.27-.08-.26-.23v-.06s.26-1.04.26-1.04c.06-.23.21-.35.44-.35h.92c.14,0,.23-.08.28-.23l.26-1.01c.23-.91.65-1.61,1.25-2.1.6-.48,1.36-.73,2.28-.73.57,0,.97.05,1.22.15.25.1.36.24.36.41v.06s-.28,1.01-.28,1.01c-.06.21-.17.31-.34.31-.12,0-.22-.04-.31-.11-.09-.07-.26-.11-.51-.11-.68,0-1.12.41-1.33,1.22l-.21.89v.1c0,.09.05.14.16.14h1.5c.19,0,.29.07.28.21v.06s-.26,1.05-.26,1.05Z"/>
    <path d="M112.98,51.28c-.19.75-.47,1.44-.83,2.07-.37.63-.82,1.18-1.34,1.64-.53.46-1.13.83-1.82,1.08-.69.26-1.45.39-2.3.39-1.36,0-2.36-.33-3-.98-.64-.65-.93-1.54-.88-2.68.02-.45.1-.94.24-1.47.19-.75.47-1.44.83-2.07.37-.63.82-1.18,1.34-1.63.53-.46,1.13-.82,1.82-1.07.69-.26,1.45-.39,2.3-.39,1.36,0,2.36.32,3,.97.64.65.93,1.54.88,2.67-.02.46-.1.95-.24,1.47ZM110.48,51.24c.14-.54.22-1.02.24-1.43.03-.7-.11-1.2-.42-1.5-.31-.3-.79-.45-1.41-.45-.81,0-1.49.27-2.04.81-.55.54-.99,1.44-1.31,2.71-.14.57-.22,1.04-.24,1.43-.03.7.11,1.2.41,1.51.31.31.78.46,1.42.46.8,0,1.47-.27,2.03-.81.56-.54,1-1.45,1.32-2.73Z"/>
    <path d="M121.4,48.05c-.05.19-.16.29-.34.29-.08,0-.14,0-.2-.02-.06-.01-.13-.03-.23-.05-.1-.02-.22-.04-.37-.06-.15-.02-.36-.03-.62-.03-.54,0-1,.12-1.37.35-.38.23-.63.61-.77,1.14l-1.61,6.27c-.05.23-.18.35-.38.35h-1.75c-.18,0-.27-.09-.26-.27v-.08s2.38-9.26,2.38-9.26c.06-.23.2-.35.42-.35h1.68c.14,0,.21.05.2.15,0,.03,0,.07-.02.12-.02.05-.02.12-.03.19,0,.09.05.13.15.13.14,0,.3-.04.47-.12.17-.08.36-.16.58-.26.22-.1.46-.18.73-.26s.58-.12.91-.12.53.04.64.12c.11.08.16.17.15.29v.1s-.35,1.37-.35,1.37Z"/>
    <path d="M135.56,46.5c0,.08-.07.22-.19.43l-6.93,11.28c-.49.8-.99,1.39-1.5,1.77-.52.38-1.15.57-1.89.57-.67,0-1-.1-.99-.31v-.06s.28-1.1.28-1.1c.05-.18.15-.27.32-.27.06,0,.13,0,.2,0,.07,0,.18,0,.32,0,.26,0,.49-.06.69-.17.2-.12.4-.33.6-.64l.44-.7c.11-.15.18-.27.21-.35.03-.08.04-.15.05-.21,0-.04,0-.09,0-.17s-.01-.14-.02-.2l-1.04-9.54v-.1c0-.13.04-.23.1-.31.06-.08.17-.12.32-.12h1.85c.1,0,.17.02.21.06.04.04.06.1.07.17l.48,6.89c0,.17.04.25.1.25.08,0,.16-.08.26-.25l3.91-6.89c.1-.15.25-.23.45-.23h1.44c.18,0,.27.06.26.17Z"/>
    <path d="M164.43,48.05c-.05.19-.16.29-.34.29-.08,0-.14,0-.2-.02-.06-.01-.13-.03-.23-.05-.1-.02-.22-.04-.37-.06-.15-.02-.36-.03-.62-.03-.54,0-1,.12-1.37.35-.38.23-.63.61-.77,1.14l-1.61,6.27c-.05.23-.18.35-.38.35h-1.75c-.18,0-.27-.09-.26-.27v-.08s2.38-9.26,2.38-9.26c.06-.23.2-.35.42-.35h1.68c.14,0,.21.05.2.15,0,.03,0,.07-.02.12-.02.05-.02.12-.03.19,0,.09.05.13.15.13.14,0,.3-.04.47-.12.17-.08.36-.16.58-.26.22-.1.46-.18.73-.26.27-.08.58-.12.91-.12s.53.04.64.12c.11.08.16.17.15.29v.1s-.35,1.37-.35,1.37Z"/>
    <path d="M203.17,48.05c-.05.19-.16.29-.34.29-.08,0-.14,0-.2-.02-.06-.01-.13-.03-.23-.05-.1-.02-.22-.04-.37-.06-.15-.02-.36-.03-.62-.03-.54,0-1,.12-1.37.35-.38.23-.63.61-.77,1.14l-1.61,6.27c-.05.23-.18.35-.38.35h-1.75c-.18,0-.27-.09-.26-.27v-.08s2.38-9.26,2.38-9.26c.06-.23.2-.35.42-.35h1.68c.14,0,.21.05.2.15,0,.03,0,.07-.02.12-.02.05-.02.12-.03.19,0,.09.05.13.15.13.14,0,.3-.04.47-.12.17-.08.36-.16.58-.26.22-.1.46-.18.73-.26s.58-.12.91-.12.53.04.64.12c.11.08.16.17.15.29v.1s-.35,1.37-.35,1.37Z"/>
    <path d="M170.48,57.55c-.26,1.05-.73,1.81-1.39,2.28-.66.48-1.48.72-2.46.72-.67,0-1-.11-.99-.33v-.06s.28-1.06.28-1.06c.03-.12.08-.19.14-.23.06-.04.12-.06.19-.06.08,0,.14,0,.18,0,.05,0,.11,0,.18,0,.44,0,.77-.12,1-.35.23-.23.41-.61.53-1.12l2.73-10.68c.05-.23.19-.35.42-.35h1.71c.19,0,.29.08.28.25v.06s-2.8,10.91-2.8,10.91ZM174.24,43.58c-.22.8-.78,1.2-1.69,1.2-.78,0-1.16-.3-1.13-.91.02-.49.2-.86.54-1.12.34-.26.75-.39,1.24-.39.76,0,1.12.29,1.1.87,0,.06,0,.12-.02.17,0,.05-.02.11-.04.17Z"/>
    <path d="M211.48,55.94c-.05.23-.19.35-.42.35h-1.71c-.18,0-.27-.08-.26-.25v-.1s1.47-5.74,1.47-5.74c.09-.32.14-.64.16-.95.02-.48-.11-.81-.38-1.02s-.65-.3-1.14-.3c-.23,0-.47.02-.71.06-.24.04-.46.1-.66.19s-.38.21-.54.36c-.15.15-.26.33-.32.53l-1.77,6.87c-.05.23-.18.35-.4.35h-1.71c-.19,0-.29-.08-.28-.25v-.1s2.38-9.26,2.38-9.26c.06-.23.21-.35.44-.35h1.66c.15,0,.23.06.22.17,0,.03,0,.05-.01.06,0,.01-.01.03-.01.06,0,.06.06.1.19.1.15,0,.32-.03.49-.09.17-.06.37-.12.6-.18.23-.06.48-.12.76-.18.28-.06.6-.09.98-.09.9,0,1.6.18,2.09.54.5.36.73.93.69,1.7-.02.45-.11.98-.26,1.59l-1.53,5.94Z"/>
    <path d="M223.63,51.36c-.07.23-.22.35-.44.35h-6.1c-.17,0-.28.08-.35.25-.06.17-.11.43-.12.79-.03.63.16,1.13.56,1.49.4.36,1.03.54,1.89.54.44,0,.83-.04,1.18-.12.35-.08.65-.16.91-.24.25-.08.46-.16.62-.24.16-.08.27-.12.33-.12.17,0,.25.07.24.19v.04s-.3,1.08-.3,1.08c-.05.19-.18.36-.41.49-.22.13-.5.25-.83.34-.33.09-.71.15-1.13.19-.42.04-.86.06-1.32.06-1.49,0-2.58-.31-3.27-.92-.69-.61-1.01-1.49-.96-2.64.02-.46.1-.96.24-1.49.23-.88.55-1.64.95-2.3.4-.66.87-1.2,1.4-1.64.53-.43,1.12-.76,1.76-.98.64-.22,1.3-.33,2-.33,1.27,0,2.19.29,2.74.88.56.59.82,1.37.77,2.35,0,.22-.05.52-.13.91-.07.39-.15.74-.23,1.04ZM221.28,50.14c.14,0,.24-.06.29-.19.05-.13.08-.34.09-.62.02-.49-.11-.87-.39-1.15-.28-.28-.73-.42-1.35-.42-.41,0-.78.08-1.12.25-.33.17-.62.37-.84.6-.23.23-.41.48-.53.74-.13.26-.19.48-.2.68,0,.08.06.12.19.12h3.87Z"/>
    <path d="M234.97,46.5c0,.08-.07.22-.19.43l-6.93,11.28c-.49.8-.99,1.39-1.5,1.77-.52.38-1.15.57-1.89.57-.67,0-1-.1-.99-.31v-.06s.28-1.1.28-1.1c.05-.18.15-.27.32-.27.06,0,.13,0,.2,0,.07,0,.18,0,.32,0,.26,0,.49-.06.69-.17.2-.12.4-.33.6-.64l.44-.7c.11-.15.18-.27.21-.35.03-.08.04-.15.05-.21,0-.04,0-.09,0-.17s-.01-.14-.02-.2l-1.04-9.54v-.1c0-.13.04-.23.1-.31.06-.08.17-.12.32-.12h1.85c.1,0,.17.02.21.06.04.04.06.1.07.17l.48,6.89c0,.17.04.25.1.25.08,0,.16-.08.26-.25l3.91-6.89c.1-.15.25-.23.45-.23h1.44c.18,0,.27.06.26.17Z"/>
    <path d="M192.91,55.94c-.05.23-.19.35-.42.35h-1.66c-.15,0-.23-.06-.22-.19v-.1c0-.06-.04-.1-.15-.1-.15,0-.32.03-.49.09-.17.06-.36.12-.59.18s-.47.13-.76.18c-.29.06-.63.09-1.02.09s-.79-.04-1.14-.12c-.35-.08-.65-.2-.91-.38-.26-.17-.45-.4-.59-.68-.14-.28-.19-.61-.18-1,.01-.26.05-.55.12-.88.07-.33.15-.7.26-1.11l1.44-5.61c.05-.23.19-.35.42-.35h1.75c.17,0,.25.08.24.23v.06s-1.54,6-1.54,6c-.08.32-.12.59-.13.79-.02.44.09.76.34.97.25.21.67.31,1.28.31.5,0,.96-.09,1.38-.27s.68-.48.79-.91l1.75-6.83c.05-.23.18-.35.4-.35h1.75c.18,0,.27.08.26.25v.06s-2.4,9.3-2.4,9.3Z"/>
    <path d="M183.73,51.28c-.19.75-.47,1.44-.83,2.07-.37.63-.82,1.18-1.34,1.64-.53.46-1.13.83-1.82,1.08-.69.26-1.45.39-2.3.39-1.36,0-2.36-.33-3-.98-.64-.65-.93-1.54-.88-2.68.02-.45.1-.94.24-1.47.19-.75.47-1.44.83-2.07.37-.63.82-1.18,1.34-1.63.53-.46,1.13-.82,1.82-1.07.69-.26,1.45-.39,2.3-.39,1.36,0,2.36.32,3,.97.64.65.93,1.54.88,2.67-.02.46-.1.95-.24,1.47ZM181.23,51.24c.14-.54.22-1.02.24-1.43.03-.7-.11-1.2-.42-1.5-.31-.3-.79-.45-1.41-.45-.81,0-1.49.27-2.04.81-.55.54-.99,1.44-1.31,2.71-.14.57-.22,1.04-.24,1.43-.03.7.11,1.2.41,1.51.31.31.78.46,1.42.46.8,0,1.47-.27,2.03-.81.56-.54,1-1.45,1.32-2.73Z"/>
    <path d="M154.18,55.94c-.05.23-.19.35-.42.35h-1.66c-.15,0-.23-.06-.22-.19v-.1c0-.06-.04-.1-.15-.1-.15,0-.32.03-.49.09-.17.06-.36.12-.59.18s-.47.13-.76.18c-.29.06-.63.09-1.02.09s-.79-.04-1.14-.12c-.35-.08-.65-.2-.91-.38-.26-.17-.45-.4-.59-.68-.14-.28-.19-.61-.18-1,.01-.26.05-.55.12-.88.07-.33.15-.7.26-1.11l1.44-5.61c.05-.23.19-.35.42-.35h1.75c.17,0,.25.08.24.23v.06s-1.54,6-1.54,6c-.08.32-.12.59-.13.79-.02.44.09.76.34.97.25.21.67.31,1.28.31.5,0,.96-.09,1.38-.27.42-.18.68-.48.79-.91l1.75-6.83c.05-.23.18-.35.4-.35h1.75c.18,0,.27.08.26.25v.06s-2.4,9.3-2.4,9.3Z"/>
    <path d="M144.99,51.28c-.19.75-.47,1.44-.83,2.07-.37.63-.82,1.18-1.34,1.64-.53.46-1.13.83-1.82,1.08-.69.26-1.45.39-2.3.39-1.36,0-2.36-.33-3-.98-.64-.65-.93-1.54-.88-2.68.02-.45.1-.94.24-1.47.19-.75.47-1.44.83-2.07.37-.63.82-1.18,1.34-1.63.53-.46,1.13-.82,1.82-1.07.69-.26,1.45-.39,2.3-.39,1.36,0,2.36.32,3,.97.64.65.93,1.54.88,2.67-.02.46-.1.95-.24,1.47ZM142.49,51.24c.14-.54.22-1.02.24-1.43.03-.7-.11-1.2-.42-1.5-.31-.3-.79-.45-1.41-.45-.81,0-1.49.27-2.04.81-.55.54-.99,1.44-1.31,2.71-.14.57-.22,1.04-.24,1.43-.03.7.11,1.2.41,1.51.31.31.78.46,1.42.46.8,0,1.47-.27,2.03-.81.56-.54,1-1.45,1.32-2.73Z"/>
  </g>
</svg>