<?xml version="1.0" encoding="UTF-8"?>
<svg id="Layer_1" xmlns="http://www.w3.org/2000/svg" version="1.1" viewBox="0 0 100 100">
  <!-- Generator: Adobe Illustrator 30.0.0, SVG Export Plug-In . SVG Version: 2.1.1 Build 123)  -->
  <defs>
    <style>
      .st0 {
        fill: #1d1d1b;
      }

      .st1 {
        fill: #e1251b;
      }
    </style>
  </defs>
  <path class="st1" d="M14.17,56.14L25.79,15.4c1.12-4.18,5.76-8.01,10.44-8.01h35.52c.6,0,.78.78.33,1.1-18.47,12.64-40.75,31.39-56.9,48.19-.42.44-1.17.08-1.01-.53"/>
  <path class="st0" d="M42.24,80.6l11.5-40.21c.17-.61-.48-1.05-.98-.63C35.84,54.31,15.43,75.56,2.66,91.64c-.32.41-.16,1.03.4,1.03h49.76c20.98,0,32.46-6.5,36.63-22.03,3.39-12.65-3.24-21.28-13.82-23.51-.19-.04-.36-.4,0-.46,8.95-1.53,17.99-5.13,21.2-18.19,3.49-14.14-7.32-21.88-19.75-21.08l-19.02,66.58c-1.03,3.6-4.88,6.63-8.53,6.63h-7.3Z"/>
</svg>