<svg xmlns="http://www.w3.org/2000/svg" xmlns:xlink="http://www.w3.org/1999/xlink" width="56" zoomAndPan="magnify" viewBox="0 0 42 42" height="56" preserveAspectRatio="xMidYMid meet" version="1.0"><defs><clipPath id="4cbdeed8b9"><path d="M 27 10.128906 L 28 10.128906 L 28 13 L 27 13 Z M 27 10.128906 " clip-rule="nonzero"/></clipPath><clipPath id="8ddc7f1117"><path d="M 11.382812 15 L 28.960938 15 L 28.960938 28 L 11.382812 28 Z M 11.382812 15 " clip-rule="nonzero"/></clipPath><clipPath id="cc64c572f5"><path d="M 11.382812 24 L 25 24 L 25 28.441406 L 11.382812 28.441406 Z M 11.382812 24 " clip-rule="nonzero"/></clipPath><clipPath id="b2a0c64aa8"><path d="M 22 16 L 28.960938 16 L 28.960938 25 L 22 25 Z M 22 16 " clip-rule="nonzero"/></clipPath><clipPath id="d05758b1e3"><path d="M 21 5.222656 L 33.3125 5.222656 L 33.3125 13.347656 L 21 13.347656 Z M 21 5.222656 " clip-rule="nonzero"/></clipPath><clipPath id="fa47b0dcf0"><path d="M 21.949219 5.222656 L 32.355469 5.222656 C 32.609375 5.222656 32.851562 5.324219 33.027344 5.503906 C 33.207031 5.679688 33.308594 5.921875 33.308594 6.175781 L 33.308594 12.398438 C 33.308594 12.648438 33.207031 12.890625 33.027344 13.070312 C 32.851562 13.246094 32.609375 13.347656 32.355469 13.347656 L 21.949219 13.347656 C 21.699219 13.347656 21.457031 13.246094 21.277344 13.070312 C 21.101562 12.890625 21 12.648438 21 12.398438 L 21 6.175781 C 21 5.921875 21.101562 5.679688 21.277344 5.503906 C 21.457031 5.324219 21.699219 5.222656 21.949219 5.222656 Z M 21.949219 5.222656 " clip-rule="nonzero"/></clipPath><clipPath id="21f866f0df"><path d="M 0 0.222656 L 12.308594 0.222656 L 12.308594 8.347656 L 0 8.347656 Z M 0 0.222656 " clip-rule="nonzero"/></clipPath><clipPath id="f153cb59c4"><path d="M 0.949219 0.222656 L 11.355469 0.222656 C 11.609375 0.222656 11.851562 0.324219 12.027344 0.503906 C 12.207031 0.679688 12.308594 0.921875 12.308594 1.175781 L 12.308594 7.398438 C 12.308594 7.648438 12.207031 7.890625 12.027344 8.070312 C 11.851562 8.246094 11.609375 8.347656 11.355469 8.347656 L 0.949219 8.347656 C 0.699219 8.347656 0.457031 8.246094 0.277344 8.070312 C 0.101562 7.890625 0 7.648438 0 7.398438 L 0 1.175781 C 0 0.921875 0.101562 0.679688 0.277344 0.503906 C 0.457031 0.324219 0.699219 0.222656 0.949219 0.222656 Z M 0.949219 0.222656 " clip-rule="nonzero"/></clipPath><clipPath id="fe3383abaf"><rect x="0" width="13" y="0" height="9"/></clipPath></defs><g clip-path="url(#4cbdeed8b9)"><path fill="#f6ffff" d="M 27.785156 12.925781 L 27.925781 12.890625 C 27.792969 12.40625 27.773438 11.984375 27.867188 11.628906 C 27.871094 11.613281 27.875 11.597656 27.878906 11.582031 C 27.90625 11.484375 27.945312 11.339844 27.96875 11.140625 C 28.003906 10.828125 27.984375 10.511719 27.902344 10.191406 C 27.890625 10.152344 27.851562 10.128906 27.8125 10.140625 C 27.773438 10.148438 27.75 10.191406 27.757812 10.230469 C 27.832031 10.53125 27.855469 10.832031 27.820312 11.125 C 27.800781 11.3125 27.765625 11.445312 27.738281 11.539062 C 27.730469 11.558594 27.726562 11.578125 27.722656 11.59375 C 27.621094 11.972656 27.640625 12.417969 27.785156 12.925781 Z M 27.785156 12.925781 " fill-opacity="1" fill-rule="nonzero"/></g><g clip-path="url(#8ddc7f1117)"><path fill="#f6ffff" d="M 28.589844 22.652344 L 28.59375 22.652344 C 28.582031 23.210938 28.527344 23.921875 28.347656 24.035156 C 28.34375 24.035156 28.339844 24.039062 28.339844 24.039062 C 28.152344 24.132812 27.832031 24.175781 27.285156 24.316406 C 26.621094 24.488281 25.917969 24.527344 25.230469 24.574219 C 25.171875 24.578125 25.117188 24.585938 25.0625 24.59375 C 24.898438 24.625 24.761719 24.6875 24.628906 24.777344 C 24.398438 24.785156 24.148438 24.789062 23.878906 24.789062 C 23.765625 24.789062 23.648438 24.789062 23.53125 24.789062 C 22.976562 25.527344 21.9375 26.671875 20.308594 27.25 C 19.871094 27.40625 19.285156 27.609375 18.511719 27.578125 C 17.210938 27.527344 16.539062 26.859375 15.546875 26.402344 C 14.746094 26.035156 13.550781 25.578125 11.734375 25.941406 C 11.757812 25.925781 11.78125 25.910156 11.800781 25.890625 C 12.507812 25.320312 13.222656 24.757812 13.929688 24.183594 C 14.296875 23.886719 14.660156 23.585938 15.023438 23.28125 C 15.089844 23.226562 15.148438 23.15625 15.203125 23.078125 C 15.234375 23.035156 15.261719 22.988281 15.285156 22.941406 C 15.359375 22.808594 15.410156 22.660156 15.445312 22.519531 C 15.621094 21.824219 15.707031 21.109375 15.882812 20.414062 C 16.472656 18.050781 18.050781 16.738281 20.386719 16.261719 C 20.683594 16.203125 20.984375 16.140625 21.285156 16.117188 C 21.417969 16.105469 21.539062 16.097656 21.644531 16.054688 C 21.753906 16.011719 21.847656 15.933594 21.925781 15.789062 C 22.054688 15.546875 22.726562 15.5625 22.902344 15.8125 C 22.914062 15.832031 22.925781 15.847656 22.9375 15.867188 C 22.996094 15.960938 23.011719 16.011719 23.035156 16.042969 C 23.039062 16.050781 23.042969 16.054688 23.046875 16.058594 C 23.074219 16.085938 23.117188 16.097656 23.230469 16.121094 C 23.613281 16.167969 24 16.253906 24.371094 16.371094 C 24.378906 16.375 24.382812 16.375 24.386719 16.378906 C 25.230469 16.671875 26.238281 17.195312 27.074219 18.125 C 28.265625 19.445312 28.464844 20.984375 28.558594 21.726562 L 28.566406 21.792969 C 28.574219 21.847656 28.582031 21.90625 28.589844 21.960938 C 28.589844 21.96875 28.589844 21.980469 28.589844 21.988281 C 28.589844 21.992188 28.589844 21.996094 28.589844 22 C 28.589844 22.007812 28.589844 22.015625 28.589844 22.027344 C 28.589844 22.035156 28.59375 22.046875 28.59375 22.0625 C 28.59375 22.066406 28.59375 22.070312 28.59375 22.078125 C 28.59375 22.085938 28.59375 22.097656 28.59375 22.109375 C 28.59375 22.113281 28.59375 22.121094 28.59375 22.125 C 28.59375 22.15625 28.59375 22.191406 28.59375 22.230469 C 28.59375 22.371094 28.589844 22.511719 28.589844 22.652344 Z M 28.589844 22.652344 " fill-opacity="1" fill-rule="nonzero"/></g><path fill="#f6ffff" d="M 25.0625 24.59375 C 24.898438 24.625 24.761719 24.6875 24.628906 24.777344 C 24.398438 24.785156 24.148438 24.789062 23.878906 24.789062 C 23.765625 24.789062 23.648438 24.789062 23.53125 24.789062 C 22.527344 24.773438 21.332031 24.691406 20.082031 24.5 C 18.4375 24.25 16.703125 23.8125 15.203125 23.078125 C 15.234375 23.035156 15.261719 22.988281 15.285156 22.941406 C 15.945312 23.261719 16.65625 23.527344 17.378906 23.746094 C 17.433594 23.761719 17.484375 23.777344 17.535156 23.792969 C 19.851562 24.457031 22.320312 24.644531 24.03125 24.628906 C 24.085938 24.628906 24.140625 24.628906 24.191406 24.628906 C 24.515625 24.625 24.808594 24.613281 25.0625 24.59375 Z M 25.0625 24.59375 " fill-opacity="1" fill-rule="nonzero"/><path fill="#f6ffff" d="M 24.1875 24.6875 L 24.027344 24.675781 C 24.121094 23.472656 24.113281 22.464844 24.109375 22.183594 C 24.078125 20.363281 24.050781 18.789062 23.21875 17.222656 C 23.023438 16.847656 22.789062 16.488281 22.523438 16.152344 L 22.648438 16.054688 C 22.917969 16.398438 23.160156 16.765625 23.359375 17.148438 C 24.207031 18.75 24.234375 20.339844 24.269531 22.179688 C 24.273438 22.460938 24.28125 23.476562 24.1875 24.6875 Z M 24.1875 24.6875 " fill-opacity="1" fill-rule="nonzero"/><g clip-path="url(#cc64c572f5)"><path fill="#f6ffff" d="M 24.628906 24.777344 C 24.554688 24.828125 24.476562 24.890625 24.402344 24.960938 C 23.570312 25.75 22.761719 26.566406 21.871094 27.289062 C 20.273438 28.582031 18.539062 28.714844 16.742188 27.683594 C 16.296875 27.429688 15.855469 27.167969 15.40625 26.925781 C 14.449219 26.410156 13.453125 26.171875 12.375 26.503906 C 12.152344 26.574219 11.914062 26.59375 11.679688 26.605469 C 11.585938 26.609375 11.417969 26.550781 11.40625 26.492188 C 11.382812 26.394531 11.425781 26.253906 11.492188 26.164062 C 11.554688 26.078125 11.644531 26.011719 11.734375 25.941406 C 13.550781 25.578125 14.746094 26.035156 15.546875 26.402344 C 16.539062 26.859375 17.210938 27.527344 18.511719 27.578125 C 19.285156 27.609375 19.871094 27.40625 20.308594 27.25 C 21.9375 26.671875 22.976562 25.527344 23.53125 24.789062 C 23.648438 24.789062 23.765625 24.789062 23.878906 24.789062 C 24.148438 24.789062 24.398438 24.785156 24.628906 24.777344 Z M 24.628906 24.777344 " fill-opacity="1" fill-rule="nonzero"/></g><path fill="#f6ffff" d="M 17.535156 23.800781 L 17.378906 23.789062 C 17.4375 22.71875 17.644531 21.671875 17.988281 20.675781 C 18.335938 19.671875 18.726562 18.535156 19.777344 17.492188 C 20.40625 16.867188 21.15625 16.382812 22.011719 16.054688 L 22.070312 16.203125 C 21.234375 16.523438 20.5 16.996094 19.890625 17.605469 C 18.867188 18.621094 18.480469 19.742188 18.136719 20.726562 C 17.800781 21.707031 17.597656 22.742188 17.535156 23.800781 Z M 17.535156 23.800781 " fill-opacity="1" fill-rule="nonzero"/><g clip-path="url(#b2a0c64aa8)"><path fill="#f6ffff" d="M 28.59375 22.652344 C 28.582031 23.210938 28.527344 23.921875 28.347656 24.035156 C 28.34375 24.035156 28.339844 24.039062 28.339844 24.039062 C 28.457031 23.300781 28.46875 22.554688 28.371094 21.816406 L 28.363281 21.75 C 28.269531 21.03125 28.078125 19.535156 26.929688 18.257812 C 25.5 16.667969 23.542969 16.304688 22.875 16.222656 C 22.851562 16.21875 22.828125 16.21875 22.808594 16.214844 L 22.828125 16.019531 C 22.882812 16.023438 22.953125 16.03125 23.035156 16.042969 C 23.039062 16.050781 23.042969 16.054688 23.046875 16.058594 C 23.074219 16.085938 23.117188 16.097656 23.230469 16.121094 C 23.613281 16.167969 24 16.253906 24.371094 16.371094 C 24.378906 16.375 24.382812 16.375 24.386719 16.378906 C 25.230469 16.671875 26.238281 17.195312 27.074219 18.125 C 28.265625 19.445312 28.464844 20.984375 28.558594 21.726562 L 28.566406 21.792969 C 28.574219 21.847656 28.582031 21.90625 28.589844 21.960938 C 28.589844 21.96875 28.589844 21.980469 28.589844 21.988281 C 28.589844 21.992188 28.589844 21.996094 28.589844 22 C 28.589844 22.007812 28.589844 22.015625 28.589844 22.027344 C 28.589844 22.035156 28.59375 22.046875 28.59375 22.0625 C 28.59375 22.066406 28.59375 22.070312 28.59375 22.078125 C 28.59375 22.085938 28.59375 22.097656 28.59375 22.109375 C 28.59375 22.113281 28.59375 22.121094 28.59375 22.125 C 28.59375 22.15625 28.59375 22.191406 28.59375 22.230469 C 28.597656 22.347656 28.597656 22.492188 28.59375 22.652344 Z M 28.59375 22.652344 " fill-opacity="1" fill-rule="nonzero"/></g><path fill="#f6ffff" d="M 25.875 18.738281 C 25.875 18.878906 25.761719 18.992188 25.621094 18.992188 C 25.480469 18.992188 25.363281 18.878906 25.363281 18.738281 C 25.363281 18.597656 25.480469 18.480469 25.621094 18.480469 C 25.761719 18.480469 25.875 18.597656 25.875 18.738281 Z M 25.875 18.738281 " fill-opacity="1" fill-rule="nonzero"/><path fill="#f6ffff" d="M 21.792969 18.652344 C 21.792969 18.722656 21.769531 18.78125 21.71875 18.832031 C 21.667969 18.882812 21.609375 18.90625 21.539062 18.90625 C 21.46875 18.90625 21.40625 18.882812 21.359375 18.832031 C 21.308594 18.78125 21.285156 18.722656 21.285156 18.652344 C 21.285156 18.582031 21.308594 18.523438 21.359375 18.472656 C 21.40625 18.421875 21.46875 18.398438 21.539062 18.398438 C 21.609375 18.398438 21.667969 18.421875 21.71875 18.472656 C 21.769531 18.523438 21.792969 18.582031 21.792969 18.652344 Z M 21.792969 18.652344 " fill-opacity="1" fill-rule="nonzero"/><path fill="#f6ffff" d="M 18.304688 18.046875 C 18.304688 18.1875 18.191406 18.300781 18.050781 18.300781 C 17.910156 18.300781 17.796875 18.1875 17.796875 18.046875 C 17.796875 17.90625 17.910156 17.789062 18.050781 17.789062 C 18.191406 17.789062 18.304688 17.90625 18.304688 18.046875 Z M 18.304688 18.046875 " fill-opacity="1" fill-rule="nonzero"/><path fill="#f6ffff" d="M 23.046875 16.058594 C 23.003906 16.121094 22.945312 16.175781 22.875 16.222656 C 22.851562 16.238281 22.832031 16.25 22.808594 16.261719 C 22.757812 16.285156 22.707031 16.308594 22.652344 16.324219 C 22.558594 16.351562 22.457031 16.367188 22.347656 16.367188 C 22.183594 16.367188 22.027344 16.332031 21.902344 16.269531 C 21.84375 16.242188 21.789062 16.207031 21.742188 16.164062 C 21.703125 16.132812 21.671875 16.09375 21.644531 16.054688 C 21.753906 16.011719 21.847656 15.933594 21.925781 15.789062 C 22.054688 15.546875 22.726562 15.5625 22.902344 15.8125 C 22.914062 15.832031 22.925781 15.847656 22.9375 15.863281 C 22.996094 15.960938 23.011719 16.011719 23.035156 16.042969 C 23.039062 16.050781 23.042969 16.054688 23.046875 16.058594 Z M 23.046875 16.058594 " fill-opacity="1" fill-rule="nonzero"/><g clip-path="url(#d05758b1e3)"><g clip-path="url(#fa47b0dcf0)"><g transform="matrix(1, 0, 0, 1, 21, 5)"><g clip-path="url(#fe3383abaf)"><g clip-path="url(#21f866f0df)"><g clip-path="url(#f153cb59c4)"><path fill="#000000" d="M 0 0.222656 L 12.3125 0.222656 L 12.3125 8.347656 L 0 8.347656 Z M 0 0.222656 " fill-opacity="1" fill-rule="nonzero"/></g></g></g></g></g></g></svg>