<svg xmlns="http://www.w3.org/2000/svg" xmlns:xlink="http://www.w3.org/1999/xlink" width="56" zoomAndPan="magnify" viewBox="0 0 42 42" height="56" preserveAspectRatio="xMidYMid meet" version="1.0"><defs><g/><clipPath id="f17a5a5934"><path d="M 10.0625 5.714844 L 32 5.714844 L 32 27.691406 L 10.0625 27.691406 Z M 10.0625 5.714844 " clip-rule="nonzero"/></clipPath><clipPath id="06722fa178"><path d="M 0.519531 1 L 4 1 L 4 5 L 0.519531 5 Z M 0.519531 1 " clip-rule="nonzero"/></clipPath><clipPath id="3b08e71d80"><path d="M 26 2 L 27.480469 2 L 27.480469 5 L 26 5 Z M 26 2 " clip-rule="nonzero"/></clipPath><clipPath id="fbb35822d8"><rect x="0" width="28" y="0" height="6"/></clipPath></defs><path fill="#f6ffff" d="M 22.773438 9.652344 L 21.734375 9.652344 L 21.3125 10.460938 C 21.28125 10.523438 21.210938 10.558594 21.144531 10.558594 L 17.289062 10.558594 C 17.21875 10.558594 17.152344 10.523438 17.121094 10.460938 L 16.695312 9.652344 L 15.652344 9.652344 C 15.457031 9.652344 15.300781 9.8125 15.300781 10.003906 L 15.300781 21.394531 L 23.140625 21.394531 L 23.140625 10.003906 C 23.125 9.808594 22.964844 9.652344 22.773438 9.652344 Z M 20.976562 15.796875 L 19.105469 19.164062 C 19.070312 19.222656 19.007812 19.261719 18.9375 19.261719 C 18.917969 19.261719 18.902344 19.257812 18.878906 19.253906 C 18.792969 19.226562 18.738281 19.140625 18.746094 19.050781 L 19.042969 16.554688 L 17.578125 16.347656 C 17.515625 16.335938 17.460938 16.296875 17.433594 16.242188 C 17.40625 16.183594 17.40625 16.113281 17.4375 16.058594 L 19.339844 12.796875 C 19.382812 12.71875 19.476562 12.683594 19.5625 12.710938 C 19.648438 12.738281 19.703125 12.820312 19.695312 12.910156 L 19.476562 15.351562 L 20.824219 15.515625 C 20.886719 15.527344 20.941406 15.5625 20.976562 15.617188 C 21.007812 15.671875 21.007812 15.742188 20.976562 15.796875 Z M 20.976562 15.796875 " fill-opacity="1" fill-rule="nonzero"/><path fill="#f6ffff" d="M 15.289062 23.296875 C 15.289062 23.492188 15.445312 23.648438 15.636719 23.648438 L 22.769531 23.648438 C 22.964844 23.648438 23.121094 23.488281 23.121094 23.296875 L 23.121094 21.777344 L 15.28125 21.777344 L 15.28125 23.296875 Z M 21.316406 22.527344 L 22.226562 22.527344 C 22.332031 22.527344 22.417969 22.613281 22.417969 22.71875 C 22.417969 22.824219 22.332031 22.910156 22.226562 22.910156 L 21.316406 22.910156 C 21.210938 22.910156 21.125 22.824219 21.125 22.71875 C 21.125 22.613281 21.210938 22.527344 21.316406 22.527344 Z M 18.296875 22.527344 L 20.117188 22.527344 C 20.222656 22.527344 20.308594 22.613281 20.308594 22.71875 C 20.308594 22.824219 20.222656 22.910156 20.117188 22.910156 L 18.296875 22.910156 C 18.191406 22.910156 18.105469 22.824219 18.105469 22.71875 C 18.105469 22.613281 18.191406 22.527344 18.296875 22.527344 Z M 16.191406 22.527344 L 17.101562 22.527344 C 17.207031 22.527344 17.292969 22.613281 17.292969 22.71875 C 17.292969 22.824219 17.207031 22.910156 17.101562 22.910156 L 16.191406 22.910156 C 16.085938 22.910156 16 22.824219 16 22.71875 C 16 22.613281 16.085938 22.527344 16.191406 22.527344 Z M 16.191406 22.527344 " fill-opacity="1" fill-rule="nonzero"/><path fill="#f6ffff" d="M 21.019531 10.175781 L 21.296875 9.652344 L 17.121094 9.652344 L 17.398438 10.175781 Z M 21.019531 10.175781 " fill-opacity="1" fill-rule="nonzero"/><path fill="#f6ffff" d="M 14.910156 18.597656 L 14.910156 13.363281 C 14.425781 14.144531 14.175781 15.042969 14.175781 15.976562 C 14.175781 16.917969 14.425781 17.8125 14.910156 18.597656 Z M 14.910156 18.597656 " fill-opacity="1" fill-rule="nonzero"/><path fill="#f6ffff" d="M 24.242188 15.851562 C 24.242188 15.832031 24.242188 15.808594 24.238281 15.789062 C 24.238281 15.773438 24.234375 15.75 24.234375 15.730469 C 24.234375 15.714844 24.230469 15.6875 24.230469 15.667969 C 24.222656 15.640625 24.222656 15.613281 24.222656 15.589844 C 24.203125 15.304688 24.15625 15.019531 24.082031 14.742188 C 24.078125 14.734375 24.078125 14.730469 24.078125 14.71875 C 23.957031 14.246094 23.765625 13.789062 23.503906 13.363281 L 23.503906 18.597656 C 23.765625 18.175781 23.957031 17.71875 24.078125 17.238281 C 24.078125 17.230469 24.082031 17.226562 24.082031 17.21875 C 24.152344 16.9375 24.203125 16.65625 24.222656 16.371094 C 24.230469 16.34375 24.230469 16.316406 24.230469 16.292969 C 24.230469 16.273438 24.234375 16.246094 24.234375 16.226562 C 24.234375 16.210938 24.238281 16.1875 24.238281 16.167969 C 24.238281 16.152344 24.238281 16.128906 24.242188 16.109375 C 24.242188 16.097656 24.242188 16.078125 24.242188 16.0625 C 24.242188 16.035156 24.242188 16.007812 24.242188 15.988281 C 24.242188 15.960938 24.242188 15.933594 24.242188 15.910156 C 24.242188 15.882812 24.242188 15.867188 24.242188 15.851562 Z M 24.242188 15.851562 " fill-opacity="1" fill-rule="nonzero"/><path fill="#f6ffff" d="M 25.414062 14.882812 L 24.515625 14.882812 C 24.5625 15.105469 24.59375 15.335938 24.605469 15.5625 C 24.609375 15.597656 24.609375 15.640625 24.617188 15.679688 C 24.617188 15.695312 24.617188 15.703125 24.621094 15.71875 C 24.621094 15.734375 24.625 15.753906 24.625 15.773438 C 24.625 15.804688 24.628906 15.832031 24.628906 15.863281 C 24.628906 15.898438 24.628906 15.941406 24.628906 15.976562 C 24.628906 16.015625 24.628906 16.054688 24.628906 16.089844 C 24.628906 16.125 24.628906 16.152344 24.625 16.183594 C 24.625 16.199219 24.625 16.21875 24.621094 16.238281 C 24.621094 16.25 24.621094 16.261719 24.617188 16.273438 C 24.609375 16.308594 24.609375 16.351562 24.605469 16.386719 C 24.589844 16.621094 24.554688 16.84375 24.515625 17.066406 L 25.410156 17.066406 C 25.523438 17.066406 25.613281 16.976562 25.613281 16.863281 L 25.613281 15.089844 C 25.617188 14.976562 25.527344 14.882812 25.414062 14.882812 Z M 25.414062 14.882812 " fill-opacity="1" fill-rule="nonzero"/><path fill="#f6ffff" d="M 26 15.679688 L 27.816406 15.679688 L 27.816406 16.269531 L 26 16.269531 Z M 26 15.679688 " fill-opacity="1" fill-rule="nonzero"/><path fill="#f6ffff" d="M 19.082031 15.5 L 19.242188 13.730469 L 17.917969 16.003906 L 19.285156 16.199219 C 19.382812 16.214844 19.457031 16.308594 19.449219 16.414062 L 19.242188 18.121094 L 20.5 15.855469 L 19.253906 15.703125 C 19.152344 15.695312 19.074219 15.597656 19.082031 15.5 Z M 19.082031 15.5 " fill-opacity="1" fill-rule="nonzero"/><g clip-path="url(#f17a5a5934)"><path fill="#f6ffff" d="M 20.996094 27.589844 C 19.519531 27.589844 18.089844 27.300781 16.742188 26.726562 C 15.4375 26.175781 14.265625 25.386719 13.265625 24.386719 C 12.261719 23.382812 11.472656 22.210938 10.921875 20.910156 C 10.347656 19.558594 10.0625 18.128906 10.0625 16.652344 C 10.0625 15.175781 10.347656 13.746094 10.921875 12.394531 C 11.472656 11.09375 12.257812 9.921875 13.265625 8.917969 C 14.269531 7.917969 15.4375 7.128906 16.742188 6.578125 C 18.089844 6.003906 19.519531 5.714844 20.996094 5.714844 C 22.472656 5.714844 23.90625 6.003906 25.253906 6.578125 C 26.558594 7.128906 27.726562 7.917969 28.730469 8.917969 C 29.734375 9.921875 30.523438 11.09375 31.074219 12.394531 C 31.644531 13.746094 31.933594 15.175781 31.933594 16.652344 C 31.933594 18.128906 31.648438 19.558594 31.074219 20.910156 C 30.523438 22.210938 29.734375 23.378906 28.730469 24.386719 C 27.726562 25.394531 26.558594 26.175781 25.253906 26.726562 C 23.902344 27.300781 22.46875 27.589844 20.996094 27.589844 Z M 20.996094 6.085938 C 15.167969 6.085938 10.429688 10.824219 10.429688 16.652344 C 10.429688 22.480469 15.167969 27.21875 20.996094 27.21875 C 26.824219 27.21875 31.566406 22.480469 31.566406 16.652344 C 31.566406 10.824219 26.820312 6.085938 20.996094 6.085938 Z M 20.996094 6.085938 " fill-opacity="1" fill-rule="nonzero"/></g><g transform="matrix(1, 0, 0, 1, 7, 27)"><g clip-path="url(#fbb35822d8)"><g clip-path="url(#06722fa178)"><g fill="#f6ffff" fill-opacity="1"><g transform="translate(0.737017, 4.195313)"><g><path d="M 0.671875 0 L 0.078125 -2.25 L 0.515625 -2.25 L 0.921875 -0.453125 L 1.40625 -2.25 L 1.859375 -2.25 L 2.328125 -0.453125 L 2.71875 -2.25 L 3.171875 -2.25 L 2.5625 0 L 2.0625 0 L 1.625 -1.671875 L 1.15625 0 Z M 0.671875 0 "/></g></g></g></g><g fill="#f6ffff" fill-opacity="1"><g transform="translate(3.982077, 4.195313)"><g><path d="M 0.4375 -1.84375 C 0.351562 -1.84375 0.285156 -1.863281 0.234375 -1.90625 C 0.191406 -1.957031 0.171875 -2.015625 0.171875 -2.078125 C 0.171875 -2.148438 0.191406 -2.207031 0.234375 -2.25 C 0.285156 -2.289062 0.351562 -2.3125 0.4375 -2.3125 C 0.507812 -2.3125 0.566406 -2.289062 0.609375 -2.25 C 0.660156 -2.207031 0.6875 -2.148438 0.6875 -2.078125 C 0.6875 -2.015625 0.660156 -1.957031 0.609375 -1.90625 C 0.566406 -1.863281 0.507812 -1.84375 0.4375 -1.84375 Z M 0.21875 0 L 0.21875 -1.59375 L 0.640625 -1.59375 L 0.640625 0 Z M 0.21875 0 "/></g></g></g><g fill="#f6ffff" fill-opacity="1"><g transform="translate(4.83993, 4.195313)"><g><path d="M 0.203125 0 L 0.203125 -1.59375 L 0.578125 -1.59375 L 0.609375 -1.296875 C 0.671875 -1.398438 0.75 -1.484375 0.84375 -1.546875 C 0.945312 -1.609375 1.066406 -1.640625 1.203125 -1.640625 L 1.203125 -1.203125 L 1.09375 -1.203125 C 1 -1.203125 0.914062 -1.1875 0.84375 -1.15625 C 0.769531 -1.125 0.710938 -1.070312 0.671875 -1 C 0.640625 -0.9375 0.625 -0.847656 0.625 -0.734375 L 0.625 0 Z M 0.203125 0 "/></g></g></g><g fill="#f6ffff" fill-opacity="1"><g transform="translate(6.083334, 4.195313)"><g><path d="M 0.984375 0.03125 C 0.828125 0.03125 0.6875 0 0.5625 -0.0625 C 0.4375 -0.132812 0.335938 -0.234375 0.265625 -0.359375 C 0.191406 -0.484375 0.15625 -0.625 0.15625 -0.78125 C 0.15625 -0.945312 0.1875 -1.09375 0.25 -1.21875 C 0.320312 -1.351562 0.421875 -1.457031 0.546875 -1.53125 C 0.671875 -1.601562 0.816406 -1.640625 0.984375 -1.640625 C 1.140625 -1.640625 1.273438 -1.601562 1.390625 -1.53125 C 1.515625 -1.457031 1.609375 -1.363281 1.671875 -1.25 C 1.742188 -1.132812 1.78125 -1.003906 1.78125 -0.859375 C 1.78125 -0.828125 1.78125 -0.796875 1.78125 -0.765625 C 1.78125 -0.742188 1.78125 -0.722656 1.78125 -0.703125 L 0.5625 -0.703125 C 0.570312 -0.578125 0.613281 -0.476562 0.6875 -0.40625 C 0.769531 -0.332031 0.867188 -0.296875 0.984375 -0.296875 C 1.066406 -0.296875 1.132812 -0.3125 1.1875 -0.34375 C 1.25 -0.382812 1.289062 -0.4375 1.3125 -0.5 L 1.734375 -0.5 C 1.703125 -0.394531 1.648438 -0.300781 1.578125 -0.21875 C 1.515625 -0.144531 1.429688 -0.0820312 1.328125 -0.03125 C 1.222656 0.0078125 1.109375 0.03125 0.984375 0.03125 Z M 0.984375 -1.296875 C 0.890625 -1.296875 0.800781 -1.265625 0.71875 -1.203125 C 0.644531 -1.148438 0.597656 -1.066406 0.578125 -0.953125 L 1.375 -0.953125 C 1.363281 -1.054688 1.320312 -1.140625 1.25 -1.203125 C 1.175781 -1.265625 1.085938 -1.296875 0.984375 -1.296875 Z M 0.984375 -1.296875 "/></g></g></g><g fill="#f6ffff" fill-opacity="1"><g transform="translate(8.004667, 4.195313)"><g><path d="M 0.203125 0 L 0.203125 -2.3125 L 0.625 -2.3125 L 0.625 0 Z M 0.203125 0 "/></g></g></g><g fill="#f6ffff" fill-opacity="1"><g transform="translate(8.836816, 4.195313)"><g><path d="M 0.984375 0.03125 C 0.828125 0.03125 0.6875 0 0.5625 -0.0625 C 0.4375 -0.132812 0.335938 -0.234375 0.265625 -0.359375 C 0.191406 -0.484375 0.15625 -0.625 0.15625 -0.78125 C 0.15625 -0.945312 0.1875 -1.09375 0.25 -1.21875 C 0.320312 -1.351562 0.421875 -1.457031 0.546875 -1.53125 C 0.671875 -1.601562 0.816406 -1.640625 0.984375 -1.640625 C 1.140625 -1.640625 1.273438 -1.601562 1.390625 -1.53125 C 1.515625 -1.457031 1.609375 -1.363281 1.671875 -1.25 C 1.742188 -1.132812 1.78125 -1.003906 1.78125 -0.859375 C 1.78125 -0.828125 1.78125 -0.796875 1.78125 -0.765625 C 1.78125 -0.742188 1.78125 -0.722656 1.78125 -0.703125 L 0.5625 -0.703125 C 0.570312 -0.578125 0.613281 -0.476562 0.6875 -0.40625 C 0.769531 -0.332031 0.867188 -0.296875 0.984375 -0.296875 C 1.066406 -0.296875 1.132812 -0.3125 1.1875 -0.34375 C 1.25 -0.382812 1.289062 -0.4375 1.3125 -0.5 L 1.734375 -0.5 C 1.703125 -0.394531 1.648438 -0.300781 1.578125 -0.21875 C 1.515625 -0.144531 1.429688 -0.0820312 1.328125 -0.03125 C 1.222656 0.0078125 1.109375 0.03125 0.984375 0.03125 Z M 0.984375 -1.296875 C 0.890625 -1.296875 0.800781 -1.265625 0.71875 -1.203125 C 0.644531 -1.148438 0.597656 -1.066406 0.578125 -0.953125 L 1.375 -0.953125 C 1.363281 -1.054688 1.320312 -1.140625 1.25 -1.203125 C 1.175781 -1.265625 1.085938 -1.296875 0.984375 -1.296875 Z M 0.984375 -1.296875 "/></g></g></g><g fill="#f6ffff" fill-opacity="1"><g transform="translate(10.758148, 4.195313)"><g><path d="M 0.875 0.03125 C 0.726562 0.03125 0.597656 0.0078125 0.484375 -0.03125 C 0.378906 -0.0703125 0.296875 -0.132812 0.234375 -0.21875 C 0.171875 -0.300781 0.132812 -0.394531 0.125 -0.5 L 0.53125 -0.5 C 0.550781 -0.4375 0.585938 -0.382812 0.640625 -0.34375 C 0.703125 -0.300781 0.773438 -0.28125 0.859375 -0.28125 C 0.953125 -0.28125 1.019531 -0.296875 1.0625 -0.328125 C 1.101562 -0.367188 1.125 -0.410156 1.125 -0.453125 C 1.125 -0.523438 1.09375 -0.570312 1.03125 -0.59375 C 0.96875 -0.625 0.882812 -0.648438 0.78125 -0.671875 C 0.707031 -0.679688 0.632812 -0.695312 0.5625 -0.71875 C 0.5 -0.75 0.4375 -0.78125 0.375 -0.8125 C 0.320312 -0.84375 0.273438 -0.882812 0.234375 -0.9375 C 0.203125 -0.988281 0.1875 -1.054688 0.1875 -1.140625 C 0.1875 -1.273438 0.238281 -1.390625 0.34375 -1.484375 C 0.457031 -1.585938 0.617188 -1.640625 0.828125 -1.640625 C 1.015625 -1.640625 1.160156 -1.59375 1.265625 -1.5 C 1.378906 -1.414062 1.453125 -1.296875 1.484375 -1.140625 L 1.09375 -1.140625 C 1.0625 -1.253906 0.972656 -1.3125 0.828125 -1.3125 C 0.742188 -1.3125 0.679688 -1.296875 0.640625 -1.265625 C 0.597656 -1.234375 0.578125 -1.195312 0.578125 -1.15625 C 0.578125 -1.113281 0.609375 -1.078125 0.671875 -1.046875 C 0.734375 -1.015625 0.816406 -0.988281 0.921875 -0.96875 C 1.035156 -0.945312 1.140625 -0.921875 1.234375 -0.890625 C 1.328125 -0.859375 1.398438 -0.8125 1.453125 -0.75 C 1.503906 -0.6875 1.53125 -0.597656 1.53125 -0.484375 C 1.53125 -0.378906 1.503906 -0.285156 1.453125 -0.203125 C 1.398438 -0.128906 1.320312 -0.0703125 1.21875 -0.03125 C 1.125 0.0078125 1.007812 0.03125 0.875 0.03125 Z M 0.875 0.03125 "/></g></g></g><g fill="#f6ffff" fill-opacity="1"><g transform="translate(12.444938, 4.195313)"><g><path d="M 0.875 0.03125 C 0.726562 0.03125 0.597656 0.0078125 0.484375 -0.03125 C 0.378906 -0.0703125 0.296875 -0.132812 0.234375 -0.21875 C 0.171875 -0.300781 0.132812 -0.394531 0.125 -0.5 L 0.53125 -0.5 C 0.550781 -0.4375 0.585938 -0.382812 0.640625 -0.34375 C 0.703125 -0.300781 0.773438 -0.28125 0.859375 -0.28125 C 0.953125 -0.28125 1.019531 -0.296875 1.0625 -0.328125 C 1.101562 -0.367188 1.125 -0.410156 1.125 -0.453125 C 1.125 -0.523438 1.09375 -0.570312 1.03125 -0.59375 C 0.96875 -0.625 0.882812 -0.648438 0.78125 -0.671875 C 0.707031 -0.679688 0.632812 -0.695312 0.5625 -0.71875 C 0.5 -0.75 0.4375 -0.78125 0.375 -0.8125 C 0.320312 -0.84375 0.273438 -0.882812 0.234375 -0.9375 C 0.203125 -0.988281 0.1875 -1.054688 0.1875 -1.140625 C 0.1875 -1.273438 0.238281 -1.390625 0.34375 -1.484375 C 0.457031 -1.585938 0.617188 -1.640625 0.828125 -1.640625 C 1.015625 -1.640625 1.160156 -1.59375 1.265625 -1.5 C 1.378906 -1.414062 1.453125 -1.296875 1.484375 -1.140625 L 1.09375 -1.140625 C 1.0625 -1.253906 0.972656 -1.3125 0.828125 -1.3125 C 0.742188 -1.3125 0.679688 -1.296875 0.640625 -1.265625 C 0.597656 -1.234375 0.578125 -1.195312 0.578125 -1.15625 C 0.578125 -1.113281 0.609375 -1.078125 0.671875 -1.046875 C 0.734375 -1.015625 0.816406 -0.988281 0.921875 -0.96875 C 1.035156 -0.945312 1.140625 -0.921875 1.234375 -0.890625 C 1.328125 -0.859375 1.398438 -0.8125 1.453125 -0.75 C 1.503906 -0.6875 1.53125 -0.597656 1.53125 -0.484375 C 1.53125 -0.378906 1.503906 -0.285156 1.453125 -0.203125 C 1.398438 -0.128906 1.320312 -0.0703125 1.21875 -0.03125 C 1.125 0.0078125 1.007812 0.03125 0.875 0.03125 Z M 0.875 0.03125 "/></g></g></g><g fill="#f6ffff" fill-opacity="1"><g transform="translate(14.131727, 4.195313)"><g/></g></g><g fill="#f6ffff" fill-opacity="1"><g transform="translate(14.896405, 4.195313)"><g><path d="M 1.234375 0.03125 C 1.003906 0.03125 0.804688 -0.015625 0.640625 -0.109375 C 0.484375 -0.203125 0.359375 -0.335938 0.265625 -0.515625 C 0.179688 -0.691406 0.140625 -0.894531 0.140625 -1.125 C 0.140625 -1.351562 0.179688 -1.554688 0.265625 -1.734375 C 0.359375 -1.910156 0.484375 -2.046875 0.640625 -2.140625 C 0.804688 -2.242188 1.003906 -2.296875 1.234375 -2.296875 C 1.503906 -2.296875 1.722656 -2.226562 1.890625 -2.09375 C 2.066406 -1.957031 2.179688 -1.769531 2.234375 -1.53125 L 1.78125 -1.53125 C 1.75 -1.644531 1.6875 -1.738281 1.59375 -1.8125 C 1.5 -1.882812 1.378906 -1.921875 1.234375 -1.921875 C 1.023438 -1.921875 0.859375 -1.847656 0.734375 -1.703125 C 0.617188 -1.566406 0.5625 -1.375 0.5625 -1.125 C 0.5625 -0.875 0.617188 -0.675781 0.734375 -0.53125 C 0.859375 -0.394531 1.023438 -0.328125 1.234375 -0.328125 C 1.378906 -0.328125 1.5 -0.359375 1.59375 -0.421875 C 1.6875 -0.492188 1.75 -0.585938 1.78125 -0.703125 L 2.234375 -0.703125 C 2.179688 -0.472656 2.066406 -0.289062 1.890625 -0.15625 C 1.722656 -0.03125 1.503906 0.03125 1.234375 0.03125 Z M 1.234375 0.03125 "/></g></g></g><g fill="#f6ffff" fill-opacity="1"><g transform="translate(17.264335, 4.195313)"><g><path d="M 0.203125 0 L 0.203125 -2.3125 L 0.625 -2.3125 L 0.625 -1.359375 C 0.675781 -1.441406 0.742188 -1.507812 0.828125 -1.5625 C 0.921875 -1.613281 1.03125 -1.640625 1.15625 -1.640625 C 1.351562 -1.640625 1.503906 -1.578125 1.609375 -1.453125 C 1.722656 -1.328125 1.78125 -1.144531 1.78125 -0.90625 L 1.78125 0 L 1.359375 0 L 1.359375 -0.859375 C 1.359375 -0.992188 1.332031 -1.097656 1.28125 -1.171875 C 1.226562 -1.242188 1.144531 -1.28125 1.03125 -1.28125 C 0.90625 -1.28125 0.804688 -1.238281 0.734375 -1.15625 C 0.660156 -1.082031 0.625 -0.972656 0.625 -0.828125 L 0.625 0 Z M 0.203125 0 "/></g></g></g><g fill="#f6ffff" fill-opacity="1"><g transform="translate(19.217797, 4.195313)"><g><path d="M 0.765625 0.03125 C 0.617188 0.03125 0.503906 0.0078125 0.421875 -0.03125 C 0.335938 -0.0703125 0.269531 -0.128906 0.21875 -0.203125 C 0.175781 -0.273438 0.15625 -0.351562 0.15625 -0.4375 C 0.15625 -0.59375 0.210938 -0.710938 0.328125 -0.796875 C 0.453125 -0.890625 0.628906 -0.9375 0.859375 -0.9375 L 1.265625 -0.9375 L 1.265625 -0.984375 C 1.265625 -1.085938 1.234375 -1.164062 1.171875 -1.21875 C 1.109375 -1.269531 1.03125 -1.296875 0.9375 -1.296875 C 0.851562 -1.296875 0.78125 -1.273438 0.71875 -1.234375 C 0.65625 -1.203125 0.617188 -1.144531 0.609375 -1.0625 L 0.203125 -1.0625 C 0.210938 -1.175781 0.25 -1.273438 0.3125 -1.359375 C 0.382812 -1.453125 0.472656 -1.519531 0.578125 -1.5625 C 0.679688 -1.613281 0.800781 -1.640625 0.9375 -1.640625 C 1.164062 -1.640625 1.34375 -1.582031 1.46875 -1.46875 C 1.601562 -1.351562 1.671875 -1.191406 1.671875 -0.984375 L 1.671875 0 L 1.328125 0 L 1.28125 -0.25 C 1.238281 -0.164062 1.171875 -0.0976562 1.078125 -0.046875 C 0.992188 0.00390625 0.890625 0.03125 0.765625 0.03125 Z M 0.859375 -0.28125 C 0.972656 -0.28125 1.0625 -0.316406 1.125 -0.390625 C 1.1875 -0.472656 1.226562 -0.570312 1.25 -0.6875 L 0.90625 -0.6875 C 0.789062 -0.6875 0.707031 -0.664062 0.65625 -0.625 C 0.613281 -0.582031 0.59375 -0.535156 0.59375 -0.484375 C 0.59375 -0.421875 0.613281 -0.367188 0.65625 -0.328125 C 0.707031 -0.296875 0.773438 -0.28125 0.859375 -0.28125 Z M 0.859375 -0.28125 "/></g></g></g><g fill="#f6ffff" fill-opacity="1"><g transform="translate(21.071658, 4.195313)"><g><path d="M 0.203125 0 L 0.203125 -1.59375 L 0.578125 -1.59375 L 0.609375 -1.296875 C 0.671875 -1.398438 0.75 -1.484375 0.84375 -1.546875 C 0.945312 -1.609375 1.066406 -1.640625 1.203125 -1.640625 L 1.203125 -1.203125 L 1.09375 -1.203125 C 1 -1.203125 0.914062 -1.1875 0.84375 -1.15625 C 0.769531 -1.125 0.710938 -1.070312 0.671875 -1 C 0.640625 -0.9375 0.625 -0.847656 0.625 -0.734375 L 0.625 0 Z M 0.203125 0 "/></g></g></g><g fill="#f6ffff" fill-opacity="1"><g transform="translate(22.305424, 4.195313)"><g><path d="M 0.890625 -0.46875 C 0.804688 -0.46875 0.734375 -0.476562 0.671875 -0.5 L 0.546875 -0.390625 C 0.585938 -0.367188 0.640625 -0.347656 0.703125 -0.328125 C 0.765625 -0.316406 0.863281 -0.304688 1 -0.296875 C 1.207031 -0.273438 1.359375 -0.222656 1.453125 -0.140625 C 1.554688 -0.0546875 1.609375 0.0507812 1.609375 0.1875 C 1.609375 0.28125 1.582031 0.367188 1.53125 0.453125 C 1.476562 0.546875 1.398438 0.617188 1.296875 0.671875 C 1.191406 0.722656 1.050781 0.75 0.875 0.75 C 0.65625 0.75 0.472656 0.707031 0.328125 0.625 C 0.191406 0.539062 0.125 0.410156 0.125 0.234375 C 0.125 0.0859375 0.191406 -0.0351562 0.328125 -0.140625 C 0.285156 -0.160156 0.25 -0.179688 0.21875 -0.203125 C 0.1875 -0.222656 0.160156 -0.242188 0.140625 -0.265625 L 0.140625 -0.34375 L 0.421875 -0.640625 C 0.296875 -0.742188 0.234375 -0.882812 0.234375 -1.0625 C 0.234375 -1.164062 0.257812 -1.257812 0.3125 -1.34375 C 0.363281 -1.4375 0.4375 -1.507812 0.53125 -1.5625 C 0.625 -1.613281 0.742188 -1.640625 0.890625 -1.640625 C 0.972656 -1.640625 1.054688 -1.625 1.140625 -1.59375 L 1.734375 -1.59375 L 1.734375 -1.34375 L 1.46875 -1.328125 C 1.507812 -1.242188 1.53125 -1.15625 1.53125 -1.0625 C 1.53125 -0.945312 1.503906 -0.84375 1.453125 -0.75 C 1.398438 -0.664062 1.320312 -0.597656 1.21875 -0.546875 C 1.125 -0.492188 1.015625 -0.46875 0.890625 -0.46875 Z M 0.890625 -0.796875 C 0.972656 -0.796875 1.039062 -0.816406 1.09375 -0.859375 C 1.144531 -0.898438 1.171875 -0.960938 1.171875 -1.046875 C 1.171875 -1.128906 1.144531 -1.191406 1.09375 -1.234375 C 1.039062 -1.285156 0.972656 -1.3125 0.890625 -1.3125 C 0.796875 -1.3125 0.722656 -1.285156 0.671875 -1.234375 C 0.617188 -1.191406 0.59375 -1.128906 0.59375 -1.046875 C 0.59375 -0.960938 0.617188 -0.898438 0.671875 -0.859375 C 0.722656 -0.816406 0.796875 -0.796875 0.890625 -0.796875 Z M 0.5 0.203125 C 0.5 0.273438 0.535156 0.332031 0.609375 0.375 C 0.679688 0.414062 0.769531 0.4375 0.875 0.4375 C 0.976562 0.4375 1.0625 0.414062 1.125 0.375 C 1.195312 0.332031 1.234375 0.273438 1.234375 0.203125 C 1.234375 0.140625 1.210938 0.0859375 1.171875 0.046875 C 1.128906 0.015625 1.046875 -0.00390625 0.921875 -0.015625 C 0.828125 -0.015625 0.742188 -0.0234375 0.671875 -0.046875 C 0.609375 -0.00390625 0.5625 0.03125 0.53125 0.0625 C 0.507812 0.101562 0.5 0.148438 0.5 0.203125 Z M 0.5 0.203125 "/></g></g></g><g fill="#f6ffff" fill-opacity="1"><g transform="translate(24.069324, 4.195313)"><g><path d="M 0.984375 0.03125 C 0.828125 0.03125 0.6875 0 0.5625 -0.0625 C 0.4375 -0.132812 0.335938 -0.234375 0.265625 -0.359375 C 0.191406 -0.484375 0.15625 -0.625 0.15625 -0.78125 C 0.15625 -0.945312 0.1875 -1.09375 0.25 -1.21875 C 0.320312 -1.351562 0.421875 -1.457031 0.546875 -1.53125 C 0.671875 -1.601562 0.816406 -1.640625 0.984375 -1.640625 C 1.140625 -1.640625 1.273438 -1.601562 1.390625 -1.53125 C 1.515625 -1.457031 1.609375 -1.363281 1.671875 -1.25 C 1.742188 -1.132812 1.78125 -1.003906 1.78125 -0.859375 C 1.78125 -0.828125 1.78125 -0.796875 1.78125 -0.765625 C 1.78125 -0.742188 1.78125 -0.722656 1.78125 -0.703125 L 0.5625 -0.703125 C 0.570312 -0.578125 0.613281 -0.476562 0.6875 -0.40625 C 0.769531 -0.332031 0.867188 -0.296875 0.984375 -0.296875 C 1.066406 -0.296875 1.132812 -0.3125 1.1875 -0.34375 C 1.25 -0.382812 1.289062 -0.4375 1.3125 -0.5 L 1.734375 -0.5 C 1.703125 -0.394531 1.648438 -0.300781 1.578125 -0.21875 C 1.515625 -0.144531 1.429688 -0.0820312 1.328125 -0.03125 C 1.222656 0.0078125 1.109375 0.03125 0.984375 0.03125 Z M 0.984375 -1.296875 C 0.890625 -1.296875 0.800781 -1.265625 0.71875 -1.203125 C 0.644531 -1.148438 0.597656 -1.066406 0.578125 -0.953125 L 1.375 -0.953125 C 1.363281 -1.054688 1.320312 -1.140625 1.25 -1.203125 C 1.175781 -1.265625 1.085938 -1.296875 0.984375 -1.296875 Z M 0.984375 -1.296875 "/></g></g></g><g clip-path="url(#3b08e71d80)"><g fill="#f6ffff" fill-opacity="1"><g transform="translate(25.990657, 4.195313)"><g><path d="M 0.203125 0 L 0.203125 -1.59375 L 0.578125 -1.59375 L 0.609375 -1.296875 C 0.671875 -1.398438 0.75 -1.484375 0.84375 -1.546875 C 0.945312 -1.609375 1.066406 -1.640625 1.203125 -1.640625 L 1.203125 -1.203125 L 1.09375 -1.203125 C 1 -1.203125 0.914062 -1.1875 0.84375 -1.15625 C 0.769531 -1.125 0.710938 -1.070312 0.671875 -1 C 0.640625 -0.9375 0.625 -0.847656 0.625 -0.734375 L 0.625 0 Z M 0.203125 0 "/></g></g></g></g></g></g></svg>