<svg xmlns="http://www.w3.org/2000/svg" xmlns:xlink="http://www.w3.org/1999/xlink" width="56" zoomAndPan="magnify" viewBox="0 0 42 42" height="56" preserveAspectRatio="xMidYMid meet" version="1.0"><defs><g/><clipPath id="ff4e3bb7d9"><path d="M 9.191406 7.734375 L 32.632812 7.734375 L 32.632812 28.246094 L 9.191406 28.246094 Z M 9.191406 7.734375 " clip-rule="nonzero"/></clipPath><clipPath id="49409cd8eb"><path d="M 0.753906 1 L 5 1 L 5 4 L 0.753906 4 Z M 0.753906 1 " clip-rule="nonzero"/></clipPath><clipPath id="542012e417"><path d="M 15 1 L 17 1 L 17 4.523438 L 15 4.523438 Z M 15 1 " clip-rule="nonzero"/></clipPath><clipPath id="723708c154"><rect x="0" width="28" y="0" height="5"/></clipPath></defs><g clip-path="url(#ff4e3bb7d9)"><path fill="#f6ffff" d="M 15.859375 18.714844 L 16.640625 18.714844 L 16.640625 22.683594 L 15.859375 22.683594 Z M 17.300781 21.546875 L 18.390625 21.546875 L 18.390625 19.851562 L 17.300781 19.851562 Z M 9.203125 15.179688 L 10.371094 15.855469 C 10.453125 15.902344 10.503906 15.96875 10.527344 16.054688 C 10.550781 16.144531 10.539062 16.226562 10.492188 16.304688 C 10.449219 16.386719 10.382812 16.4375 10.292969 16.460938 C 10.207031 16.484375 10.121094 16.472656 10.042969 16.429688 L 9.191406 15.9375 L 9.191406 17.609375 L 10.902344 18.597656 C 10.980469 18.644531 11.027344 18.710938 11.050781 18.800781 C 11.074219 18.886719 11.0625 18.96875 11.019531 19.046875 C 10.972656 19.125 10.90625 19.175781 10.820312 19.199219 C 10.734375 19.226562 10.652344 19.214844 10.574219 19.171875 L 9.191406 18.375 L 9.191406 20.050781 L 10.371094 20.730469 C 10.449219 20.777344 10.5 20.84375 10.523438 20.933594 C 10.546875 21.019531 10.539062 21.101562 10.492188 21.183594 C 10.445312 21.261719 10.378906 21.3125 10.292969 21.335938 C 10.207031 21.359375 10.121094 21.347656 10.042969 21.304688 L 9.191406 20.8125 L 9.191406 22.488281 L 10.902344 23.476562 C 10.980469 23.519531 11.03125 23.589844 11.054688 23.675781 C 11.078125 23.765625 11.066406 23.847656 11.023438 23.925781 C 10.976562 24.003906 10.910156 24.058594 10.824219 24.082031 C 10.734375 24.105469 10.652344 24.09375 10.574219 24.050781 L 9.191406 23.25 L 9.191406 24.925781 L 10.332031 25.585938 C 10.414062 25.632812 10.464844 25.699219 10.488281 25.789062 C 10.515625 25.875 10.503906 25.960938 10.457031 26.039062 C 10.410156 26.117188 10.34375 26.171875 10.253906 26.195312 C 10.167969 26.21875 10.082031 26.207031 10.003906 26.160156 L 9.191406 25.6875 L 9.191406 25.988281 C 9.191406 26.257812 9.242188 26.519531 9.347656 26.769531 C 9.449219 27.019531 9.597656 27.238281 9.789062 27.429688 C 9.980469 27.621094 10.199219 27.765625 10.449219 27.871094 C 10.699219 27.976562 10.960938 28.027344 11.230469 28.027344 L 11.859375 28.027344 L 11.859375 13.371094 L 11.230469 13.371094 C 10.980469 13.371094 10.738281 13.417969 10.503906 13.507812 C 10.269531 13.597656 10.058594 13.726562 9.871094 13.890625 C 9.6875 14.058594 9.535156 14.253906 9.417969 14.476562 C 9.304688 14.695312 9.230469 14.933594 9.203125 15.179688 Z M 13.359375 16.613281 C 13.3125 16.535156 13.304688 16.449219 13.328125 16.363281 C 13.351562 16.273438 13.402344 16.207031 13.480469 16.160156 L 15.179688 15.179688 C 15.152344 14.929688 15.078125 14.695312 14.964844 14.472656 C 14.847656 14.253906 14.695312 14.058594 14.511719 13.890625 C 14.324219 13.726562 14.113281 13.597656 13.878906 13.507812 C 13.644531 13.417969 13.40625 13.371094 13.152344 13.371094 L 12.523438 13.371094 L 12.523438 28.027344 L 13.15625 28.027344 C 13.425781 28.027344 13.683594 27.976562 13.933594 27.871094 C 14.183594 27.765625 14.402344 27.621094 14.59375 27.429688 C 14.785156 27.238281 14.933594 27.019531 15.035156 26.769531 C 15.140625 26.519531 15.191406 26.257812 15.195312 25.988281 L 15.195312 25.691406 L 13.8125 26.488281 C 13.734375 26.535156 13.648438 26.542969 13.5625 26.519531 C 13.472656 26.496094 13.40625 26.445312 13.359375 26.367188 C 13.3125 26.289062 13.300781 26.203125 13.328125 26.113281 C 13.351562 26.027344 13.402344 25.960938 13.480469 25.914062 L 15.195312 24.925781 L 15.195312 23.253906 L 14.34375 23.742188 C 14.261719 23.789062 14.179688 23.800781 14.089844 23.777344 C 14.003906 23.753906 13.933594 23.703125 13.886719 23.625 C 13.84375 23.542969 13.832031 23.460938 13.855469 23.371094 C 13.878906 23.28125 13.929688 23.214844 14.011719 23.171875 L 15.195312 22.488281 L 15.195312 20.8125 L 13.8125 21.609375 C 13.734375 21.65625 13.648438 21.667969 13.5625 21.644531 C 13.472656 21.621094 13.40625 21.570312 13.359375 21.488281 C 13.3125 21.410156 13.304688 21.328125 13.328125 21.238281 C 13.351562 21.148438 13.402344 21.082031 13.480469 21.039062 L 15.195312 20.050781 L 15.195312 18.375 L 14.34375 18.867188 C 14.261719 18.914062 14.179688 18.925781 14.089844 18.902344 C 14.003906 18.878906 13.933594 18.828125 13.886719 18.746094 C 13.84375 18.667969 13.832031 18.582031 13.855469 18.496094 C 13.878906 18.40625 13.929688 18.339844 14.011719 18.292969 L 15.195312 17.609375 L 15.195312 15.9375 L 13.8125 16.734375 C 13.734375 16.78125 13.648438 16.792969 13.5625 16.769531 C 13.472656 16.746094 13.40625 16.691406 13.359375 16.613281 Z M 19.054688 22.046875 L 22.941406 22.046875 L 22.941406 19.355469 L 19.054688 19.355469 Z M 31.09375 18.597656 L 32.804688 17.609375 L 32.804688 15.9375 L 31.953125 16.429688 C 31.875 16.472656 31.789062 16.484375 31.703125 16.460938 C 31.613281 16.4375 31.546875 16.386719 31.5 16.308594 C 31.457031 16.230469 31.445312 16.144531 31.46875 16.058594 C 31.492188 15.96875 31.542969 15.902344 31.621094 15.855469 L 32.789062 15.179688 C 32.761719 14.929688 32.691406 14.695312 32.574219 14.472656 C 32.457031 14.25 32.308594 14.058594 32.121094 13.890625 C 31.933594 13.722656 31.722656 13.597656 31.492188 13.507812 C 31.257812 13.417969 31.015625 13.371094 30.765625 13.371094 L 30.132812 13.371094 L 30.132812 28.027344 L 30.765625 28.027344 C 31.035156 28.027344 31.296875 27.976562 31.542969 27.871094 C 31.792969 27.765625 32.015625 27.621094 32.203125 27.429688 C 32.394531 27.238281 32.542969 27.019531 32.648438 26.769531 C 32.75 26.519531 32.804688 26.257812 32.804688 25.988281 L 32.804688 25.691406 L 31.992188 26.160156 C 31.910156 26.203125 31.828125 26.214844 31.742188 26.191406 C 31.652344 26.167969 31.585938 26.117188 31.542969 26.039062 C 31.496094 25.960938 31.484375 25.875 31.507812 25.789062 C 31.53125 25.699219 31.582031 25.632812 31.660156 25.585938 L 32.804688 24.925781 L 32.804688 23.253906 L 31.421875 24.050781 C 31.34375 24.09375 31.261719 24.105469 31.171875 24.082031 C 31.082031 24.058594 31.015625 24.007812 30.972656 23.929688 C 30.925781 23.847656 30.914062 23.765625 30.9375 23.675781 C 30.960938 23.589844 31.011719 23.519531 31.089844 23.476562 L 32.804688 22.488281 L 32.804688 20.8125 L 31.953125 21.304688 C 31.871094 21.347656 31.789062 21.359375 31.703125 21.335938 C 31.613281 21.3125 31.546875 21.261719 31.503906 21.183594 C 31.457031 21.101562 31.445312 21.019531 31.46875 20.933594 C 31.492188 20.84375 31.542969 20.777344 31.621094 20.730469 L 32.804688 20.050781 L 32.804688 18.375 L 31.421875 19.171875 C 31.34375 19.21875 31.261719 19.230469 31.171875 19.207031 C 31.082031 19.183594 31.015625 19.132812 30.972656 19.050781 C 30.925781 18.972656 30.914062 18.886719 30.9375 18.800781 C 30.960938 18.710938 31.011719 18.644531 31.089844 18.597656 Z M 26.816406 15.179688 L 28.515625 16.160156 C 28.59375 16.207031 28.644531 16.273438 28.667969 16.363281 C 28.691406 16.449219 28.679688 16.535156 28.632812 16.613281 C 28.589844 16.691406 28.523438 16.746094 28.433594 16.769531 C 28.34375 16.792969 28.261719 16.78125 28.183594 16.734375 L 26.800781 15.9375 L 26.800781 17.609375 L 27.984375 18.292969 C 28.0625 18.339844 28.113281 18.40625 28.136719 18.496094 C 28.160156 18.582031 28.148438 18.667969 28.101562 18.746094 C 28.058594 18.824219 27.992188 18.875 27.902344 18.898438 C 27.816406 18.921875 27.730469 18.910156 27.652344 18.867188 L 26.800781 18.375 L 26.800781 20.050781 L 28.515625 21.039062 C 28.59375 21.082031 28.644531 21.148438 28.667969 21.238281 C 28.691406 21.328125 28.679688 21.410156 28.632812 21.488281 C 28.589844 21.570312 28.523438 21.621094 28.433594 21.644531 C 28.34375 21.667969 28.261719 21.65625 28.179688 21.609375 L 26.800781 20.8125 L 26.800781 22.488281 L 27.984375 23.171875 C 28.0625 23.214844 28.113281 23.285156 28.136719 23.371094 C 28.160156 23.460938 28.148438 23.542969 28.101562 23.621094 C 28.058594 23.699219 27.992188 23.75 27.902344 23.773438 C 27.816406 23.800781 27.730469 23.789062 27.652344 23.742188 L 26.800781 23.253906 L 26.800781 24.925781 L 28.515625 25.914062 C 28.59375 25.960938 28.644531 26.027344 28.667969 26.113281 C 28.691406 26.203125 28.679688 26.289062 28.632812 26.367188 C 28.589844 26.445312 28.523438 26.496094 28.433594 26.519531 C 28.34375 26.542969 28.261719 26.535156 28.183594 26.488281 L 26.800781 25.691406 L 26.800781 25.988281 C 26.800781 26.257812 26.855469 26.519531 26.957031 26.769531 C 27.0625 27.019531 27.210938 27.238281 27.398438 27.429688 C 27.589844 27.621094 27.8125 27.765625 28.0625 27.871094 C 28.308594 27.976562 28.570312 28.027344 28.839844 28.027344 L 29.46875 28.027344 L 29.46875 13.371094 L 28.839844 13.371094 C 28.589844 13.371094 28.347656 13.417969 28.113281 13.507812 C 27.882812 13.597656 27.671875 13.722656 27.484375 13.890625 C 27.296875 14.058594 27.144531 14.25 27.03125 14.472656 C 26.914062 14.695312 26.84375 14.929688 26.816406 15.179688 Z M 25.355469 22.683594 L 26.136719 22.683594 L 26.136719 18.714844 L 25.355469 18.714844 Z M 23.605469 21.546875 L 24.691406 21.546875 L 24.691406 19.851562 L 23.605469 19.851562 Z M 17.464844 11.996094 L 20.070312 9.871094 L 17.464844 7.742188 L 17.464844 8.84375 L 13.433594 8.84375 L 13.433594 10.898438 L 17.464844 10.898438 Z M 24.53125 10.898438 L 28.558594 10.898438 L 28.558594 8.84375 L 24.53125 8.84375 L 24.53125 7.742188 L 21.925781 9.871094 L 24.53125 11.996094 Z M 24.53125 10.898438 " fill-opacity="1" fill-rule="nonzero"/></g><g transform="matrix(1, 0, 0, 1, 7, 29)"><g clip-path="url(#723708c154)"><g clip-path="url(#49409cd8eb)"><g fill="#f6ffff" fill-opacity="1"><g transform="translate(0.899207, 3.437532)"><g><path d="M 0.671875 0 L 0.078125 -2.25 L 0.515625 -2.25 L 0.921875 -0.453125 L 1.40625 -2.25 L 1.859375 -2.25 L 2.328125 -0.453125 L 2.71875 -2.25 L 3.171875 -2.25 L 2.5625 0 L 2.0625 0 L 1.625 -1.671875 L 1.15625 0 Z M 0.671875 0 "/></g></g></g></g><g fill="#f6ffff" fill-opacity="1"><g transform="translate(4.144268, 3.437532)"><g><path d="M 0.203125 0 L 0.203125 -2.3125 L 0.625 -2.3125 L 0.625 -1.359375 C 0.675781 -1.441406 0.742188 -1.507812 0.828125 -1.5625 C 0.921875 -1.613281 1.03125 -1.640625 1.15625 -1.640625 C 1.351562 -1.640625 1.503906 -1.578125 1.609375 -1.453125 C 1.722656 -1.328125 1.78125 -1.144531 1.78125 -0.90625 L 1.78125 0 L 1.359375 0 L 1.359375 -0.859375 C 1.359375 -0.992188 1.332031 -1.097656 1.28125 -1.171875 C 1.226562 -1.242188 1.144531 -1.28125 1.03125 -1.28125 C 0.90625 -1.28125 0.804688 -1.238281 0.734375 -1.15625 C 0.660156 -1.082031 0.625 -0.972656 0.625 -0.828125 L 0.625 0 Z M 0.203125 0 "/></g></g></g><g fill="#f6ffff" fill-opacity="1"><g transform="translate(6.09773, 3.437532)"><g><path d="M 0.984375 0.03125 C 0.828125 0.03125 0.6875 0 0.5625 -0.0625 C 0.4375 -0.132812 0.335938 -0.234375 0.265625 -0.359375 C 0.191406 -0.484375 0.15625 -0.625 0.15625 -0.78125 C 0.15625 -0.945312 0.1875 -1.09375 0.25 -1.21875 C 0.320312 -1.351562 0.421875 -1.457031 0.546875 -1.53125 C 0.671875 -1.601562 0.816406 -1.640625 0.984375 -1.640625 C 1.140625 -1.640625 1.273438 -1.601562 1.390625 -1.53125 C 1.515625 -1.457031 1.609375 -1.363281 1.671875 -1.25 C 1.742188 -1.132812 1.78125 -1.003906 1.78125 -0.859375 C 1.78125 -0.828125 1.78125 -0.796875 1.78125 -0.765625 C 1.78125 -0.742188 1.78125 -0.722656 1.78125 -0.703125 L 0.5625 -0.703125 C 0.570312 -0.578125 0.613281 -0.476562 0.6875 -0.40625 C 0.769531 -0.332031 0.867188 -0.296875 0.984375 -0.296875 C 1.066406 -0.296875 1.132812 -0.3125 1.1875 -0.34375 C 1.25 -0.382812 1.289062 -0.4375 1.3125 -0.5 L 1.734375 -0.5 C 1.703125 -0.394531 1.648438 -0.300781 1.578125 -0.21875 C 1.515625 -0.144531 1.429688 -0.0820312 1.328125 -0.03125 C 1.222656 0.0078125 1.109375 0.03125 0.984375 0.03125 Z M 0.984375 -1.296875 C 0.890625 -1.296875 0.800781 -1.265625 0.71875 -1.203125 C 0.644531 -1.148438 0.597656 -1.066406 0.578125 -0.953125 L 1.375 -0.953125 C 1.363281 -1.054688 1.320312 -1.140625 1.25 -1.203125 C 1.175781 -1.265625 1.085938 -1.296875 0.984375 -1.296875 Z M 0.984375 -1.296875 "/></g></g></g><g fill="#f6ffff" fill-opacity="1"><g transform="translate(8.019063, 3.437532)"><g><path d="M 0.984375 0.03125 C 0.828125 0.03125 0.6875 0 0.5625 -0.0625 C 0.4375 -0.132812 0.335938 -0.234375 0.265625 -0.359375 C 0.191406 -0.484375 0.15625 -0.625 0.15625 -0.78125 C 0.15625 -0.945312 0.1875 -1.09375 0.25 -1.21875 C 0.320312 -1.351562 0.421875 -1.457031 0.546875 -1.53125 C 0.671875 -1.601562 0.816406 -1.640625 0.984375 -1.640625 C 1.140625 -1.640625 1.273438 -1.601562 1.390625 -1.53125 C 1.515625 -1.457031 1.609375 -1.363281 1.671875 -1.25 C 1.742188 -1.132812 1.78125 -1.003906 1.78125 -0.859375 C 1.78125 -0.828125 1.78125 -0.796875 1.78125 -0.765625 C 1.78125 -0.742188 1.78125 -0.722656 1.78125 -0.703125 L 0.5625 -0.703125 C 0.570312 -0.578125 0.613281 -0.476562 0.6875 -0.40625 C 0.769531 -0.332031 0.867188 -0.296875 0.984375 -0.296875 C 1.066406 -0.296875 1.132812 -0.3125 1.1875 -0.34375 C 1.25 -0.382812 1.289062 -0.4375 1.3125 -0.5 L 1.734375 -0.5 C 1.703125 -0.394531 1.648438 -0.300781 1.578125 -0.21875 C 1.515625 -0.144531 1.429688 -0.0820312 1.328125 -0.03125 C 1.222656 0.0078125 1.109375 0.03125 0.984375 0.03125 Z M 0.984375 -1.296875 C 0.890625 -1.296875 0.800781 -1.265625 0.71875 -1.203125 C 0.644531 -1.148438 0.597656 -1.066406 0.578125 -0.953125 L 1.375 -0.953125 C 1.363281 -1.054688 1.320312 -1.140625 1.25 -1.203125 C 1.175781 -1.265625 1.085938 -1.296875 0.984375 -1.296875 Z M 0.984375 -1.296875 "/></g></g></g><g fill="#f6ffff" fill-opacity="1"><g transform="translate(9.940396, 3.437532)"><g><path d="M 0.203125 0 L 0.203125 -2.3125 L 0.625 -2.3125 L 0.625 0 Z M 0.203125 0 "/></g></g></g><g fill="#f6ffff" fill-opacity="1"><g transform="translate(10.772545, 3.437532)"><g/></g></g><g fill="#f6ffff" fill-opacity="1"><g transform="translate(11.537223, 3.437532)"><g><path d="M 0.765625 0.03125 C 0.617188 0.03125 0.503906 0.0078125 0.421875 -0.03125 C 0.335938 -0.0703125 0.269531 -0.128906 0.21875 -0.203125 C 0.175781 -0.273438 0.15625 -0.351562 0.15625 -0.4375 C 0.15625 -0.59375 0.210938 -0.710938 0.328125 -0.796875 C 0.453125 -0.890625 0.628906 -0.9375 0.859375 -0.9375 L 1.265625 -0.9375 L 1.265625 -0.984375 C 1.265625 -1.085938 1.234375 -1.164062 1.171875 -1.21875 C 1.109375 -1.269531 1.03125 -1.296875 0.9375 -1.296875 C 0.851562 -1.296875 0.78125 -1.273438 0.71875 -1.234375 C 0.65625 -1.203125 0.617188 -1.144531 0.609375 -1.0625 L 0.203125 -1.0625 C 0.210938 -1.175781 0.25 -1.273438 0.3125 -1.359375 C 0.382812 -1.453125 0.472656 -1.519531 0.578125 -1.5625 C 0.679688 -1.613281 0.800781 -1.640625 0.9375 -1.640625 C 1.164062 -1.640625 1.34375 -1.582031 1.46875 -1.46875 C 1.601562 -1.351562 1.671875 -1.191406 1.671875 -0.984375 L 1.671875 0 L 1.328125 0 L 1.28125 -0.25 C 1.238281 -0.164062 1.171875 -0.0976562 1.078125 -0.046875 C 0.992188 0.00390625 0.890625 0.03125 0.765625 0.03125 Z M 0.859375 -0.28125 C 0.972656 -0.28125 1.0625 -0.316406 1.125 -0.390625 C 1.1875 -0.472656 1.226562 -0.570312 1.25 -0.6875 L 0.90625 -0.6875 C 0.789062 -0.6875 0.707031 -0.664062 0.65625 -0.625 C 0.613281 -0.582031 0.59375 -0.535156 0.59375 -0.484375 C 0.59375 -0.421875 0.613281 -0.367188 0.65625 -0.328125 C 0.707031 -0.296875 0.773438 -0.28125 0.859375 -0.28125 Z M 0.859375 -0.28125 "/></g></g></g><g fill="#f6ffff" fill-opacity="1"><g transform="translate(13.391084, 3.437532)"><g><path d="M 0.203125 0 L 0.203125 -2.3125 L 0.625 -2.3125 L 0.625 0 Z M 0.203125 0 "/></g></g></g><g fill="#f6ffff" fill-opacity="1"><g transform="translate(14.223233, 3.437532)"><g><path d="M 0.4375 -1.84375 C 0.351562 -1.84375 0.285156 -1.863281 0.234375 -1.90625 C 0.191406 -1.957031 0.171875 -2.015625 0.171875 -2.078125 C 0.171875 -2.148438 0.191406 -2.207031 0.234375 -2.25 C 0.285156 -2.289062 0.351562 -2.3125 0.4375 -2.3125 C 0.507812 -2.3125 0.566406 -2.289062 0.609375 -2.25 C 0.660156 -2.207031 0.6875 -2.148438 0.6875 -2.078125 C 0.6875 -2.015625 0.660156 -1.957031 0.609375 -1.90625 C 0.566406 -1.863281 0.507812 -1.84375 0.4375 -1.84375 Z M 0.21875 0 L 0.21875 -1.59375 L 0.640625 -1.59375 L 0.640625 0 Z M 0.21875 0 "/></g></g></g><g clip-path="url(#542012e417)"><g fill="#f6ffff" fill-opacity="1"><g transform="translate(15.081086, 3.437532)"><g><path d="M 0.890625 -0.46875 C 0.804688 -0.46875 0.734375 -0.476562 0.671875 -0.5 L 0.546875 -0.390625 C 0.585938 -0.367188 0.640625 -0.347656 0.703125 -0.328125 C 0.765625 -0.316406 0.863281 -0.304688 1 -0.296875 C 1.207031 -0.273438 1.359375 -0.222656 1.453125 -0.140625 C 1.554688 -0.0546875 1.609375 0.0507812 1.609375 0.1875 C 1.609375 0.28125 1.582031 0.367188 1.53125 0.453125 C 1.476562 0.546875 1.398438 0.617188 1.296875 0.671875 C 1.191406 0.722656 1.050781 0.75 0.875 0.75 C 0.65625 0.75 0.472656 0.707031 0.328125 0.625 C 0.191406 0.539062 0.125 0.410156 0.125 0.234375 C 0.125 0.0859375 0.191406 -0.0351562 0.328125 -0.140625 C 0.285156 -0.160156 0.25 -0.179688 0.21875 -0.203125 C 0.1875 -0.222656 0.160156 -0.242188 0.140625 -0.265625 L 0.140625 -0.34375 L 0.421875 -0.640625 C 0.296875 -0.742188 0.234375 -0.882812 0.234375 -1.0625 C 0.234375 -1.164062 0.257812 -1.257812 0.3125 -1.34375 C 0.363281 -1.4375 0.4375 -1.507812 0.53125 -1.5625 C 0.625 -1.613281 0.742188 -1.640625 0.890625 -1.640625 C 0.972656 -1.640625 1.054688 -1.625 1.140625 -1.59375 L 1.734375 -1.59375 L 1.734375 -1.34375 L 1.46875 -1.328125 C 1.507812 -1.242188 1.53125 -1.15625 1.53125 -1.0625 C 1.53125 -0.945312 1.503906 -0.84375 1.453125 -0.75 C 1.398438 -0.664062 1.320312 -0.597656 1.21875 -0.546875 C 1.125 -0.492188 1.015625 -0.46875 0.890625 -0.46875 Z M 0.890625 -0.796875 C 0.972656 -0.796875 1.039062 -0.816406 1.09375 -0.859375 C 1.144531 -0.898438 1.171875 -0.960938 1.171875 -1.046875 C 1.171875 -1.128906 1.144531 -1.191406 1.09375 -1.234375 C 1.039062 -1.285156 0.972656 -1.3125 0.890625 -1.3125 C 0.796875 -1.3125 0.722656 -1.285156 0.671875 -1.234375 C 0.617188 -1.191406 0.59375 -1.128906 0.59375 -1.046875 C 0.59375 -0.960938 0.617188 -0.898438 0.671875 -0.859375 C 0.722656 -0.816406 0.796875 -0.796875 0.890625 -0.796875 Z M 0.5 0.203125 C 0.5 0.273438 0.535156 0.332031 0.609375 0.375 C 0.679688 0.414062 0.769531 0.4375 0.875 0.4375 C 0.976562 0.4375 1.0625 0.414062 1.125 0.375 C 1.195312 0.332031 1.234375 0.273438 1.234375 0.203125 C 1.234375 0.140625 1.210938 0.0859375 1.171875 0.046875 C 1.128906 0.015625 1.046875 -0.00390625 0.921875 -0.015625 C 0.828125 -0.015625 0.742188 -0.0234375 0.671875 -0.046875 C 0.609375 -0.00390625 0.5625 0.03125 0.53125 0.0625 C 0.507812 0.101562 0.5 0.148438 0.5 0.203125 Z M 0.5 0.203125 "/></g></g></g></g><g fill="#f6ffff" fill-opacity="1"><g transform="translate(16.909244, 3.437532)"><g><path d="M 0.203125 0 L 0.203125 -1.59375 L 0.578125 -1.59375 L 0.609375 -1.328125 C 0.648438 -1.421875 0.71875 -1.492188 0.8125 -1.546875 C 0.90625 -1.609375 1.019531 -1.640625 1.15625 -1.640625 C 1.34375 -1.640625 1.492188 -1.578125 1.609375 -1.453125 C 1.722656 -1.328125 1.78125 -1.144531 1.78125 -0.90625 L 1.78125 0 L 1.359375 0 L 1.359375 -0.859375 C 1.359375 -0.992188 1.328125 -1.097656 1.265625 -1.171875 C 1.210938 -1.242188 1.128906 -1.28125 1.015625 -1.28125 C 0.898438 -1.28125 0.804688 -1.238281 0.734375 -1.15625 C 0.660156 -1.082031 0.625 -0.972656 0.625 -0.828125 L 0.625 0 Z M 0.203125 0 "/></g></g></g><g fill="#f6ffff" fill-opacity="1"><g transform="translate(18.862706, 3.437532)"><g><path d="M 0.203125 0 L 0.203125 -1.59375 L 0.578125 -1.59375 L 0.609375 -1.375 C 0.660156 -1.457031 0.726562 -1.519531 0.8125 -1.5625 C 0.894531 -1.613281 0.992188 -1.640625 1.109375 -1.640625 C 1.359375 -1.640625 1.53125 -1.539062 1.625 -1.34375 C 1.6875 -1.4375 1.765625 -1.507812 1.859375 -1.5625 C 1.960938 -1.613281 2.070312 -1.640625 2.1875 -1.640625 C 2.394531 -1.640625 2.550781 -1.578125 2.65625 -1.453125 C 2.769531 -1.328125 2.828125 -1.144531 2.828125 -0.90625 L 2.828125 0 L 2.421875 0 L 2.421875 -0.859375 C 2.421875 -0.992188 2.394531 -1.097656 2.34375 -1.171875 C 2.289062 -1.242188 2.207031 -1.28125 2.09375 -1.28125 C 1.988281 -1.28125 1.898438 -1.238281 1.828125 -1.15625 C 1.765625 -1.082031 1.734375 -0.972656 1.734375 -0.828125 L 1.734375 0 L 1.3125 0 L 1.3125 -0.859375 C 1.3125 -0.992188 1.285156 -1.097656 1.234375 -1.171875 C 1.179688 -1.242188 1.097656 -1.28125 0.984375 -1.28125 C 0.878906 -1.28125 0.789062 -1.238281 0.71875 -1.15625 C 0.65625 -1.082031 0.625 -0.972656 0.625 -0.828125 L 0.625 0 Z M 0.203125 0 "/></g></g></g><g fill="#f6ffff" fill-opacity="1"><g transform="translate(21.873221, 3.437532)"><g><path d="M 0.984375 0.03125 C 0.828125 0.03125 0.6875 0 0.5625 -0.0625 C 0.4375 -0.132812 0.335938 -0.234375 0.265625 -0.359375 C 0.191406 -0.484375 0.15625 -0.625 0.15625 -0.78125 C 0.15625 -0.945312 0.1875 -1.09375 0.25 -1.21875 C 0.320312 -1.351562 0.421875 -1.457031 0.546875 -1.53125 C 0.671875 -1.601562 0.816406 -1.640625 0.984375 -1.640625 C 1.140625 -1.640625 1.273438 -1.601562 1.390625 -1.53125 C 1.515625 -1.457031 1.609375 -1.363281 1.671875 -1.25 C 1.742188 -1.132812 1.78125 -1.003906 1.78125 -0.859375 C 1.78125 -0.828125 1.78125 -0.796875 1.78125 -0.765625 C 1.78125 -0.742188 1.78125 -0.722656 1.78125 -0.703125 L 0.5625 -0.703125 C 0.570312 -0.578125 0.613281 -0.476562 0.6875 -0.40625 C 0.769531 -0.332031 0.867188 -0.296875 0.984375 -0.296875 C 1.066406 -0.296875 1.132812 -0.3125 1.1875 -0.34375 C 1.25 -0.382812 1.289062 -0.4375 1.3125 -0.5 L 1.734375 -0.5 C 1.703125 -0.394531 1.648438 -0.300781 1.578125 -0.21875 C 1.515625 -0.144531 1.429688 -0.0820312 1.328125 -0.03125 C 1.222656 0.0078125 1.109375 0.03125 0.984375 0.03125 Z M 0.984375 -1.296875 C 0.890625 -1.296875 0.800781 -1.265625 0.71875 -1.203125 C 0.644531 -1.148438 0.597656 -1.066406 0.578125 -0.953125 L 1.375 -0.953125 C 1.363281 -1.054688 1.320312 -1.140625 1.25 -1.203125 C 1.175781 -1.265625 1.085938 -1.296875 0.984375 -1.296875 Z M 0.984375 -1.296875 "/></g></g></g><g fill="#f6ffff" fill-opacity="1"><g transform="translate(23.794555, 3.437532)"><g><path d="M 0.203125 0 L 0.203125 -1.59375 L 0.578125 -1.59375 L 0.609375 -1.328125 C 0.648438 -1.421875 0.71875 -1.492188 0.8125 -1.546875 C 0.90625 -1.609375 1.019531 -1.640625 1.15625 -1.640625 C 1.34375 -1.640625 1.492188 -1.578125 1.609375 -1.453125 C 1.722656 -1.328125 1.78125 -1.144531 1.78125 -0.90625 L 1.78125 0 L 1.359375 0 L 1.359375 -0.859375 C 1.359375 -0.992188 1.328125 -1.097656 1.265625 -1.171875 C 1.210938 -1.242188 1.128906 -1.28125 1.015625 -1.28125 C 0.898438 -1.28125 0.804688 -1.238281 0.734375 -1.15625 C 0.660156 -1.082031 0.625 -0.972656 0.625 -0.828125 L 0.625 0 Z M 0.203125 0 "/></g></g></g><g fill="#f6ffff" fill-opacity="1"><g transform="translate(25.748017, 3.437532)"><g><path d="M 0.921875 0 C 0.753906 0 0.617188 -0.0390625 0.515625 -0.125 C 0.410156 -0.207031 0.359375 -0.351562 0.359375 -0.5625 L 0.359375 -1.25 L 0.09375 -1.25 L 0.09375 -1.59375 L 0.359375 -1.59375 L 0.421875 -2.03125 L 0.78125 -2.03125 L 0.78125 -1.59375 L 1.203125 -1.59375 L 1.203125 -1.25 L 0.78125 -1.25 L 0.78125 -0.546875 C 0.78125 -0.472656 0.796875 -0.421875 0.828125 -0.390625 C 0.859375 -0.359375 0.914062 -0.34375 1 -0.34375 L 1.203125 -0.34375 L 1.203125 0 Z M 0.921875 0 "/></g></g></g></g></g></svg>